<svg width="18" height="18" viewBox="0 0 18 18" fill="none" xmlns="http://www.w3.org/2000/svg">
<path d="M16.1859 11.4609C16.252 11.5435 16.2935 11.6429 16.3056 11.7479C16.3178 11.8529 16.3001 11.9592 16.2546 12.0546C16.2091 12.1501 16.1376 12.2307 16.0483 12.2874C15.9591 12.344 15.8557 12.3744 15.75 12.375H3.375V15.1875C3.375 15.3367 3.31574 15.4798 3.21025 15.5852C3.10476 15.6907 2.96168 15.75 2.8125 15.75C2.66332 15.75 2.52024 15.6907 2.41475 15.5852C2.30926 15.4798 2.25 15.3367 2.25 15.1875V3.375C2.25 3.22582 2.30926 3.08274 2.41475 2.97725C2.52024 2.87176 2.66332 2.8125 2.8125 2.8125H15.75C15.8557 2.81309 15.9591 2.84346 16.0483 2.90012C16.1376 2.95678 16.2091 3.03744 16.2546 3.13285C16.3001 3.22826 16.3178 3.33457 16.3056 3.43957C16.2935 3.54458 16.252 3.64405 16.1859 3.72656L13.0922 7.59375L16.1859 11.4609Z" fill="#F9C747"/>
</svg>
