<svg width="18" height="18" viewBox="0 0 18 18" fill="none" xmlns="http://www.w3.org/2000/svg">
<path d="M16.303 14.9064C15.2534 13.0983 13.5734 11.7413 11.585 11.0954C12.5381 10.5287 13.2787 9.6647 13.6932 8.63621C14.1076 7.60772 14.1729 6.4716 13.879 5.40241C13.5851 4.33321 12.9483 3.39008 12.0664 2.71789C11.1846 2.0457 10.1064 1.68164 8.99753 1.68164C7.88868 1.68164 6.8105 2.0457 5.92863 2.71789C5.04675 3.39008 4.40996 4.33321 4.11607 5.40241C3.82219 6.4716 3.88748 7.60772 4.3019 8.63621C4.71632 9.6647 5.45696 10.5287 6.41003 11.0954C4.42166 11.7413 2.74164 13.0983 1.69207 14.9064C1.64053 14.9911 1.61328 15.0884 1.61328 15.1876C1.61328 15.2868 1.64053 15.3841 1.69207 15.4689C1.74014 15.5551 1.81059 15.6267 1.89598 15.6762C1.98137 15.7257 2.07853 15.7512 2.17722 15.7501H15.8178C15.9165 15.7512 16.0137 15.7257 16.0991 15.6762C16.1845 15.6267 16.2549 15.5551 16.303 15.4689C16.3545 15.3841 16.3818 15.2868 16.3818 15.1876C16.3818 15.0884 16.3545 14.9911 16.303 14.9064Z" fill="#F9C747"/>
</svg>
