<svg width="144" height="144" viewBox="0 0 144 144" fill="none" xmlns="http://www.w3.org/2000/svg">
<g filter="url(#filter0_d_1002_12052)">
<rect x="28" y="12" width="88" height="88" rx="16" fill="#304FB8"/>
</g>
<g clip-path="url(#clip0_1002_12052)">
<path d="M81.2969 47.7969H90.8281C91.4759 47.7969 92 47.2727 92 46.625V37.1719C92 36.5241 91.4759 36 90.8281 36H81.2969C80.6491 36 80.125 36.5241 80.125 37.1719V40.7656H76.6094C75.9616 40.7656 75.4375 41.2898 75.4375 41.9375V54.8281H70.75V50.1406H66.0625V53.6562C66.0625 54.304 65.5384 54.8281 64.8906 54.8281H57.8594C57.2116 54.8281 56.6875 54.304 56.6875 53.6562V50.1406H52V67.7188C52 69.6573 53.577 71.2344 55.5156 71.2344H67.2344C69.173 71.2344 70.75 69.6573 70.75 67.7188V57.1719H75.4375V67.7188C75.4375 68.3665 75.9616 68.8906 76.6094 68.8906H80.125V74.8281C80.125 75.4759 80.6491 76 81.2969 76H90.8281C91.4759 76 92 75.4759 92 74.8281V65.375C92 64.7273 91.4759 64.2031 90.8281 64.2031H81.2969C80.6491 64.2031 80.125 64.7273 80.125 65.375V66.5469H77.7812V57.1719H80.125V60.6875C80.125 61.3352 80.6491 61.8594 81.2969 61.8594H90.8281C91.4759 61.8594 92 61.3352 92 60.6875V51.3125C92 50.6648 91.4759 50.1406 90.8281 50.1406H81.2969C80.6491 50.1406 80.125 50.6648 80.125 51.3125V54.8281H77.7812V43.1094H80.125V46.625C80.125 47.2727 80.6491 47.7969 81.2969 47.7969ZM61.375 66.5469C60.083 66.5469 59.0312 65.4952 59.0312 64.2031C59.0312 62.9111 60.083 61.8594 61.375 61.8594C62.667 61.8594 63.7188 62.9111 63.7188 64.2031C63.7188 65.4952 62.667 66.5469 61.375 66.5469Z" fill="#F9C747"/>
<path d="M63.7188 50.1406H59.0312V52.4844H63.7188V50.1406Z" fill="#F9C747"/>
<path d="M70.75 45.4531H52V47.7969H70.75V45.4531Z" fill="#F9C747"/>
<path d="M67.2344 38.3438H55.5156C53.577 38.3438 52 39.9989 52 41.9375V43.1094H70.75V41.9375C70.75 39.9989 69.173 38.3438 67.2344 38.3438Z" fill="#F9C747"/>
</g>
<defs>
<filter id="filter0_d_1002_12052" x="0" y="0" width="144" height="144" filterUnits="userSpaceOnUse" color-interpolation-filters="sRGB">
<feFlood flood-opacity="0" result="BackgroundImageFix"/>
<feColorMatrix in="SourceAlpha" type="matrix" values="0 0 0 0 0 0 0 0 0 0 0 0 0 0 0 0 0 0 127 0" result="hardAlpha"/>
<feMorphology radius="4" operator="dilate" in="SourceAlpha" result="effect1_dropShadow_1002_12052"/>
<feOffset dy="16"/>
<feGaussianBlur stdDeviation="12"/>
<feComposite in2="hardAlpha" operator="out"/>
<feColorMatrix type="matrix" values="0 0 0 0 0.14902 0 0 0 0 0.239216 0 0 0 0 0.564706 0 0 0 0.2 0"/>
<feBlend mode="normal" in2="BackgroundImageFix" result="effect1_dropShadow_1002_12052"/>
<feBlend mode="normal" in="SourceGraphic" in2="effect1_dropShadow_1002_12052" result="shape"/>
</filter>
<clipPath id="clip0_1002_12052">
<rect width="40" height="40" fill="white" transform="translate(52 36)"/>
</clipPath>
</defs>
</svg>
