<svg width="144" height="144" viewBox="0 0 144 144" fill="none" xmlns="http://www.w3.org/2000/svg">
<g filter="url(#filter0_d_1002_12085)">
<rect x="28" y="12" width="88" height="88" rx="16" fill="#304FB8"/>
</g>
<g clip-path="url(#clip0_1002_12085)">
<path d="M90.8281 36.0015H53.1719C52.5247 36.0015 52 36.5262 52 37.1733V43.0327H92V37.1733C92 36.5262 91.4753 36.0015 90.8281 36.0015ZM79.0312 40.6857C78.3858 40.6857 77.8594 40.1593 77.8594 39.5138C77.8594 38.8683 78.3858 38.3419 79.0312 38.3419C79.6767 38.3419 80.2031 38.8684 80.2031 39.5138C80.2032 40.1593 79.6767 40.6857 79.0312 40.6857ZM83.7188 40.6857C83.0733 40.6857 82.5469 40.1593 82.5469 39.5138C82.5469 38.8683 83.0733 38.3419 83.7188 38.3419C84.3642 38.3419 84.8906 38.8684 84.8906 39.5138C84.8906 40.1593 84.3642 40.6857 83.7188 40.6857ZM88.4062 40.6857C87.7608 40.6857 87.2344 40.1593 87.2344 39.5138C87.2344 38.8683 87.7609 38.3419 88.4062 38.3419C89.0517 38.3419 89.5781 38.8684 89.5781 39.5138C89.5781 40.1593 89.0517 40.6857 88.4062 40.6857Z" fill="#F9C747"/>
<path d="M52 68.8764C52 69.5236 52.5247 70.0483 53.1719 70.0483H61.1932C60.6791 68.6625 60.3985 67.1694 60.3985 65.6203V57.9307C60.3985 56.4458 61.3387 55.1144 62.7381 54.6176L70.8239 51.7475C71.2025 51.6131 71.5982 51.5449 71.9999 51.5449C72.4016 51.5449 72.7974 51.6131 73.176 51.7475L81.2618 54.6176C82.6612 55.1143 83.6014 56.4457 83.6014 57.9307V65.6202C83.6014 67.1693 83.3209 68.6624 82.8067 70.0482H90.8281C91.4753 70.0482 92 69.5236 92 68.8764V45.3486H52V68.8764Z" fill="#F9C747"/>
<path d="M80.4778 56.8263L72.3919 53.9562C72.1383 53.8662 71.8615 53.8662 71.6079 53.9562L63.522 56.8263C63.0545 56.9923 62.7422 57.4346 62.7422 57.9307V65.6202C62.7422 70.8573 66.6573 75.3148 71.849 75.9887C71.8991 75.9951 71.9495 75.9984 71.9998 75.9984C72.0502 75.9984 72.1006 75.9951 72.1507 75.9887C77.3425 75.3148 81.2576 70.8573 81.2576 65.6202V57.9307C81.2577 57.4347 80.9452 56.9923 80.4778 56.8263ZM75.9566 64.3662L72.6754 67.6474C72.4466 67.8762 72.1466 67.9907 71.8468 67.9907C71.547 67.9907 71.247 67.8763 71.0182 67.6474L69.2604 65.8896C68.8027 65.4319 68.8027 64.69 69.2604 64.2323C69.718 63.7747 70.46 63.7747 70.9177 64.2323L71.8469 65.1616L74.2995 62.7089C74.7571 62.2512 75.4991 62.2512 75.9568 62.7089C76.4143 63.1666 76.4143 63.9085 75.9566 64.3662Z" fill="#F9C747"/>
</g>
<defs>
<filter id="filter0_d_1002_12085" x="0" y="0" width="144" height="144" filterUnits="userSpaceOnUse" color-interpolation-filters="sRGB">
<feFlood flood-opacity="0" result="BackgroundImageFix"/>
<feColorMatrix in="SourceAlpha" type="matrix" values="0 0 0 0 0 0 0 0 0 0 0 0 0 0 0 0 0 0 127 0" result="hardAlpha"/>
<feMorphology radius="4" operator="dilate" in="SourceAlpha" result="effect1_dropShadow_1002_12085"/>
<feOffset dy="16"/>
<feGaussianBlur stdDeviation="12"/>
<feComposite in2="hardAlpha" operator="out"/>
<feColorMatrix type="matrix" values="0 0 0 0 0.14902 0 0 0 0 0.239216 0 0 0 0 0.564706 0 0 0 0.2 0"/>
<feBlend mode="normal" in2="BackgroundImageFix" result="effect1_dropShadow_1002_12085"/>
<feBlend mode="normal" in="SourceGraphic" in2="effect1_dropShadow_1002_12085" result="shape"/>
</filter>
<clipPath id="clip0_1002_12085">
<rect width="40" height="40" fill="white" transform="translate(52 36)"/>
</clipPath>
</defs>
</svg>
