<svg width="200" height="200" viewBox="0 0 200 200" fill="none" xmlns="http://www.w3.org/2000/svg">
<circle cx="100" cy="100" r="100" fill="#FEFFFE"/>
<g clip-path="url(#clip0_1040_487)">
<path d="M113.038 98.2875L95.0375 87.3C94.7377 87.11 94.3914 87.006 94.0365 86.9994C93.6816 86.9927 93.3317 87.0838 93.025 87.2625C92.7138 87.4332 92.4543 87.6847 92.2739 87.9905C92.0936 88.2962 91.9989 88.645 92 89V111C91.9989 111.355 92.0936 111.704 92.2739 112.009C92.4543 112.315 92.7138 112.567 93.025 112.737C93.3317 112.916 93.6816 113.007 94.0365 113.001C94.3914 112.994 94.7377 112.89 95.0375 112.7L113.038 101.712C113.333 101.534 113.577 101.283 113.746 100.983C113.915 100.683 114.004 100.345 114.004 100C114.004 99.6554 113.915 99.3167 113.746 99.0167C113.577 98.7166 113.333 98.4654 113.038 98.2875Z" fill="#3657CD"/>
</g>
<defs>
<clipPath id="clip0_1040_487">
<rect width="32" height="32" fill="white" transform="translate(84 84)"/>
</clipPath>
</defs>
</svg>
