<svg width="16" height="16" viewBox="0 0 16 16" fill="none" xmlns="http://www.w3.org/2000/svg">
<path d="M15.817 5.84943C15.7467 5.62894 15.6117 5.43474 15.4294 5.29216C15.2472 5.14959 15.0262 5.06525 14.7952 5.05017L10.6193 4.75794L9.07026 0.857239C8.98643 0.64159 8.83941 0.456295 8.64847 0.325633C8.45753 0.194972 8.23157 0.125039 8.0002 0.125H7.9991C7.76809 0.125412 7.54257 0.195523 7.35205 0.326164C7.16153 0.456806 7.01486 0.641899 6.93122 0.857239L5.35908 4.78045L1.20625 5.05017C0.975339 5.06525 0.754334 5.14958 0.572072 5.29216C0.389809 5.43474 0.254752 5.62894 0.184522 5.84943C0.110433 6.07304 0.105393 6.31379 0.170058 6.54031C0.234722 6.76684 0.366096 6.96864 0.54707 7.11945L3.74189 9.81989L2.79158 13.558C2.72607 13.8098 2.73812 14.0755 2.82614 14.3203C2.91415 14.5652 3.07404 14.7777 3.28486 14.9302C3.48841 15.0783 3.73182 15.1617 3.98341 15.1695C4.23501 15.1773 4.48314 15.1093 4.69551 14.9741L7.9914 12.8862C7.9958 12.8829 8.00019 12.8807 8.01008 12.8862L11.5565 15.1329C11.749 15.2559 11.9742 15.3179 12.2025 15.3109C12.4309 15.3038 12.6518 15.228 12.8364 15.0933C13.0274 14.9552 13.1723 14.7627 13.2521 14.5409C13.3319 14.3191 13.3428 14.0784 13.2835 13.8502L12.2739 9.7666L15.4544 7.11945C15.6354 6.96864 15.7668 6.76684 15.8314 6.54031C15.8961 6.31379 15.8911 6.07304 15.817 5.84943Z" fill="#F9C747"/>
</svg>
