<svg width="266" height="241" viewBox="0 0 266 241" fill="none" xmlns="http://www.w3.org/2000/svg">
<path d="M108.693 34.7764H0V96.053H108.693V34.7764Z" fill="url(#paint0_linear_1195_2513)"/>
<path d="M16.6197 105.095C23.0371 105.095 28.2395 99.8926 28.2395 93.4752C28.2395 87.0578 23.0371 81.8555 16.6197 81.8555C10.2023 81.8555 5 87.0578 5 93.4752C5 99.8926 10.2023 105.095 16.6197 105.095Z" fill="#E94552"/>
<path d="M15.0328 99.5237C14.8321 99.5237 14.6342 99.4769 14.4547 99.3872C14.2753 99.2974 14.1192 99.1671 13.9989 99.0065L10.8288 94.7797C10.727 94.6439 10.6529 94.4894 10.6107 94.325C10.5686 94.1606 10.5593 93.9894 10.5833 93.8214C10.6073 93.6534 10.6642 93.4917 10.7507 93.3457C10.8372 93.1996 10.9516 93.0721 11.0874 92.9702C11.2231 92.8684 11.3777 92.7943 11.5421 92.7522C11.7065 92.71 11.8776 92.7007 12.0457 92.7247C12.2137 92.7487 12.3753 92.8056 12.5214 92.8921C12.6674 92.9786 12.795 93.093 12.8969 93.2288L14.9708 95.9938L20.2975 88.0039C20.4879 87.7191 20.7835 87.5216 21.1194 87.4546C21.4553 87.3877 21.8041 87.4568 22.0891 87.6468C22.3741 87.8368 22.572 88.1321 22.6394 88.468C22.7068 88.8038 22.6381 89.1526 22.4485 89.4379L16.1083 98.948C15.9937 99.12 15.8394 99.262 15.6585 99.3621C15.4776 99.4622 15.2754 99.5174 15.0688 99.5232C15.0568 99.5234 15.0448 99.5237 15.0328 99.5237Z" fill="white"/>
<path d="M257.873 7.05566H149.18V68.3323H257.873V7.05566Z" fill="url(#paint1_linear_1195_2513)"/>
<path d="M238.54 25.8555H167.46C166.808 25.8555 166.182 25.6974 165.721 25.4161C165.259 25.1348 165 24.7533 165 24.3555C165 23.9576 165.259 23.5761 165.721 23.2948C166.182 23.0135 166.808 22.8555 167.46 22.8555H238.54C239.192 22.8555 239.818 23.0135 240.279 23.2948C240.741 23.5761 241 23.9576 241 24.3555C241 24.7533 240.741 25.1348 240.279 25.4161C239.818 25.6974 239.192 25.8555 238.54 25.8555Z" fill="#407CCA"/>
<path d="M92.5396 51.8555H21.4604C20.8079 51.8555 20.1821 51.6974 19.7206 51.4161C19.2592 51.1348 19 50.7533 19 50.3555C19 49.9576 19.2592 49.5761 19.7206 49.2948C20.1821 49.0135 20.8079 48.8555 21.4604 48.8555H92.5396C93.1921 48.8555 93.8179 49.0135 94.2793 49.2948C94.7408 49.5761 95 49.9576 95 50.3555C95 50.7533 94.7408 51.1348 94.2793 51.4161C93.8179 51.6974 93.1921 51.8555 92.5396 51.8555Z" fill="#DEECF7"/>
<path d="M238.54 38.8555H167.46C166.808 38.8555 166.182 38.6448 165.721 38.2697C165.259 37.8946 165 37.3859 165 36.8555C165 36.325 165.259 35.8163 165.721 35.4413C166.182 35.0662 166.808 34.8555 167.46 34.8555H238.54C239.192 34.8555 239.818 35.0662 240.279 35.4413C240.741 35.8163 241 36.325 241 36.8555C241 37.3859 240.741 37.8946 240.279 38.2697C239.818 38.6448 239.192 38.8555 238.54 38.8555Z" fill="#407CCA"/>
<path d="M92.5396 64.8555H21.4604C20.8079 64.8555 20.1821 64.6448 19.7206 64.2697C19.2592 63.8946 19 63.3859 19 62.8555C19 62.325 19.2592 61.8163 19.7206 61.4413C20.1821 61.0662 20.8079 60.8555 21.4604 60.8555H92.5396C93.1921 60.8555 93.8179 61.0662 94.2794 61.4413C94.7408 61.8163 95 62.325 95 62.8555C95 63.3859 94.7408 63.8946 94.2794 64.2697C93.8179 64.6448 93.1921 64.8555 92.5396 64.8555Z" fill="#DEECF7"/>
<path d="M238.54 50.8555H167.46C166.808 50.8555 166.182 50.6448 165.721 50.2697C165.259 49.8946 165 49.3859 165 48.8555C165 48.325 165.259 47.8163 165.721 47.4413C166.182 47.0662 166.808 46.8555 167.46 46.8555H238.54C239.192 46.8555 239.818 47.0662 240.279 47.4413C240.741 47.8163 241 48.325 241 48.8555C241 49.3859 240.741 49.8946 240.279 50.2697C239.818 50.6448 239.192 50.8555 238.54 50.8555Z" fill="#407CCA"/>
<path d="M92.5396 76.8555H21.4604C20.8079 76.8555 20.1821 76.6448 19.7206 76.2697C19.2592 75.8946 19 75.3859 19 74.8555C19 74.325 19.2592 73.8163 19.7206 73.4413C20.1821 73.0662 20.8079 72.8555 21.4604 72.8555H92.5396C93.1921 72.8555 93.8179 73.0662 94.2794 73.4413C94.7408 73.8163 95 74.325 95 74.8555C95 75.3859 94.7408 75.8946 94.2794 76.2697C93.8179 76.6448 93.1921 76.8555 92.5396 76.8555Z" fill="#DEECF7"/>
<path d="M134.819 154.679C134.85 154.02 135.026 153.375 135.333 152.791C135.64 152.207 136.072 151.697 136.598 151.297C137.123 150.898 137.73 150.619 138.375 150.479C139.021 150.34 139.689 150.343 140.332 150.49L146.304 142.074L152.303 144.456L143.703 156.222C143.385 157.287 142.688 158.198 141.743 158.783C140.798 159.368 139.671 159.587 138.576 159.396C137.481 159.206 136.493 158.621 135.801 157.752C135.109 156.882 134.759 155.789 134.819 154.679L134.819 154.679Z" fill="#A0616A"/>
<path d="M141.371 147.442L151.988 129.585L147.663 118.05L153.554 102.339L153.771 102.432C153.914 102.493 157.261 103.987 157.757 109.336L164.528 130.614L146.459 154.055L141.371 147.442Z" fill="#003A70"/>
<path d="M83.7083 81.7949C84.3633 81.877 84.9924 82.1018 85.5511 82.4533C86.1099 82.8049 86.5848 83.2746 86.9424 83.8296C87.2999 84.3845 87.5315 85.0111 87.6207 85.6652C87.7099 86.3193 87.6546 86.985 87.4587 87.6154L95.3874 94.2198L92.5491 100.017L81.4833 90.533C80.446 90.1337 79.5913 89.3678 79.081 88.3804C78.5707 87.393 78.4404 86.2528 78.7146 85.1757C78.9889 84.0986 79.6487 83.1595 80.5691 82.5364C81.4894 81.9133 82.6064 81.6495 83.7083 81.7949Z" fill="#F7C5B4"/>
<path d="M90.417 88.8857L107.399 100.852L119.234 97.431L134.443 104.519L134.333 104.729C134.261 104.866 132.513 108.088 127.141 108.169L105.403 113.274L83.4297 93.4468L90.417 88.8857Z" fill="#003A70"/>
<path d="M121.492 234.398H115.588L112.779 211.626L121.493 211.626L121.492 234.398Z" fill="#F7C5B4"/>
<path d="M109.631 232.711H122.756V239.88H104.201V238.141C104.201 236.701 104.773 235.32 105.792 234.301C106.81 233.283 108.191 232.711 109.631 232.711Z" fill="#003A70"/>
<path d="M145.088 234.398H139.184L136.375 211.626L145.088 211.626L145.088 234.398Z" fill="#F7C5B4"/>
<path d="M133.229 232.711H146.354V239.88H127.799V238.141C127.799 236.701 128.371 235.32 129.389 234.301C130.408 233.283 131.789 232.711 133.229 232.711Z" fill="#003A70"/>
<path d="M147.188 151.277L146.707 184.987L146.225 229.291L135.631 228.328L130.334 167.169L123.592 228.328H112.654L111.553 166.688L115.405 153.204L147.188 151.277Z" fill="#3B5CAD"/>
<path d="M114.348 153.409L112.734 153.339L120.231 112.041L117.162 99.5581C117.002 98.9087 117.086 98.2233 117.398 97.6318C117.71 97.0403 118.229 96.5838 118.855 96.3489L124.378 94.278L126.329 88.9121L141.723 90.571L142.102 94.7645C143.77 95.2995 157.507 99.8745 156.559 105.087C155.624 110.233 150.1 126.421 149.82 127.241L148.852 150.457L148.733 150.516C148.59 150.588 137.979 155.805 126.452 155.804C122.392 155.804 118.217 155.157 114.348 153.409Z" fill="#003A70"/>
<path d="M143.149 80.4894C146.085 75.118 144.111 68.3834 138.74 65.4471C133.368 62.5108 126.634 64.4849 123.697 69.8563C120.761 75.2277 122.735 81.9623 128.107 84.8986C133.478 87.8349 140.213 85.8608 143.149 80.4894Z" fill="#F7C5B4"/>
<path d="M142.401 85.9025C140.289 88.1526 136.366 86.9447 136.09 83.8707C136.069 83.632 136.07 83.3919 136.095 83.1535C136.237 81.7919 137.024 80.5557 136.835 79.118C136.793 78.7601 136.659 78.4191 136.448 78.1273C134.765 75.8732 130.813 79.1355 129.225 77.0949C128.251 75.8437 129.396 73.8738 128.648 72.4753C127.662 70.6296 124.739 71.5401 122.907 70.5293C120.868 69.4047 120.99 66.2763 122.332 64.3735C123.969 62.0529 126.839 60.8147 129.673 60.6362C132.507 60.4578 135.322 61.2239 137.968 62.2551C140.974 63.4267 143.955 65.0458 145.805 67.6893C148.055 70.904 148.271 75.226 147.146 78.985C146.462 81.2716 144.126 84.065 142.401 85.9025Z" fill="#3C3C3B"/>
<defs>
<linearGradient id="paint0_linear_1195_2513" x1="119.562" y1="41.641" x2="130.675" y2="97.4343" gradientUnits="userSpaceOnUse">
<stop stop-color="#407CCA"/>
<stop offset="1" stop-color="#3B5CAD"/>
</linearGradient>
<linearGradient id="paint1_linear_1195_2513" x1="244.582" y1="72.6061" x2="170.679" y2="118.86" gradientUnits="userSpaceOnUse">
<stop stop-color="white"/>
<stop offset="1" stop-color="#B6D4ED"/>
</linearGradient>
</defs>
</svg>
