<svg width="248" height="241" viewBox="0 0 248 241" fill="none" xmlns="http://www.w3.org/2000/svg">
<g clip-path="url(#clip0_1195_2583)">
<path d="M97.573 57.2131H37.7413C37.2434 57.2126 36.766 57.0145 36.4139 56.6625C36.0619 56.3104 35.8638 55.833 35.8633 55.3351V9.90454C35.8638 9.40661 36.0619 8.92924 36.4139 8.57713C36.766 8.22503 37.2434 8.02696 37.7413 8.02637H111.182C111.68 8.02696 112.157 8.22503 112.509 8.57713C112.861 8.92924 113.059 9.40661 113.06 9.90454V41.7264C113.055 45.8323 111.422 49.7687 108.519 52.672C105.615 55.5754 101.679 57.2085 97.573 57.2131Z" fill="url(#paint0_linear_1195_2583)"/>
<path d="M96.6637 23.3692H52.2578C51.8502 23.3692 51.4592 23.2072 51.1709 22.919C50.8826 22.6307 50.7207 22.2397 50.7207 21.832C50.7207 21.4244 50.8826 21.0334 51.1709 20.7451C51.4592 20.4569 51.8502 20.2949 52.2578 20.2949H96.6637C97.0709 20.2955 97.4613 20.4577 97.7491 20.7459C98.0369 21.0341 98.1985 21.4248 98.1985 21.832C98.1985 22.2393 98.0369 22.6299 97.7491 22.9181C97.4613 23.2064 97.0709 23.3686 96.6637 23.3692Z" fill="#407CCA"/>
<path d="M96.6636 33.958H52.2578C51.8502 33.958 51.4592 33.7961 51.1709 33.5078C50.8826 33.2196 50.7207 32.8286 50.7207 32.4209C50.7207 32.0132 50.8826 31.6223 51.1709 31.334C51.4592 31.0457 51.8502 30.8838 52.2578 30.8838H96.6636C97.0713 30.8838 97.4623 31.0457 97.7506 31.334C98.0388 31.6223 98.2008 32.0132 98.2008 32.4209C98.2008 32.8286 98.0388 33.2196 97.7506 33.5078C97.4623 33.7961 97.0713 33.958 96.6636 33.958Z" fill="#407CCA"/>
<path d="M96.6636 44.8496H52.2578C51.8502 44.8496 51.4592 44.6877 51.1709 44.3994C50.8826 44.1112 50.7207 43.7202 50.7207 43.3125C50.7207 42.9048 50.8826 42.5139 51.1709 42.2256C51.4592 41.9373 51.8502 41.7754 52.2578 41.7754H96.6636C97.0713 41.7754 97.4623 41.9373 97.7506 42.2256C98.0388 42.5139 98.2008 42.9048 98.2008 43.3125C98.2008 43.7202 98.0388 44.1112 97.7506 44.3994C97.4623 44.6877 97.0713 44.8496 96.6636 44.8496Z" fill="#407CCA"/>
<path d="M110.63 19.2139C115.7 19.2139 119.81 15.1042 119.81 10.0347C119.81 4.96514 115.7 0.855469 110.63 0.855469C105.561 0.855469 101.451 4.96514 101.451 10.0347C101.451 15.1042 105.561 19.2139 110.63 19.2139Z" fill="#E94552"/>
<path d="M109.377 14.8117C109.218 14.8117 109.062 14.7748 108.92 14.7039C108.778 14.633 108.655 14.53 108.56 14.4032L106.056 11.0642C105.975 10.9569 105.917 10.8348 105.883 10.7049C105.85 10.5751 105.843 10.4399 105.862 10.3071C105.881 10.1744 105.926 10.0467 105.994 9.93134C106.062 9.81596 106.153 9.71517 106.26 9.63473C106.367 9.55428 106.489 9.49575 106.619 9.46248C106.749 9.4292 106.884 9.42184 107.017 9.44081C107.15 9.45977 107.277 9.5047 107.393 9.57302C107.508 9.64134 107.609 9.73171 107.689 9.83898L109.328 12.0233L113.536 5.71153C113.686 5.4862 113.919 5.32978 114.185 5.27667C114.451 5.22356 114.726 5.27811 114.952 5.42833C115.177 5.57855 115.333 5.81212 115.387 6.07767C115.44 6.34322 115.385 6.61899 115.235 6.84431L110.226 14.357C110.136 14.4929 110.014 14.605 109.871 14.6841C109.728 14.7632 109.568 14.8068 109.405 14.8114C109.396 14.8116 109.386 14.8117 109.377 14.8117Z" fill="white"/>
<path d="M75.4883 96.6713H15.6566C11.5507 96.6667 7.61431 95.0336 4.71099 92.1302C1.80767 89.2269 0.174554 85.2905 0.169922 81.1846V49.3625C0.170506 48.8646 0.368573 48.3872 0.720671 48.0351C1.07277 47.683 1.55015 47.485 2.04809 47.4844H75.4883C75.9863 47.485 76.4637 47.683 76.8158 48.0351C77.1679 48.3872 77.3659 48.8646 77.3665 49.3625V94.7931C77.3659 95.2911 77.1679 95.7685 76.8158 96.1206C76.4637 96.4727 75.9863 96.6707 75.4883 96.6713Z" fill="url(#paint1_linear_1195_2583)"/>
<path d="M60.9722 62.8272H16.5664C16.1588 62.8272 15.7678 62.6652 15.4795 62.377C15.1912 62.0887 15.0293 61.6977 15.0293 61.2901C15.0293 60.8824 15.1912 60.4914 15.4795 60.2032C15.7678 59.9149 16.1588 59.7529 16.5664 59.7529H60.9722C61.3799 59.7529 61.7709 59.9149 62.0591 60.2032C62.3474 60.4914 62.5094 60.8824 62.5094 61.2901C62.5094 61.6977 62.3474 62.0887 62.0591 62.377C61.7709 62.6652 61.3799 62.8272 60.9722 62.8272Z" fill="#407CCA"/>
<path d="M60.9722 73.416H16.5664C16.1588 73.416 15.7678 73.2541 15.4795 72.9658C15.1912 72.6776 15.0293 72.2866 15.0293 71.8789C15.0293 71.4713 15.1912 71.0803 15.4795 70.792C15.7678 70.5037 16.1588 70.3418 16.5664 70.3418H60.9722C61.3799 70.3418 61.7709 70.5037 62.0592 70.792C62.3474 71.0803 62.5094 71.4713 62.5094 71.8789C62.5094 72.2866 62.3474 72.6776 62.0592 72.9658C61.7709 73.2541 61.3799 73.416 60.9722 73.416Z" fill="#407CCA"/>
<path d="M60.9722 84.3077H16.5664C16.1588 84.3077 15.7678 84.1457 15.4795 83.8574C15.1912 83.5692 15.0293 83.1782 15.0293 82.7705C15.0293 82.3629 15.1912 81.9719 15.4795 81.6836C15.7678 81.3953 16.1588 81.2334 16.5664 81.2334H60.9722C61.3799 81.2334 61.7709 81.3953 62.0592 81.6836C62.3474 81.9719 62.5094 82.3629 62.5094 82.7705C62.5094 83.1782 62.3474 83.5692 62.0592 83.8574C61.7709 84.1457 61.3799 84.3077 60.9722 84.3077Z" fill="#407CCA"/>
<path d="M75.5718 59.0371C80.6413 59.0371 84.751 54.9274 84.751 49.8579C84.751 44.7884 80.6413 40.6787 75.5718 40.6787C70.5022 40.6787 66.3926 44.7884 66.3926 49.8579C66.3926 54.9274 70.5022 59.0371 75.5718 59.0371Z" fill="#E94552"/>
<path d="M74.3201 54.6349C74.1616 54.6349 74.0053 54.598 73.8635 54.5271C73.7217 54.4562 73.5984 54.3533 73.5033 54.2264L70.9991 50.8874C70.9187 50.7801 70.8601 50.6581 70.8269 50.5282C70.7936 50.3983 70.7862 50.2631 70.8052 50.1304C70.8242 49.9977 70.8691 49.87 70.9374 49.7546C71.0057 49.6392 71.0961 49.5384 71.2034 49.458C71.3106 49.3775 71.4327 49.319 71.5626 49.2857C71.6925 49.2524 71.8277 49.2451 71.9604 49.264C72.0931 49.283 72.2208 49.3279 72.3362 49.3963C72.4516 49.4646 72.5524 49.555 72.6328 49.6622L74.2712 51.8465L78.4791 45.5348C78.6293 45.3094 78.8629 45.153 79.1284 45.0999C79.3939 45.0468 79.6697 45.1014 79.895 45.2516C80.1204 45.4018 80.2768 45.6354 80.3299 45.9009C80.383 46.1665 80.3285 46.4422 80.1782 46.6676L75.1698 54.1802C75.0792 54.3161 74.9573 54.4283 74.8144 54.5073C74.6715 54.5864 74.5118 54.6301 74.3485 54.6346C74.3391 54.6348 74.3296 54.6349 74.3201 54.6349Z" fill="white"/>
<path d="M150.037 139.018H66.3187C62.2128 139.013 58.2764 137.38 55.3731 134.476C52.4698 131.573 50.8367 127.637 50.832 123.531V76.7257C50.8328 76.0838 51.0881 75.4684 51.5419 75.0146C51.9958 74.5607 52.6111 74.3054 53.253 74.3047H150.037C150.679 74.3054 151.294 74.5607 151.748 75.0146C152.202 75.4685 152.457 76.0838 152.458 76.7257V136.596C152.457 137.238 152.202 137.854 151.748 138.308C151.294 138.761 150.679 139.017 150.037 139.018Z" fill="url(#paint2_linear_1195_2583)"/>
<path d="M130.906 94.4704H72.3858C72.1195 94.4707 71.8558 94.4186 71.6097 94.3169C71.3637 94.2153 71.1401 94.0661 70.9517 93.878C70.7633 93.6899 70.6138 93.4664 70.5119 93.2205C70.4099 92.9745 70.3574 92.7109 70.3574 92.4447C70.3574 92.1784 70.4099 91.9148 70.5119 91.6689C70.6138 91.4229 70.7633 91.1995 70.9517 91.0113C71.1401 90.8232 71.3637 90.674 71.6097 90.5724C71.8558 90.4708 72.1195 90.4186 72.3858 90.4189H130.906C131.172 90.4186 131.436 90.4708 131.682 90.5724C131.928 90.674 132.152 90.8232 132.34 91.0113C132.529 91.1995 132.678 91.4229 132.78 91.6689C132.882 91.9148 132.935 92.1784 132.935 92.4447C132.935 92.7109 132.882 92.9745 132.78 93.2205C132.678 93.4664 132.529 93.6899 132.34 93.878C132.152 94.0661 131.928 94.2153 131.682 94.3169C131.436 94.4186 131.172 94.4707 130.906 94.4704Z" fill="#407CCA"/>
<path d="M130.906 108.424H72.3858C72.1195 108.425 71.8558 108.373 71.6097 108.271C71.3637 108.169 71.1401 108.02 70.9517 107.832C70.7633 107.644 70.6138 107.421 70.5119 107.175C70.4099 106.929 70.3574 106.665 70.3574 106.399C70.3574 106.133 70.4099 105.869 70.5119 105.623C70.6138 105.377 70.7633 105.154 70.9517 104.965C71.1401 104.777 71.3637 104.628 71.6097 104.526C71.8558 104.425 72.1195 104.373 72.3858 104.373H130.906C131.443 104.373 131.959 104.586 132.339 104.966C132.719 105.346 132.932 105.862 132.932 106.399C132.932 106.936 132.719 107.451 132.339 107.831C131.959 108.211 131.443 108.424 130.906 108.424Z" fill="#407CCA"/>
<path d="M130.906 122.779H72.3851C71.8478 122.779 71.3326 122.566 70.9527 122.186C70.5728 121.806 70.3594 121.29 70.3594 120.753C70.3594 120.216 70.5728 119.701 70.9527 119.321C71.3326 118.941 71.8478 118.728 72.3851 118.728H130.906C131.172 118.727 131.435 118.779 131.682 118.881C131.928 118.983 132.151 119.132 132.34 119.32C132.528 119.508 132.677 119.731 132.779 119.977C132.881 120.223 132.934 120.487 132.934 120.753C132.934 121.019 132.881 121.283 132.779 121.529C132.677 121.775 132.528 121.998 132.34 122.187C132.151 122.375 131.928 122.524 131.682 122.626C131.435 122.727 131.172 122.779 130.906 122.779Z" fill="#407CCA"/>
<path d="M150.342 89.5881C156.76 89.5881 161.962 84.3858 161.962 77.9684C161.962 71.551 156.76 66.3486 150.342 66.3486C143.925 66.3486 138.723 71.551 138.723 77.9684C138.723 84.3858 143.925 89.5881 150.342 89.5881Z" fill="#E94552"/>
<path d="M148.755 84.0168C148.555 84.0168 148.357 83.9701 148.177 83.8803C147.998 83.7906 147.842 83.6602 147.722 83.4997L144.551 79.2729C144.45 79.1371 144.376 78.9826 144.333 78.8182C144.291 78.6537 144.282 78.4826 144.306 78.3146C144.33 78.1466 144.387 77.9849 144.473 77.8388C144.56 77.6928 144.674 77.5652 144.81 77.4634C144.946 77.3615 145.1 77.2875 145.265 77.2453C145.429 77.2032 145.6 77.1939 145.768 77.2179C145.936 77.2419 146.098 77.2988 146.244 77.3853C146.39 77.4717 146.518 77.5861 146.62 77.7219L148.693 80.487L154.02 72.4971C154.211 72.2123 154.506 72.0148 154.842 71.9478C155.178 71.8808 155.527 71.95 155.812 72.1399C156.097 72.3299 156.295 72.6253 156.362 72.9611C156.429 73.2969 156.361 73.6458 156.171 73.931L149.831 83.4412C149.716 83.6132 149.562 83.7552 149.381 83.8552C149.2 83.9553 148.998 84.0106 148.791 84.0164C148.779 84.0166 148.767 84.0168 148.755 84.0168Z" fill="white"/>
<path d="M180.445 231.579L175.717 233.16L167.369 215.677L174.347 213.344L180.445 231.579Z" fill="#F7C5B4"/>
<path d="M183.183 235.758L167.939 239.835L167.875 239.642C167.345 238.057 167.464 237.382 168.21 235.886C168.575 235.15 169.082 234.493 169.702 233.954C170.322 233.415 171.044 233.004 171.824 232.746L171.824 232.745L173.902 229.702L179.804 230.077L181.134 229.632L183.183 235.758Z" fill="#003A70"/>
<path d="M192.124 236.024H187.139L184.768 216.797L192.125 216.797L192.124 236.024Z" fill="#F7C5B4"/>
<path d="M193.396 239.835L177.322 239.835V239.631C177.322 237.96 177.973 237.41 179.155 236.229C179.735 235.646 180.424 235.184 181.183 234.869C181.942 234.555 182.757 234.394 183.578 234.396H183.579L186.515 232.169L191.993 234.397L193.396 234.397L193.396 239.835Z" fill="#003A70"/>
<path d="M154.187 81.9707C154.289 82.4929 154.505 82.9863 154.819 83.4161C155.133 83.8459 155.538 84.2016 156.004 84.4582C156.47 84.7148 156.987 84.866 157.518 84.9012C158.049 84.9364 158.581 84.8548 159.078 84.662L164.832 90.6702L169.337 88.0635L161.09 79.693C160.711 78.881 160.048 78.2363 159.225 77.881C158.402 77.5258 157.478 77.4846 156.627 77.7654C155.776 78.0461 155.057 78.6293 154.608 79.4043C154.158 80.1794 154.008 81.0925 154.187 81.9707Z" fill="#F7C5B4"/>
<path d="M191.43 112.18L194.025 109.496L179.022 95.6008L163.922 82.1182L159.74 88.0276L175.564 102.798L191.43 112.18Z" fill="#003A70"/>
<path d="M182.211 203.365C182.211 199.991 182.278 197.585 182.331 195.652C182.488 189.994 182.53 188.473 180.365 178.729L179.809 176.227L176.53 186.065C175.482 189.203 174.947 192.49 174.945 195.798L180.001 226.136H169.667L162.098 193.338L162.094 183.305C161.427 182.615 161.055 181.693 161.055 180.733C161.055 179.774 161.427 178.852 162.094 178.162L164.609 163.131L167.154 142.875H195.033C195.033 142.875 199.953 153.073 195.063 163.189L195.063 203.377L192.537 231.165H184.738L182.211 203.365Z" fill="#3B5CAD"/>
<path d="M193.329 145.327L167.253 143.154L167.117 143.143L169.198 105.685C169.321 103.329 170.147 101.065 171.57 99.1848C172.994 97.3045 174.949 95.8947 177.183 95.1379V92.5165C177.184 91.8677 177.442 91.2457 177.9 90.7869C178.359 90.3281 178.981 90.0701 179.63 90.0693H183.44C183.895 90.0678 184.341 90.1938 184.728 90.4329C185.115 90.672 185.427 91.0147 185.629 91.4221L187.492 95.1483L194.537 100.784C198.017 103.568 195.216 131.478 195.066 132.95L196.77 141.47C196.863 141.939 196.852 142.422 196.736 142.886C196.621 143.35 196.404 143.782 196.102 144.152C195.799 144.522 195.418 144.82 194.987 145.026C194.555 145.231 194.083 145.338 193.605 145.339C193.514 145.339 193.422 145.335 193.329 145.327Z" fill="#003A70"/>
<path d="M165.715 155.218C166.127 154.881 166.46 154.458 166.691 153.979C166.923 153.499 167.046 152.975 167.052 152.443C167.059 151.911 166.949 151.383 166.729 150.898C166.51 150.413 166.187 149.982 165.784 149.636L168.371 141.729L163.949 138.984L160.452 150.202C159.915 150.919 159.659 151.808 159.733 152.701C159.808 153.594 160.207 154.429 160.856 155.047C161.504 155.666 162.357 156.024 163.253 156.056C164.148 156.087 165.024 155.789 165.715 155.218Z" fill="#F7C5B4"/>
<path d="M174.809 101.464L171.219 100.268L166.034 123.402L161.258 146.408L168.441 147.465L174.011 123.003L174.809 101.464Z" fill="#003A70"/>
<path d="M178.728 87.6746C183.458 87.6746 187.293 83.8402 187.293 79.1103C187.293 74.3803 183.458 70.5459 178.728 70.5459C173.998 70.5459 170.164 74.3803 170.164 79.1103C170.164 83.8402 173.998 87.6746 178.728 87.6746Z" fill="#F7C5B4"/>
<path d="M167.204 74.916C167.283 74.1043 167.515 73.3151 167.889 72.5904C168.29 73.461 169.539 73.612 170.393 73.1787C171.248 72.7454 171.821 71.9224 172.432 71.1841C174.043 69.2357 176.26 67.6553 178.772 67.3675C181.284 67.0796 184.053 68.3477 185.003 70.6914C185.429 70.1 186.337 70.0342 186.98 70.3779C187.601 70.7695 188.086 71.3436 188.368 72.0215C189 73.3187 189.357 74.7326 189.417 76.1744C189.477 77.6163 189.238 79.0549 188.716 80.4002C187.658 83.077 185.046 86.6837 182.351 87.694C180.714 88.3073 179.062 87.5223 177.321 87.694C177.413 85.7948 177.781 83.4515 177.872 81.5523C177.922 80.5122 177.929 79.3485 177.219 78.5872C177.001 78.3803 176.74 78.2239 176.455 78.1289C176.17 78.0339 175.867 78.0027 175.569 78.0376C175.271 78.0724 174.983 78.1724 174.728 78.3305C174.472 78.4886 174.255 78.7009 174.09 78.9524C174.002 78.3619 173.803 77.7935 173.503 77.2774C173.349 77.0216 173.126 76.8138 172.86 76.6776C172.595 76.5415 172.296 76.4823 171.998 76.5068C171.272 76.6259 170.823 77.3718 170.156 77.6841C169.777 77.8359 169.361 77.8684 168.964 77.7772C168.566 77.686 168.206 77.4755 167.931 77.1738C167.664 76.8658 167.462 76.507 167.337 76.1191C167.212 75.7311 167.167 75.3219 167.204 74.916Z" fill="#3C3C3B"/>
<path opacity="0.1" d="M179.836 122.898L169.777 143.015H177.321L179.836 122.898Z" fill="#01315D"/>
</g>
<defs>
<linearGradient id="paint0_linear_1195_2583" x1="103.621" y1="60.6437" x2="47.7159" y2="91.6019" gradientUnits="userSpaceOnUse">
<stop stop-color="white"/>
<stop offset="1" stop-color="#B6D4ED"/>
</linearGradient>
<linearGradient id="paint1_linear_1195_2583" x1="67.9274" y1="100.102" x2="12.0225" y2="131.06" gradientUnits="userSpaceOnUse">
<stop stop-color="white"/>
<stop offset="1" stop-color="#B6D4ED"/>
</linearGradient>
<linearGradient id="paint2_linear_1195_2583" x1="162.62" y1="81.5542" x2="175.738" y2="139.863" gradientUnits="userSpaceOnUse">
<stop stop-color="white"/>
<stop offset="1" stop-color="#C1DEF2"/>
</linearGradient>
<clipPath id="clip0_1195_2583">
<rect width="247.251" height="240" fill="white" transform="translate(0 0.855469)"/>
</clipPath>
</defs>
</svg>
