<svg width="264" height="241" viewBox="0 0 264 241" fill="none" xmlns="http://www.w3.org/2000/svg">
<g clip-path="url(#clip0_1195_2540)">
<path d="M116.839 58.8047H0.0507812V133.601H116.839V58.8047Z" fill="#F2F2F2"/>
<path d="M113.498 68.1855H3.38867V129.176H113.498V68.1855Z" fill="url(#paint0_linear_1195_2540)"/>
<path d="M116.788 58.7383H0V63.6999H116.788V58.7383Z" fill="#407CCA"/>
<path d="M3.68717 62.1947C4.19505 62.1947 4.60676 61.7829 4.60676 61.2751C4.60676 60.7672 4.19505 60.3555 3.68717 60.3555C3.17929 60.3555 2.76758 60.7672 2.76758 61.2751C2.76758 61.7829 3.17929 62.1947 3.68717 62.1947Z" fill="white"/>
<path d="M7.17741 62.1947C7.68528 62.1947 8.097 61.7829 8.097 61.2751C8.097 60.7672 7.68528 60.3555 7.17741 60.3555C6.66953 60.3555 6.25781 60.7672 6.25781 61.2751C6.25781 61.7829 6.66953 62.1947 7.17741 62.1947Z" fill="white"/>
<path d="M10.6676 62.1947C11.1755 62.1947 11.5872 61.7829 11.5872 61.2751C11.5872 60.7672 11.1755 60.3555 10.6676 60.3555C10.1598 60.3555 9.74805 60.7672 9.74805 61.2751C9.74805 61.7829 10.1598 62.1947 10.6676 62.1947Z" fill="white"/>
<path d="M41.6874 74.5146H13.3945V122.848H41.6874V74.5146Z" fill="#C3D1E1"/>
<path d="M70.1477 74.5146H46.5703V87.8191H70.1477V74.5146Z" fill="#E94552"/>
<path d="M70.1477 91.5234H46.5703V105.838H70.1477V91.5234Z" fill="#C3D1E1"/>
<path d="M70.1477 109.544H46.5703V122.848H70.1477V109.544Z" fill="#C3D1E1"/>
<path d="M103.494 74.5146H75.2012V95.5782H103.494V74.5146Z" fill="#C3D1E1"/>
<path d="M103.494 101.784H75.2012V122.848H103.494V101.784Z" fill="#C3D1E1"/>
<path d="M263.072 58.8047H146.283V133.601H263.072V58.8047Z" fill="#F2F2F2"/>
<path d="M259.73 68.1855H149.621V129.176H259.73V68.1855Z" fill="url(#paint1_linear_1195_2540)"/>
<path d="M263.021 58.7383H146.232V63.6999H263.021V58.7383Z" fill="#407CCA"/>
<path d="M149.92 62.1947C150.428 62.1947 150.839 61.7829 150.839 61.2751C150.839 60.7672 150.428 60.3555 149.92 60.3555C149.412 60.3555 149 60.7672 149 61.2751C149 61.7829 149.412 62.1947 149.92 62.1947Z" fill="white"/>
<path d="M153.41 62.1947C153.918 62.1947 154.329 61.7829 154.329 61.2751C154.329 60.7672 153.918 60.3555 153.41 60.3555C152.902 60.3555 152.49 60.7672 152.49 61.2751C152.49 61.7829 152.902 62.1947 153.41 62.1947Z" fill="white"/>
<path d="M156.9 62.1947C157.408 62.1947 157.82 61.7829 157.82 61.2751C157.82 60.7672 157.408 60.3555 156.9 60.3555C156.392 60.3555 155.98 60.7672 155.98 61.2751C155.98 61.7829 156.392 62.1947 156.9 62.1947Z" fill="white"/>
<path d="M249.701 74.5146H221.408V122.848H249.701V74.5146Z" fill="#C3D1E1"/>
<path d="M216.72 74.5137H159.652V87.8181H216.72V74.5137Z" fill="#E94552"/>
<path d="M216.72 91.5225H159.652V105.837H216.72V91.5225Z" fill="#C3D1E1"/>
<path d="M216.72 109.543H159.652V122.847H216.72V109.543Z" fill="#C3D1E1"/>
<path d="M130.874 0.855469H130.221V36.5217H130.874V0.855469Z" fill="#CCCCCC"/>
<path d="M196.157 58.7177H195.504V36.8481H65.5923V58.7177H64.9395V36.1953H196.157V58.7177Z" fill="#CCCCCC"/>
<path d="M135.351 100.563L134.859 98.1056C134.859 98.1056 127.629 95.648 126.82 100.563H135.351Z" fill="#E6E6E6"/>
<path d="M121.475 235.887L116.735 235.886L114.48 217.604L121.476 217.605L121.475 235.887Z" fill="#FFB8B8"/>
<path d="M122.683 240.481L107.4 240.481V240.287C107.401 238.71 108.027 237.197 109.143 236.081C110.258 234.966 111.771 234.339 113.349 234.339H113.349L122.684 234.339L122.683 240.481Z" fill="#003A70"/>
<path d="M137.77 235.887L142.51 235.886L144.765 217.604L137.77 217.605L137.77 235.887Z" fill="#FFB8B8"/>
<path d="M136.561 234.339L145.895 234.339H145.895C147.473 234.339 148.986 234.966 150.101 236.081C151.217 237.197 151.844 238.71 151.844 240.287V240.481L136.561 240.481L136.561 234.339Z" fill="#003A70"/>
<path d="M142.232 110.886L147.639 110.395L151.08 126.615L150.588 141.361L145.182 161.023L137.809 156.599L141.741 136.446L142.232 110.886Z" fill="#003A70"/>
<path d="M145.655 159.302L144.445 169.624L145.919 193.709V229.601L136.58 229.1L134.614 191.743L129.207 174.539L125.275 194.201L122.817 231.066L113.232 230.297V194.071L112.986 167.658L116.427 157.336L145.655 159.302Z" fill="#3B5CAD"/>
<path d="M125.521 101.055C125.521 101.055 128.961 96.1401 135.351 99.5808L138.301 103.513L147.64 110.395L145.674 133.497L148.131 162.497L113.232 162.006L119.131 133.005V102.038L125.521 101.055Z" fill="#003A70"/>
<path opacity="0.25" d="M144.444 118.553L147.263 152.251L143.707 133.988L144.444 118.553Z" fill="#041525"/>
<path d="M118.808 168.763C119.149 168.357 119.396 167.881 119.532 167.368C119.668 166.856 119.691 166.321 119.597 165.799C119.504 165.277 119.298 164.782 118.993 164.349C118.687 163.915 118.291 163.554 117.831 163.291L118.882 155.073L114.044 153.217L112.723 164.842C112.332 165.644 112.248 166.562 112.488 167.421C112.727 168.281 113.274 169.022 114.024 169.506C114.774 169.989 115.676 170.18 116.557 170.043C117.439 169.906 118.24 169.451 118.808 168.763Z" fill="#F7C5B4"/>
<path d="M112.741 160.531H120.605V157.09H112.741V160.531Z" fill="#E6E6E6"/>
<path d="M124.29 106.216L119.129 102.038C119.129 102.038 115.443 101.792 114.951 107.199C114.46 112.606 113.862 135.708 113.862 135.708L112.002 158.81L122.324 159.301L124.29 134.297V106.216Z" fill="#003A70"/>
<path d="M139.652 90.2416C142.267 85.4584 140.509 79.4611 135.725 76.8464C130.942 74.2316 124.945 75.9895 122.33 80.7728C119.715 85.556 121.473 91.5533 126.257 94.168C131.04 96.7828 137.037 95.0249 139.652 90.2416Z" fill="#F7C5B4"/>
<path d="M130.252 94.2145C132.667 94.7943 135.211 94.4559 137.39 93.265C139.57 92.0741 141.229 90.1158 142.045 87.7704C142.862 85.425 142.777 82.8598 141.808 80.5731C140.84 78.2865 139.056 76.4414 136.803 75.3964C135.068 74.6221 133.17 74.2816 131.275 74.4043C128.323 74.5595 125.453 75.6506 122.498 75.5702L122.07 76.2587L120.456 75.8672L120.11 77.1487L119.685 77.134C118.923 78.5493 120.149 80.5756 121.756 80.5585C122.392 80.5517 122.994 80.2866 123.616 80.1533C124.238 80.0199 124.971 80.0532 125.4 80.5231C125.958 81.1338 125.715 82.0868 125.599 82.9055C125.482 83.7243 125.773 84.8271 126.599 84.8538C127.021 84.8675 127.423 84.5647 127.838 84.6443C128.321 84.7371 128.565 85.3205 128.495 85.8075C128.375 86.2853 128.18 86.7409 127.917 87.1572C126.719 89.5489 127.73 92.8024 130.073 94.0929" fill="#3C3C3B"/>
</g>
<defs>
<linearGradient id="paint0_linear_1195_2540" x1="100.035" y1="133.43" x2="25.9169" y2="180.643" gradientUnits="userSpaceOnUse">
<stop stop-color="white"/>
<stop offset="1" stop-color="#B6D4ED"/>
</linearGradient>
<linearGradient id="paint1_linear_1195_2540" x1="246.267" y1="133.43" x2="172.149" y2="180.643" gradientUnits="userSpaceOnUse">
<stop stop-color="white"/>
<stop offset="1" stop-color="#B6D4ED"/>
</linearGradient>
<clipPath id="clip0_1195_2540">
<rect width="263.071" height="240" fill="white" transform="translate(0 0.855469)"/>
</clipPath>
</defs>
</svg>
