<svg width="80" height="56" viewBox="0 0 80 56" fill="none" xmlns="http://www.w3.org/2000/svg">
<path d="M61.25 56C71.5909 56 80 47.5886 80 37.25C80 27.8109 72.9916 19.9786 63.9005 18.6877C64.6283 13.4005 66.647 8.36968 69.8011 4.00719C70.4145 3.15578 70.3916 2.00218 69.737 1.17828C69.0948 0.367499 67.9789 0.0601567 66.9995 0.473281C52.1177 6.685 42.5 21.123 42.5 37.25C42.5 47.5886 50.9091 56 61.25 56ZM18.75 56C29.0909 56 37.5 47.5886 37.5 37.25C37.5 27.8109 30.4916 19.9786 21.4005 18.6876C22.1283 13.4005 24.147 8.36968 27.3011 4.00718C27.9145 3.15578 27.8916 2.00218 27.237 1.17828C26.5948 0.367496 25.4789 0.060153 24.4995 0.473277C9.61766 6.685 3.04905e-06 21.123 1.63918e-06 37.25C7.35349e-07 47.5886 8.40907 56 18.75 56Z" fill="#3657CD"/>
</svg>
