<svg width="16" height="16" viewBox="0 0 16 16" fill="none" xmlns="http://www.w3.org/2000/svg">
<path d="M15.817 5.99396C15.7467 5.77347 15.6117 5.57927 15.4294 5.43669C15.2472 5.29412 15.0262 5.20979 14.7952 5.1947L10.6193 4.90247L9.07026 1.00177C8.98643 0.786121 8.83941 0.600826 8.64847 0.470164C8.45753 0.339503 8.23157 0.269571 8.0002 0.269531H7.9991C7.76809 0.269943 7.54257 0.340054 7.35205 0.470696C7.16153 0.601337 7.01486 0.78643 6.93122 1.00177L5.35908 4.92499L1.20625 5.1947C0.975339 5.20979 0.754334 5.29412 0.572072 5.43669C0.389809 5.57927 0.254752 5.77347 0.184522 5.99396C0.110433 6.21758 0.105393 6.45832 0.170058 6.68484C0.234722 6.91137 0.366096 7.11317 0.54707 7.26398L3.74189 9.96442L2.79158 13.7025C2.72607 13.9543 2.73812 14.22 2.82614 14.4649C2.91415 14.7097 3.07404 14.9222 3.28486 15.0747C3.48841 15.2228 3.73182 15.3062 3.98341 15.314C4.23501 15.3219 4.48314 15.2538 4.69551 15.1187L7.9914 13.0307C7.9958 13.0274 8.00019 13.0252 8.01008 13.0307L11.5565 15.2774C11.749 15.4004 11.9742 15.4624 12.2025 15.4554C12.4309 15.4483 12.6518 15.3725 12.8364 15.2379C13.0274 15.0998 13.1723 14.9072 13.2521 14.6854C13.3319 14.4636 13.3428 14.2229 13.2835 13.9948L12.2739 9.91113L15.4544 7.26398C15.6354 7.11317 15.7668 6.91137 15.8314 6.68484C15.8961 6.45832 15.8911 6.21758 15.817 5.99396Z" fill="#F9C747"/>
</svg>
