<svg width="36" height="36" viewBox="0 0 36 36" fill="none" xmlns="http://www.w3.org/2000/svg">
<path d="M18 0.52832C17.0729 0.52832 16.1464 0.777132 15.3267 1.27783C10.8832 4.19881 6.4357 7.12901 1.9917 10.0547L16.5913 23.3481C17.288 24.0087 18.6406 23.9926 19.4063 23.3481C24.2745 18.92 29.1416 14.4861 34.0084 10.0547C29.5633 7.13085 25.1179 4.1971 20.6735 1.27783C19.8536 0.777135 18.9271 0.52832 18 0.52832ZM0.5 12.0786V31.7222C0.5 33.778 2.19411 35.4722 4.25 35.4722H31.75C33.8059 35.4722 35.5 33.778 35.5 31.7222V12.0786C30.6878 16.4596 25.8762 20.8439 21.064 25.2234C19.3132 26.7667 16.6869 26.7667 14.9361 25.2234C10.1243 20.8434 5.3117 16.4602 0.5 12.0786Z" fill="#F9C747"/>
</svg>
