<svg width="38" height="38" viewBox="0 0 38 38" fill="none" xmlns="http://www.w3.org/2000/svg">
<path d="M19.0014 0.25C8.65386 0.25 0.251405 8.65264 0.251405 19.0012C0.257655 22.3128 1.15746 25.5538 2.82465 28.4104L0.283142 36.0349C0.120242 36.5236 0.585524 36.9887 1.07416 36.8259L8.36664 34.3955C11.4922 36.5593 15.1927 37.7443 19.0002 37.75C29.3483 37.7498 37.7502 29.3479 37.7502 19C37.7502 8.65189 29.3489 0.250237 19.0014 0.25ZM12.7355 17.125C13.7636 17.125 14.6105 17.972 14.6105 19C14.6105 20.0283 13.7636 20.875 12.7355 20.875C11.7075 20.875 10.8618 20.0283 10.8618 19C10.8618 17.972 11.7074 17.125 12.7355 17.125ZM19.0014 17.125C20.0295 17.125 20.8764 17.972 20.8764 19C20.8764 20.0283 20.0295 20.875 19.0014 20.875C17.9733 20.875 17.1264 20.0283 17.1264 19C17.1264 17.972 17.9733 17.125 19.0014 17.125ZM25.2355 17.125C26.2636 17.125 27.1106 17.972 27.1105 19C27.1105 20.0283 26.2636 20.875 25.2355 20.875C24.2075 20.875 23.3606 20.0283 23.3605 19C23.3605 17.972 24.2074 17.125 25.2355 17.125Z" fill="#F9C747"/>
</svg>
