<svg width="22" height="40" viewBox="0 0 22 40" fill="none" xmlns="http://www.w3.org/2000/svg">
<path d="M17.626 0H4.31687C1.96813 0.00266335 0.0648304 1.90596 0.0625 4.25471V35.7455C0.0648304 38.0943 1.96813 39.9976 4.31687 39.9999H17.626C19.9747 39.9976 21.878 38.0943 21.8807 35.7455V4.25471C21.878 1.90596 19.9747 0.00266335 17.626 0V0ZM10.9716 36.3638C9.96717 36.3638 9.15318 35.5498 9.15318 34.5453C9.15318 33.5413 9.96717 32.7273 10.9716 32.7273C11.9757 32.7273 12.7897 33.5413 12.7897 34.5453C12.7897 35.5498 11.9757 36.3638 10.9716 36.3638ZM13.6989 5.45455H8.24431C7.74227 5.45455 7.33511 5.04739 7.33511 4.54534C7.33511 4.0433 7.74227 3.63648 8.24431 3.63648H13.6989C14.2009 3.63648 14.6077 4.0433 14.6077 4.54534C14.6077 5.04739 14.2009 5.45455 13.6989 5.45455Z" fill="#F9C747"/>
</svg>
