<svg width="144" height="144" viewBox="0 0 144 144" fill="none" xmlns="http://www.w3.org/2000/svg">
<g filter="url(#filter0_d_1014_307)">
<rect x="28" y="12" width="88" height="88" rx="16" fill="#011D3A"/>
</g>
<g clip-path="url(#clip0_1014_307)">
<path d="M76.5118 44.8215C75.861 44.1706 74.8057 44.1706 74.1548 44.8215L73.6667 45.3096V37.6667C73.6667 36.7462 72.9205 36 72 36C71.0795 36 70.3333 36.7462 70.3333 37.6667V45.3096L69.8452 44.8215C69.1943 44.1706 68.139 44.1706 67.4881 44.8215C66.8373 45.4724 66.8373 46.5276 67.4881 47.1785L70.8215 50.5118C71.4723 51.1627 72.5277 51.1627 73.1785 50.5118L76.5118 47.1785C77.1627 46.5276 77.1627 45.4724 76.5118 44.8215Z" fill="#F9C747"/>
<path fill-rule="evenodd" clip-rule="evenodd" d="M59.7136 45.6384C59.883 44.8759 60.5594 44.3333 61.3406 44.3333H63.6667C64.5871 44.3333 65.3333 43.5871 65.3333 42.6667C65.3333 41.7462 64.5871 41 63.6667 41H61.3406C58.9971 41 56.968 42.6277 56.4596 44.9153L52.0397 64.8052L52.0699 64.8118C52.0237 65.2015 52 65.598 52 66C52 71.5228 56.4771 76 62 76H82C87.5228 76 92 71.5228 92 66C92 65.598 91.9763 65.2015 91.9302 64.8118L91.9603 64.8052L87.5403 44.9153C87.032 42.6277 85.003 41 82.6595 41H80.3333C79.4128 41 78.6667 41.7462 78.6667 42.6667C78.6667 43.5871 79.4128 44.3333 80.3333 44.3333H82.6595C83.4407 44.3333 84.117 44.8759 84.2863 45.6384L86.8698 57.2638C85.4287 56.4588 83.768 56 82 56H62C60.232 56 58.5712 56.4588 57.1302 57.2638L59.7136 45.6384ZM62 66C62 66.9205 61.2538 67.6667 60.3333 67.6667C59.4129 67.6667 58.6667 66.9205 58.6667 66C58.6667 65.0795 59.4129 64.3333 60.3333 64.3333C61.2538 64.3333 62 65.0795 62 66ZM67 64.3333C66.0795 64.3333 65.3333 65.0795 65.3333 66C65.3333 66.9205 66.0795 67.6667 67 67.6667H83.6667C84.5872 67.6667 85.3333 66.9205 85.3333 66C85.3333 65.0795 84.5872 64.3333 83.6667 64.3333H67Z" fill="#F9C747"/>
</g>
<defs>
<filter id="filter0_d_1014_307" x="0" y="0" width="144" height="144" filterUnits="userSpaceOnUse" color-interpolation-filters="sRGB">
<feFlood flood-opacity="0" result="BackgroundImageFix"/>
<feColorMatrix in="SourceAlpha" type="matrix" values="0 0 0 0 0 0 0 0 0 0 0 0 0 0 0 0 0 0 127 0" result="hardAlpha"/>
<feMorphology radius="4" operator="dilate" in="SourceAlpha" result="effect1_dropShadow_1014_307"/>
<feOffset dy="16"/>
<feGaussianBlur stdDeviation="12"/>
<feComposite in2="hardAlpha" operator="out"/>
<feColorMatrix type="matrix" values="0 0 0 0 0.00392157 0 0 0 0 0.0823529 0 0 0 0 0.160784 0 0 0 0.2 0"/>
<feBlend mode="normal" in2="BackgroundImageFix" result="effect1_dropShadow_1014_307"/>
<feBlend mode="normal" in="SourceGraphic" in2="effect1_dropShadow_1014_307" result="shape"/>
</filter>
<clipPath id="clip0_1014_307">
<rect width="40" height="40" fill="white" transform="translate(52 36)"/>
</clipPath>
</defs>
</svg>
