<svg width="144" height="144" viewBox="0 0 144 144" fill="none" xmlns="http://www.w3.org/2000/svg">
<g filter="url(#filter0_d_1014_282)">
<rect x="28" y="12" width="88" height="88" rx="16" fill="#011D3A"/>
</g>
<g clip-path="url(#clip0_1014_282)">
<path d="M56.6603 64.5544L54.7527 66.9256L61.1486 73.3218L63.5222 71.3809C64.6917 72.0275 65.9243 72.5356 67.2026 72.8985L67.5298 76H73.1719V71.2344H78.1533C78.6388 72.5955 79.9272 73.5781 81.4531 73.5781C83.3916 73.5781 84.9688 72.001 84.9688 70.0625C84.9688 68.124 83.3916 66.5469 81.4531 66.5469C79.9272 66.5469 78.6388 67.5295 78.1533 68.8906H73.1719V66.5469H72C66.1843 66.5469 61.4531 61.8157 61.4531 56C61.4531 50.1843 66.1843 45.4531 72 45.4531H73.1719V43.1094H78.1533C78.6388 44.4705 79.9272 45.4531 81.4531 45.4531C83.3916 45.4531 84.9688 43.876 84.9688 41.9375C84.9688 39.999 83.3916 38.4219 81.4531 38.4219C79.9272 38.4219 78.6388 39.4045 78.1533 40.7656H73.1719V36H67.4236L67.119 39.1268C65.8409 39.4952 64.6105 40.0091 63.4456 40.6603L61.0744 38.7527L54.6761 45.1486L56.6191 47.5222C55.9728 48.6917 55.4647 49.9243 55.1018 51.2026L52 51.5298V60.5764L55.1268 60.881C55.4952 62.1594 56.0091 63.3895 56.6603 64.5544Z" fill="#F9C747"/>
<path d="M88.4844 52.4844C86.9585 52.4844 85.67 53.467 85.1845 54.8281H69.6562V57.1719H85.1845C85.67 58.533 86.9585 59.5156 88.4844 59.5156C90.4229 59.5156 92 57.9385 92 56C92 54.0615 90.4229 52.4844 88.4844 52.4844Z" fill="#F9C747"/>
<path d="M88.7541 43.1195C86.6942 42.9651 84.9687 44.5972 84.9687 46.6251C84.9687 46.7709 84.9944 46.9098 85.0118 47.0511L81.176 48.9688H71.0301C67.0354 48.9688 63.7969 52.2073 63.7969 56.2021C63.7969 59.9737 66.8544 63.0313 70.6261 63.0313H81.176L85.0118 64.949C84.9944 65.0903 84.9687 65.2292 84.9687 65.3751C84.9687 67.4029 86.6942 69.035 88.7541 68.8806C90.4732 68.7515 91.8608 67.3639 91.9899 65.6448C92.1443 63.5849 90.5122 61.8594 88.4844 61.8594C87.5389 61.8594 86.6832 62.2388 86.0509 62.8479L81.7302 60.6876H70.8281C68.2393 60.6876 66.1406 58.5889 66.1406 56.0001C66.1406 53.4112 68.2393 51.3126 70.8281 51.3126H81.7302L86.0509 49.1522C86.6832 49.7613 87.5389 50.1407 88.4844 50.1407C90.5122 50.1407 92.1443 48.4152 91.9899 46.3553C91.8608 44.6362 90.4732 43.2486 88.7541 43.1195Z" fill="#F9C747"/>
</g>
<defs>
<filter id="filter0_d_1014_282" x="0" y="0" width="144" height="144" filterUnits="userSpaceOnUse" color-interpolation-filters="sRGB">
<feFlood flood-opacity="0" result="BackgroundImageFix"/>
<feColorMatrix in="SourceAlpha" type="matrix" values="0 0 0 0 0 0 0 0 0 0 0 0 0 0 0 0 0 0 127 0" result="hardAlpha"/>
<feMorphology radius="4" operator="dilate" in="SourceAlpha" result="effect1_dropShadow_1014_282"/>
<feOffset dy="16"/>
<feGaussianBlur stdDeviation="12"/>
<feComposite in2="hardAlpha" operator="out"/>
<feColorMatrix type="matrix" values="0 0 0 0 0.00392157 0 0 0 0 0.0823529 0 0 0 0 0.160784 0 0 0 0.2 0"/>
<feBlend mode="normal" in2="BackgroundImageFix" result="effect1_dropShadow_1014_282"/>
<feBlend mode="normal" in="SourceGraphic" in2="effect1_dropShadow_1014_282" result="shape"/>
</filter>
<clipPath id="clip0_1014_282">
<rect width="40" height="40" fill="white" transform="translate(52 36)"/>
</clipPath>
</defs>
</svg>
