<svg width="144" height="144" viewBox="0 0 144 144" fill="none" xmlns="http://www.w3.org/2000/svg">
<g filter="url(#filter0_d_1014_347)">
<rect x="28" y="12" width="88" height="88" rx="16" fill="#011D3A"/>
</g>
<g clip-path="url(#clip0_1014_347)">
<path d="M88.6568 37.0547V57.5318H83.8892V41.7441H58.8008V37.0547H88.6568Z" fill="#F9C747"/>
<path d="M52 44.0889V51.123H81.5434V44.0889H52ZM56.6894 48.7783H54.3447V46.4336H56.6894V48.7783ZM61.3788 48.7783H59.0341V46.4336H61.3788V48.7783Z" fill="#F9C747"/>
<path d="M81.5434 53.624H52V73.2414H78.3069L75.3682 58.3205L81.5434 59.503V53.624ZM59.1123 67.1452H56.455L59.7375 62.5339L56.455 57.9227H59.1123L62.3949 62.5339L59.1123 67.1452ZM69.5853 67.1452H64.8959V64.8005H69.5853V67.1452Z" fill="#F9C747"/>
<path d="M92.0001 72.4356L89.4913 74.9445L84.3743 69.8268L80.9761 74.6576L78.3398 61.2764L91.8063 63.8548L86.8824 67.3187L92.0001 72.4356Z" fill="#F9C747"/>
</g>
<defs>
<filter id="filter0_d_1014_347" x="0" y="0" width="144" height="144" filterUnits="userSpaceOnUse" color-interpolation-filters="sRGB">
<feFlood flood-opacity="0" result="BackgroundImageFix"/>
<feColorMatrix in="SourceAlpha" type="matrix" values="0 0 0 0 0 0 0 0 0 0 0 0 0 0 0 0 0 0 127 0" result="hardAlpha"/>
<feMorphology radius="4" operator="dilate" in="SourceAlpha" result="effect1_dropShadow_1014_347"/>
<feOffset dy="16"/>
<feGaussianBlur stdDeviation="12"/>
<feComposite in2="hardAlpha" operator="out"/>
<feColorMatrix type="matrix" values="0 0 0 0 0.00392157 0 0 0 0 0.0823529 0 0 0 0 0.160784 0 0 0 0.2 0"/>
<feBlend mode="normal" in2="BackgroundImageFix" result="effect1_dropShadow_1014_347"/>
<feBlend mode="normal" in="SourceGraphic" in2="effect1_dropShadow_1014_347" result="shape"/>
</filter>
<clipPath id="clip0_1014_347">
<rect width="40" height="40" fill="white" transform="translate(52 36)"/>
</clipPath>
</defs>
</svg>
