<svg width="144" height="144" viewBox="0 0 144 144" fill="none" xmlns="http://www.w3.org/2000/svg">
<g filter="url(#filter0_d_1014_193)">
<rect x="28" y="12" width="88" height="88" rx="16" fill="#011D3A"/>
</g>
<g clip-path="url(#clip0_1014_193)">
<path d="M64.2085 55.576C65.3929 55.576 66.5577 55.0245 67.4888 54.0239C67.8413 53.6448 68.1349 53.2292 68.3622 52.7885C68.4834 52.552 68.5835 52.3137 68.6577 52.0793C68.7303 51.851 68.7788 51.627 68.8023 51.4137V51.4128C68.8099 51.3411 68.8194 51.0707 68.8194 50.9214C68.8194 50.5903 68.7849 50.4948 68.6662 50.2159C68.589 50.0316 68.4849 49.8903 68.3397 49.77C68.228 49.6769 68.0888 49.5948 67.9265 49.5262C67.2068 49.2207 65.9999 49.1636 64.9147 49.1481C64.6943 49.1441 64.4639 49.1426 64.2085 49.1426C62.8209 49.1426 61.8724 49.6324 61.3905 50.5964C61.2913 50.7942 61.2117 51.0136 61.1537 51.2474C61.0991 51.4668 61.0615 51.7021 61.0429 51.9465C61.0319 52.0802 61.0273 52.2184 61.0273 52.3597C61.0273 54.1331 62.4537 55.576 64.2085 55.576Z" fill="#F9C747"/>
<path d="M75.1803 52.0784V52.0793C75.2545 52.3137 75.3539 52.552 75.4757 52.7879C75.7031 53.2292 75.9966 53.6448 76.3491 54.0239C77.2796 55.0245 78.4451 55.576 79.6295 55.576C81.3833 55.576 82.8109 54.1331 82.8109 52.3597C82.8109 52.2184 82.8054 52.0793 82.795 51.9465C82.7764 51.7021 82.7389 51.4668 82.6843 51.2474C82.6263 51.0136 82.5466 50.7948 82.4474 50.5964C81.9647 49.6324 81.0171 49.1426 79.6295 49.1426C79.374 49.1426 79.1436 49.1441 78.9233 49.1481C77.8375 49.1636 76.6311 49.2207 75.9115 49.5262C75.7491 49.5948 75.61 49.6769 75.4983 49.77C75.353 49.8903 75.249 50.0316 75.1708 50.2159C75.0561 50.4878 75.0234 50.5809 75.0234 50.9214C75.0234 51.1088 75.0295 51.3481 75.0359 51.4143C75.0591 51.627 75.1077 51.851 75.1803 52.0784Z" fill="#F9C747"/>
<path d="M90.6078 66.6247C91.375 66.6247 92 65.9997 92 65.2325V41.1321C92 39.1631 90.3984 37.5625 88.4297 37.5625H55.5699C53.601 37.5625 52.0003 39.1631 52.0003 41.1321V65.2325C52.0003 65.9997 52.6244 66.6247 53.3925 66.6247H54.3438V68.8006H52.5539C52.2481 68.8006 52 69.0484 52 69.3542V70.8352C52 72.8738 53.6525 74.5266 55.6911 74.5266H88.3086C90.3472 74.5266 91.9997 72.8738 91.9997 70.8352V69.3542C91.9997 69.0484 91.7519 68.8006 91.4458 68.8006H89.6562V66.6247H90.6078ZM57.9909 49.7491H59.1994C59.2299 49.681 59.261 49.6139 59.2949 49.5477C60.1815 47.7749 61.9261 46.7983 64.2089 46.7983C64.4753 46.7983 64.7182 46.8008 64.9495 46.8038C66.3274 46.8243 67.7532 46.9061 68.8423 47.3678C69.215 47.5265 69.5485 47.7273 69.8354 47.9647C70.269 48.3233 70.6017 48.7734 70.8251 49.3014C70.8907 49.457 70.9478 49.6029 70.9948 49.7491H72.8438C72.8908 49.6023 72.9479 49.4561 73.0135 49.3014C73.2369 48.7734 73.5698 48.3233 74.0026 47.9647C74.29 47.7273 74.6236 47.5265 74.9962 47.3687C76.0854 46.9061 77.5112 46.8243 78.889 46.8038C79.1204 46.8008 79.3627 46.7983 79.6297 46.7983C81.9118 46.7983 83.6571 47.7749 84.5439 49.5477C84.5766 49.6139 84.6086 49.681 84.6392 49.7491H85.8477C86.4952 49.7491 87.0195 50.274 87.0195 50.921C87.0195 51.5685 86.4952 52.0928 85.8477 52.0928H85.15C85.1531 52.181 85.1546 52.2701 85.1546 52.3593C85.1546 55.4247 82.6766 57.9193 79.6297 57.9193C77.7867 57.9193 76.0118 57.1023 74.6331 55.6194C74.1344 55.0842 73.7172 54.4921 73.3922 53.8607C73.2103 53.5085 73.0602 53.1475 72.9464 52.7874C72.8728 52.5555 72.8142 52.3232 72.7697 52.0928H71.068C71.0244 52.3232 70.9658 52.5555 70.8916 52.7874C70.7775 53.1475 70.6276 53.5085 70.4464 53.8607C70.1213 54.4921 69.7032 55.0842 69.2055 55.6201C67.8261 57.1023 66.0518 57.9193 64.2089 57.9193C61.162 57.9193 58.684 55.4247 58.684 52.3593C58.684 52.2701 58.6855 52.181 58.6876 52.0928H57.9909C57.3433 52.0928 56.819 51.5685 56.819 50.921C56.819 50.274 57.3433 49.7491 57.9909 49.7491ZM87.3122 68.8006H78.8677C78.5616 68.8006 78.3138 69.0484 78.3138 69.3542V70.202C78.3138 70.5078 78.0657 70.7559 77.7599 70.7559H65.9978C65.692 70.7559 65.4439 70.5078 65.4439 70.202V69.3542C65.4439 69.0484 65.1961 68.8006 64.89 68.8006H56.6875V66.6247H87.3122V68.8006Z" fill="#F9C747"/>
</g>
<defs>
<filter id="filter0_d_1014_193" x="0" y="0" width="144" height="144" filterUnits="userSpaceOnUse" color-interpolation-filters="sRGB">
<feFlood flood-opacity="0" result="BackgroundImageFix"/>
<feColorMatrix in="SourceAlpha" type="matrix" values="0 0 0 0 0 0 0 0 0 0 0 0 0 0 0 0 0 0 127 0" result="hardAlpha"/>
<feMorphology radius="4" operator="dilate" in="SourceAlpha" result="effect1_dropShadow_1014_193"/>
<feOffset dy="16"/>
<feGaussianBlur stdDeviation="12"/>
<feComposite in2="hardAlpha" operator="out"/>
<feColorMatrix type="matrix" values="0 0 0 0 0.00392157 0 0 0 0 0.0823529 0 0 0 0 0.160784 0 0 0 0.2 0"/>
<feBlend mode="normal" in2="BackgroundImageFix" result="effect1_dropShadow_1014_193"/>
<feBlend mode="normal" in="SourceGraphic" in2="effect1_dropShadow_1014_193" result="shape"/>
</filter>
<clipPath id="clip0_1014_193">
<rect width="40" height="40" fill="white" transform="translate(52 36)"/>
</clipPath>
</defs>
</svg>
