<svg width="144" height="144" viewBox="0 0 144 144" fill="none" xmlns="http://www.w3.org/2000/svg">
<g filter="url(#filter0_d_1014_270)">
<rect x="28" y="12" width="88" height="88" rx="16" fill="#011D3A"/>
</g>
<g clip-path="url(#clip0_1014_270)">
<path d="M57.404 57.3653C57.3623 56.9156 57.3398 56.4604 57.3398 56V53.5H54.9961V56C54.9961 56.4582 55.015 56.9134 55.0506 57.3653H57.404Z" fill="#F9C747"/>
<path d="M86.5978 54.6348C86.6395 55.0845 86.662 55.5398 86.662 56.0002C86.662 62.9229 81.839 68.7396 75.377 70.2686V72.6719C78.632 72.0196 81.6242 70.4255 84.025 68.0247C87.2369 64.8128 89.0057 60.5425 89.0057 56.0002C89.0057 55.542 88.9868 55.0866 88.9512 54.6348H86.5978V54.6348Z" fill="#F9C747"/>
<path d="M59.2582 59.709H52V75.9999H73.0327V62.9672H60.6545L59.2582 59.709Z" fill="#F9C747"/>
<path d="M78.225 36H70.9668V52.2909H91.9995V39.2582H79.6213L78.225 36Z" fill="#F9C747"/>
<path d="M62.8334 47.703H59.9102C61.0381 46.062 62.4925 44.66 64.1912 43.5888C65.5622 42.7243 67.0594 42.0995 68.6235 41.7307V39.332C66.6138 39.7375 64.6892 40.5039 62.9411 41.6063C61.067 42.788 59.4509 44.3185 58.1719 46.1037V43.0416H55.8281V50.0469H62.8334V47.703Z" fill="#F9C747"/>
</g>
<defs>
<filter id="filter0_d_1014_270" x="0" y="0" width="144" height="144" filterUnits="userSpaceOnUse" color-interpolation-filters="sRGB">
<feFlood flood-opacity="0" result="BackgroundImageFix"/>
<feColorMatrix in="SourceAlpha" type="matrix" values="0 0 0 0 0 0 0 0 0 0 0 0 0 0 0 0 0 0 127 0" result="hardAlpha"/>
<feMorphology radius="4" operator="dilate" in="SourceAlpha" result="effect1_dropShadow_1014_270"/>
<feOffset dy="16"/>
<feGaussianBlur stdDeviation="12"/>
<feComposite in2="hardAlpha" operator="out"/>
<feColorMatrix type="matrix" values="0 0 0 0 0.00392157 0 0 0 0 0.0823529 0 0 0 0 0.160784 0 0 0 0.2 0"/>
<feBlend mode="normal" in2="BackgroundImageFix" result="effect1_dropShadow_1014_270"/>
<feBlend mode="normal" in="SourceGraphic" in2="effect1_dropShadow_1014_270" result="shape"/>
</filter>
<clipPath id="clip0_1014_270">
<rect width="40" height="40" fill="white" transform="translate(52 36)"/>
</clipPath>
</defs>
</svg>
