<svg width="144" height="144" viewBox="0 0 144 144" fill="none" xmlns="http://www.w3.org/2000/svg">
<g filter="url(#filter0_d_1014_235)">
<rect x="28" y="12" width="88" height="88" rx="16" fill="#011D3A"/>
</g>
<path d="M69.5 48.499V45.999H54.5C53.1225 45.999 52 47.1215 52 48.499V53.499H70.0275C69.68 51.9715 69.5 50.3265 69.5 48.499Z" fill="#F9C747"/>
<path d="M91.8975 58.499C90.1925 61.1265 87.5925 63.3615 83.8675 65.5015C83.295 65.829 82.65 65.999 82 65.999C81.35 65.999 80.705 65.829 80.14 65.5065C76.415 63.3615 73.815 61.124 72.1075 58.499H52V70.999C52 72.379 53.1225 73.499 54.5 73.499H89.5C90.88 73.499 92 72.379 92 70.999V58.499H91.8975ZM63.25 65.999H58.25C57.56 65.999 57 65.439 57 64.749C57 64.059 57.56 63.499 58.25 63.499H63.25C63.94 63.499 64.5 64.059 64.5 64.749C64.5 65.439 63.94 65.999 63.25 65.999Z" fill="#F9C747"/>
<path d="M91.2425 42.3522L82.4925 38.6022C82.175 38.4672 81.8225 38.4672 81.505 38.6022L72.755 42.3522C72.2975 42.5472 72 42.9997 72 43.4997V48.4997C72 55.3772 74.5425 59.3972 81.3775 63.3347C81.57 63.4447 81.785 63.4997 82 63.4997C82.215 63.4997 82.43 63.4447 82.6225 63.3347C89.4575 59.4072 92 55.3872 92 48.4997V43.4997C92 42.9997 91.7025 42.5472 91.2425 42.3522ZM86.7275 48.0322L81.7275 54.2822C81.4875 54.5772 81.1275 54.7497 80.75 54.7497C80.7325 54.7497 80.7125 54.7497 80.6975 54.7497C80.3 54.7322 79.9325 54.5272 79.71 54.1947L77.21 50.4447C76.8275 49.8697 76.9825 49.0947 77.5575 48.7122C78.1275 48.3322 78.905 48.4822 79.29 49.0597L80.8425 51.3872L84.7725 46.4722C85.205 45.9347 85.9925 45.8497 86.53 46.2772C87.07 46.7047 87.155 47.4922 86.7275 48.0322Z" fill="#F9C747"/>
<defs>
<filter id="filter0_d_1014_235" x="0" y="0" width="144" height="144" filterUnits="userSpaceOnUse" color-interpolation-filters="sRGB">
<feFlood flood-opacity="0" result="BackgroundImageFix"/>
<feColorMatrix in="SourceAlpha" type="matrix" values="0 0 0 0 0 0 0 0 0 0 0 0 0 0 0 0 0 0 127 0" result="hardAlpha"/>
<feMorphology radius="4" operator="dilate" in="SourceAlpha" result="effect1_dropShadow_1014_235"/>
<feOffset dy="16"/>
<feGaussianBlur stdDeviation="12"/>
<feComposite in2="hardAlpha" operator="out"/>
<feColorMatrix type="matrix" values="0 0 0 0 0.00392157 0 0 0 0 0.0823529 0 0 0 0 0.160784 0 0 0 0.2 0"/>
<feBlend mode="normal" in2="BackgroundImageFix" result="effect1_dropShadow_1014_235"/>
<feBlend mode="normal" in="SourceGraphic" in2="effect1_dropShadow_1014_235" result="shape"/>
</filter>
</defs>
</svg>
