<svg width="144" height="144" viewBox="0 0 144 144" fill="none" xmlns="http://www.w3.org/2000/svg">
<g filter="url(#filter0_d_1014_250)">
<rect x="28" y="12" width="88" height="88" rx="16" fill="#011D3A"/>
</g>
<g clip-path="url(#clip0_1014_250)">
<path d="M89.9167 59.5817V56.4167C89.9167 53.8883 87.8617 51.8333 85.3333 51.8333H82.8333V46.8333C82.8333 40.86 77.9733 36 72 36C66.0267 36 61.1667 40.86 61.1667 46.8333V51.8333H58.6667C56.1383 51.8333 54.0833 53.8883 54.0833 56.4167V59.5817C52.8633 60.0767 52 61.27 52 62.6667V66.4167C52 67.1067 52.56 67.6667 53.25 67.6667C53.94 67.6667 54.5 67.1067 54.5 66.4167V62.6667C54.5 62.2067 54.8733 61.8333 55.3333 61.8333C55.7933 61.8333 56.1667 62.2067 56.1667 62.6667V66.4167C56.1667 67.1067 56.7267 67.6667 57.4167 67.6667C58.1067 67.6667 58.6667 67.1067 58.6667 66.4167V62.6667C58.6667 61.27 57.8033 60.0767 56.5833 59.5817V56.4167C56.5833 55.2683 57.5183 54.3333 58.6667 54.3333H85.3333C86.4817 54.3333 87.4167 55.2683 87.4167 56.4167V59.5817C86.1967 60.0767 85.3333 61.27 85.3333 62.6667V66.4167C85.3333 67.1067 85.8933 67.6667 86.5833 67.6667C87.2733 67.6667 87.8333 67.1067 87.8333 66.4167V62.6667C87.8333 62.2067 88.2067 61.8333 88.6667 61.8333C89.1267 61.8333 89.5 62.2067 89.5 62.6667V66.4167C89.5 67.1067 90.06 67.6667 90.75 67.6667C91.44 67.6667 92 67.1067 92 66.4167V62.6667C92 61.27 91.1367 60.0767 89.9167 59.5817ZM76.1667 42.6667C77.545 42.6667 78.6667 43.7883 78.6667 45.1667C78.6667 46.545 77.545 47.6667 76.1667 47.6667C74.7883 47.6667 73.6667 46.545 73.6667 45.1667C73.6667 43.7883 74.7883 42.6667 76.1667 42.6667ZM67.8333 42.6667C69.2117 42.6667 70.3333 43.7883 70.3333 45.1667C70.3333 46.545 69.2117 47.6667 67.8333 47.6667C66.455 47.6667 65.3333 46.545 65.3333 45.1667C65.3333 43.7883 66.455 42.6667 67.8333 42.6667Z" fill="#F9C747"/>
<path d="M62.8327 57.667C61.9127 57.667 61.166 58.4137 61.166 59.3337V65.167C61.166 71.1403 66.026 76.0003 71.9993 76.0003C77.9727 76.0003 82.8327 71.1403 82.8327 65.167V59.3337C82.8327 58.4137 82.086 57.667 81.166 57.667H73.666V64.3337C73.666 65.2537 72.9193 66.0003 71.9993 66.0003C71.0793 66.0003 70.3327 65.2537 70.3327 64.3337V57.667H62.8327Z" fill="#F9C747"/>
</g>
<defs>
<filter id="filter0_d_1014_250" x="0" y="0" width="144" height="144" filterUnits="userSpaceOnUse" color-interpolation-filters="sRGB">
<feFlood flood-opacity="0" result="BackgroundImageFix"/>
<feColorMatrix in="SourceAlpha" type="matrix" values="0 0 0 0 0 0 0 0 0 0 0 0 0 0 0 0 0 0 127 0" result="hardAlpha"/>
<feMorphology radius="4" operator="dilate" in="SourceAlpha" result="effect1_dropShadow_1014_250"/>
<feOffset dy="16"/>
<feGaussianBlur stdDeviation="12"/>
<feComposite in2="hardAlpha" operator="out"/>
<feColorMatrix type="matrix" values="0 0 0 0 0.00392157 0 0 0 0 0.0823529 0 0 0 0 0.160784 0 0 0 0.2 0"/>
<feBlend mode="normal" in2="BackgroundImageFix" result="effect1_dropShadow_1014_250"/>
<feBlend mode="normal" in="SourceGraphic" in2="effect1_dropShadow_1014_250" result="shape"/>
</filter>
<clipPath id="clip0_1014_250">
<rect width="40" height="40" fill="white" transform="translate(52 36)"/>
</clipPath>
</defs>
</svg>
