<svg width="144" height="144" viewBox="0 0 144 144" fill="none" xmlns="http://www.w3.org/2000/svg">
<g filter="url(#filter0_d_1014_329)">
<rect x="28" y="12" width="88" height="88" rx="16" fill="#011D3A"/>
</g>
<g clip-path="url(#clip0_1014_329)">
<path d="M83.7969 54.8281C79.2741 54.8281 75.5938 58.5085 75.5938 63.0313C75.5938 64.7581 76.1259 66.4107 77.1467 67.8286L82.8596 75.5308C83.0805 75.826 83.4284 76 83.7969 76H83.798C84.1666 76 84.5145 75.8249 84.7353 75.5296L90.6794 67.4899C91.5434 66.1624 92 64.6208 92 63.0313C92 58.5085 88.3196 54.8281 83.7969 54.8281ZM83.7969 66.5469C81.8583 66.5469 80.2812 64.9699 80.2812 63.0313C80.2812 61.0927 81.8583 59.5156 83.7969 59.5156C85.7355 59.5156 87.3125 61.0927 87.3125 63.0313C87.3125 64.9699 85.7355 66.5469 83.7969 66.5469Z" fill="#F9C747"/>
<path d="M53.775 36.1668C53.4122 35.9504 52.9625 35.9436 52.594 36.1519C52.2266 36.3601 52 36.7493 52 37.1715V60.6871C52 61.0991 52.2163 61.4802 52.5688 61.6919L63.7969 68.3818V42.1332L53.775 36.1668Z" fill="#F9C747"/>
<path d="M89.0875 43.1982L77.9375 36.5078V54.2696C79.6149 53.1442 81.6295 52.4842 83.7969 52.4842C85.9642 52.4842 87.9788 53.1442 89.6562 54.2696V44.203C89.6562 43.791 89.4399 43.4099 89.0875 43.1982Z" fill="#F9C747"/>
<path d="M75.5938 36.5078L66.1406 42.1333V68.382L73.3345 64.1127C73.2975 63.7534 73.25 63.3959 73.25 63.031C73.25 60.5454 74.1501 58.2883 75.5938 56.4837V36.5078Z" fill="#F9C747"/>
</g>
<defs>
<filter id="filter0_d_1014_329" x="0" y="0" width="144" height="144" filterUnits="userSpaceOnUse" color-interpolation-filters="sRGB">
<feFlood flood-opacity="0" result="BackgroundImageFix"/>
<feColorMatrix in="SourceAlpha" type="matrix" values="0 0 0 0 0 0 0 0 0 0 0 0 0 0 0 0 0 0 127 0" result="hardAlpha"/>
<feMorphology radius="4" operator="dilate" in="SourceAlpha" result="effect1_dropShadow_1014_329"/>
<feOffset dy="16"/>
<feGaussianBlur stdDeviation="12"/>
<feComposite in2="hardAlpha" operator="out"/>
<feColorMatrix type="matrix" values="0 0 0 0 0.00392157 0 0 0 0 0.0823529 0 0 0 0 0.160784 0 0 0 0.2 0"/>
<feBlend mode="normal" in2="BackgroundImageFix" result="effect1_dropShadow_1014_329"/>
<feBlend mode="normal" in="SourceGraphic" in2="effect1_dropShadow_1014_329" result="shape"/>
</filter>
<clipPath id="clip0_1014_329">
<rect width="40" height="40" fill="white" transform="translate(52 36)"/>
</clipPath>
</defs>
</svg>
