<svg width="144" height="144" viewBox="0 0 144 144" fill="none" xmlns="http://www.w3.org/2000/svg">
<g filter="url(#filter0_d_1014_259)">
<rect x="28" y="12" width="88" height="88" rx="16" fill="#011D3A"/>
</g>
<g clip-path="url(#clip0_1014_259)">
<path d="M58.3281 43.4219C58.3281 43.6041 58.3348 43.7863 58.3484 43.968C54.7626 44.4897 52 47.5845 52 51.3125C52 53.0308 52.5977 54.6846 53.6697 56C52.5977 57.3154 52 58.9692 52 60.6875C52 64.4155 54.7626 67.5103 58.3484 68.032C58.3348 68.2137 58.3281 68.3959 58.3281 68.5781C58.3281 72.6705 61.6576 76 65.75 76C67.7126 76 69.4995 75.2342 70.8281 73.9859V38.0141C69.4995 36.7658 67.7126 36 65.75 36C61.6576 36 58.3281 39.3295 58.3281 43.4219Z" fill="#F9C747"/>
<path d="M79.0312 49.3594C79.6785 49.3594 80.2031 48.8347 80.2031 48.1875C80.2031 47.5403 79.6785 47.0156 79.0312 47.0156C78.384 47.0156 77.8594 47.5403 77.8594 48.1875C77.8594 48.8347 78.384 49.3594 79.0312 49.3594Z" fill="#F9C747"/>
<path d="M92 51.3125C92 47.5845 89.2374 44.4897 85.6516 43.968C85.6652 43.7863 85.6719 43.6041 85.6719 43.4219C85.6719 39.3295 82.3424 36 78.25 36C76.2874 36 74.5005 36.7658 73.1719 38.0141V47.0156H75.7172C76.2009 45.6516 77.5035 44.6719 79.0312 44.6719C80.9698 44.6719 82.5469 46.249 82.5469 48.1875C82.5469 50.126 80.9698 51.7031 79.0312 51.7031C77.5035 51.7031 76.2009 50.7234 75.7172 49.3594H73.1719V54.8281H78.8422C79.3259 53.4641 80.6285 52.4844 82.1562 52.4844C84.0948 52.4844 85.6719 54.0615 85.6719 56C85.6719 57.9385 84.0948 59.5156 82.1562 59.5156C80.6285 59.5156 79.3259 58.5359 78.8422 57.1719H73.1719V62.6406H75.7172C76.2009 61.2766 77.5035 60.2969 79.0312 60.2969C80.9698 60.2969 82.5469 61.874 82.5469 63.8125C82.5469 65.751 80.9698 67.3281 79.0312 67.3281C77.5035 67.3281 76.2009 66.3484 75.7172 64.9844H73.1719V73.9859C74.5005 75.2342 76.2874 76 78.25 76C82.3424 76 85.6719 72.6705 85.6719 68.5781C85.6719 68.3959 85.6652 68.2137 85.6516 68.032C89.2374 67.5103 92 64.4155 92 60.6875C92 58.9692 91.4023 57.3154 90.3303 56C91.4023 54.6846 92 53.0308 92 51.3125Z" fill="#F9C747"/>
<path d="M79.0312 64.9844C79.6785 64.9844 80.2031 64.4597 80.2031 63.8125C80.2031 63.1653 79.6785 62.6406 79.0312 62.6406C78.384 62.6406 77.8594 63.1653 77.8594 63.8125C77.8594 64.4597 78.384 64.9844 79.0312 64.9844Z" fill="#F9C747"/>
<path d="M82.1562 57.1719C82.8035 57.1719 83.3281 56.6472 83.3281 56C83.3281 55.3528 82.8035 54.8281 82.1562 54.8281C81.509 54.8281 80.9844 55.3528 80.9844 56C80.9844 56.6472 81.509 57.1719 82.1562 57.1719Z" fill="#F9C747"/>
</g>
<defs>
<filter id="filter0_d_1014_259" x="0" y="0" width="144" height="144" filterUnits="userSpaceOnUse" color-interpolation-filters="sRGB">
<feFlood flood-opacity="0" result="BackgroundImageFix"/>
<feColorMatrix in="SourceAlpha" type="matrix" values="0 0 0 0 0 0 0 0 0 0 0 0 0 0 0 0 0 0 127 0" result="hardAlpha"/>
<feMorphology radius="4" operator="dilate" in="SourceAlpha" result="effect1_dropShadow_1014_259"/>
<feOffset dy="16"/>
<feGaussianBlur stdDeviation="12"/>
<feComposite in2="hardAlpha" operator="out"/>
<feColorMatrix type="matrix" values="0 0 0 0 0.00392157 0 0 0 0 0.0823529 0 0 0 0 0.160784 0 0 0 0.2 0"/>
<feBlend mode="normal" in2="BackgroundImageFix" result="effect1_dropShadow_1014_259"/>
<feBlend mode="normal" in="SourceGraphic" in2="effect1_dropShadow_1014_259" result="shape"/>
</filter>
<clipPath id="clip0_1014_259">
<rect width="40" height="40" fill="white" transform="translate(52 36)"/>
</clipPath>
</defs>
</svg>
