<svg width="144" height="144" viewBox="0 0 144 144" fill="none" xmlns="http://www.w3.org/2000/svg">
<g filter="url(#filter0_d_1014_211)">
<rect x="28" y="12" width="88" height="88" rx="16" fill="#011D3A"/>
</g>
<g clip-path="url(#clip0_1014_211)">
<path d="M88.4844 61.8594H76.7656C74.827 61.8594 73.25 63.4364 73.25 65.375V72.4844C73.25 74.423 74.827 76 76.7656 76H88.4844C90.423 76 92 74.423 92 72.4844V65.375C92 63.4364 90.423 61.8594 88.4844 61.8594ZM83.7969 70.0625C83.7969 70.7102 83.2727 71.3125 82.625 71.3125C81.9773 71.3125 81.4531 70.7102 81.4531 70.0625V67.7188C81.4531 67.071 81.9773 66.5469 82.625 66.5469C83.2727 66.5469 83.7969 67.071 83.7969 67.7188V70.0625Z" fill="#F9C747"/>
<path d="M52 41.7696C52 45.6159 59.7423 47.6289 67.3125 47.6289C74.8827 47.6289 82.625 45.6159 82.625 41.7696C82.625 34.0768 52 34.0768 52 41.7696Z" fill="#F9C747"/>
<path d="M79.8125 47.6289C76.9062 49.1757 72.047 49.9727 67.3125 49.9727C62.578 49.9727 57.7188 49.1757 54.8125 47.6289C53.0781 46.7148 52 45.543 52 44.1133V51.3125C52 55.1562 59.7423 57.1719 67.3125 57.1719C69.4836 57.1719 71.7345 57.0006 73.738 56.6735C74.9502 52.8987 78.4527 50.0625 82.625 50.0625V44.1133C82.625 45.543 81.5468 46.7148 79.8125 47.6289Z" fill="#F9C747"/>
<path d="M67.3125 59.5156C62.578 59.5156 57.7188 58.7187 54.8125 57.1719C53.0781 56.2578 52 55.0859 52 53.6562V60.6875C52 64.5312 59.7423 66.5469 67.3125 66.5469C68.493 66.5469 69.7505 66.4921 70.9062 66.3948V65.375C70.9062 63.4684 71.8356 61.7881 73.25 60.7174V59.5156C73.25 59.3662 73.2872 59.2266 73.2942 59.0789C71.4132 59.363 69.3239 59.5156 67.3125 59.5156Z" fill="#F9C747"/>
<path d="M70.9062 72.4844V68.7429C69.7512 68.841 68.4914 68.8906 67.3125 68.8906C62.578 68.8906 57.7188 68.0937 54.8125 66.5469C53.0781 65.6328 52 64.4609 52 63.0312V70.0625C52 73.9062 59.7423 76 67.3125 76C68.8357 76 70.4377 75.9145 71.9055 75.7528C71.275 74.8184 70.9062 73.6938 70.9062 72.4844Z" fill="#F9C747"/>
<path d="M82.625 52.4844C78.7417 52.4844 75.5938 55.6323 75.5938 59.5156H80.2812C80.2812 58.2212 81.3305 57.1719 82.625 57.1719C83.9195 57.1719 84.9688 58.2212 84.9688 59.5156H89.6562C89.6562 55.6323 86.5083 52.4844 82.625 52.4844Z" fill="#F9C747"/>
</g>
<defs>
<filter id="filter0_d_1014_211" x="0" y="0" width="144" height="144" filterUnits="userSpaceOnUse" color-interpolation-filters="sRGB">
<feFlood flood-opacity="0" result="BackgroundImageFix"/>
<feColorMatrix in="SourceAlpha" type="matrix" values="0 0 0 0 0 0 0 0 0 0 0 0 0 0 0 0 0 0 127 0" result="hardAlpha"/>
<feMorphology radius="4" operator="dilate" in="SourceAlpha" result="effect1_dropShadow_1014_211"/>
<feOffset dy="16"/>
<feGaussianBlur stdDeviation="12"/>
<feComposite in2="hardAlpha" operator="out"/>
<feColorMatrix type="matrix" values="0 0 0 0 0.00392157 0 0 0 0 0.0823529 0 0 0 0 0.160784 0 0 0 0.2 0"/>
<feBlend mode="normal" in2="BackgroundImageFix" result="effect1_dropShadow_1014_211"/>
<feBlend mode="normal" in="SourceGraphic" in2="effect1_dropShadow_1014_211" result="shape"/>
</filter>
<clipPath id="clip0_1014_211">
<rect width="40" height="40" fill="white" transform="translate(52 36)"/>
</clipPath>
</defs>
</svg>
