<svg width="144" height="144" viewBox="0 0 144 144" fill="none" xmlns="http://www.w3.org/2000/svg">
<g filter="url(#filter0_d_1014_316)">
<rect x="28" y="12" width="88" height="88" rx="16" fill="#011D3A"/>
</g>
<path fill-rule="evenodd" clip-rule="evenodd" d="M72 38.5C67.1675 38.5 63.25 42.4175 63.25 47.25C63.25 52.0825 67.1675 56 72 56C76.8325 56 80.75 52.0825 80.75 47.25C80.75 42.4175 76.8325 38.5 72 38.5Z" fill="#F9C747"/>
<path fill-rule="evenodd" clip-rule="evenodd" d="M86.7836 61.7681C77.5399 56.8559 66.4599 56.8559 57.2163 61.7681C56.314 62.2476 55.75 63.1859 55.75 64.2078V70.3274C55.75 71.9383 57.0558 73.2441 58.6667 73.2441H85.3333C86.9442 73.2441 88.25 71.9383 88.25 70.3274V64.2078C88.25 63.1859 87.686 62.2476 86.7837 61.7681H86.7836Z" fill="#F9C747"/>
<path fill-rule="evenodd" clip-rule="evenodd" d="M56.9987 40.167C56.7686 40.167 56.582 40.3535 56.582 40.5837V43.917C56.582 44.6073 56.0224 45.167 55.332 45.167C54.6417 45.167 54.082 44.6073 54.082 43.917V40.5837C54.082 38.9728 55.3879 37.667 56.9987 37.667H60.332C61.0224 37.667 61.582 38.2266 61.582 38.917C61.582 39.6073 61.0224 40.167 60.332 40.167H56.9987Z" fill="#F9C747"/>
<path fill-rule="evenodd" clip-rule="evenodd" d="M56.9987 54.334C56.7686 54.334 56.582 54.1475 56.582 53.9173V50.584C56.582 49.8936 56.0224 49.334 55.332 49.334C54.6417 49.334 54.082 49.8936 54.082 50.584V53.9173C54.082 55.5282 55.3879 56.834 56.9987 56.834H60.332C61.0224 56.834 61.582 56.2743 61.582 55.584C61.582 54.8937 61.0224 54.334 60.332 54.334H56.9987Z" fill="#F9C747"/>
<path fill-rule="evenodd" clip-rule="evenodd" d="M86.9974 54.334C87.2276 54.334 87.4141 54.1475 87.4141 53.9173V50.584C87.4141 49.8936 87.9737 49.334 88.6641 49.334C89.3544 49.334 89.9141 49.8936 89.9141 50.584V53.9173C89.9141 55.5282 88.6082 56.834 86.9974 56.834H83.6641C82.9737 56.834 82.4141 56.2743 82.4141 55.584C82.4141 54.8937 82.9737 54.334 83.6641 54.334H86.9974Z" fill="#F9C747"/>
<path fill-rule="evenodd" clip-rule="evenodd" d="M86.9974 40.167C87.2276 40.167 87.4141 40.3535 87.4141 40.5837V43.917C87.4141 44.6073 87.9737 45.167 88.6641 45.167C89.3544 45.167 89.9141 44.6073 89.9141 43.917V40.5837C89.9141 38.9728 88.6082 37.667 86.9974 37.667H83.6641C82.9737 37.667 82.4141 38.2266 82.4141 38.917C82.4141 39.6073 82.9737 40.167 83.6641 40.167H86.9974Z" fill="#F9C747"/>
<defs>
<filter id="filter0_d_1014_316" x="0" y="0" width="144" height="144" filterUnits="userSpaceOnUse" color-interpolation-filters="sRGB">
<feFlood flood-opacity="0" result="BackgroundImageFix"/>
<feColorMatrix in="SourceAlpha" type="matrix" values="0 0 0 0 0 0 0 0 0 0 0 0 0 0 0 0 0 0 127 0" result="hardAlpha"/>
<feMorphology radius="4" operator="dilate" in="SourceAlpha" result="effect1_dropShadow_1014_316"/>
<feOffset dy="16"/>
<feGaussianBlur stdDeviation="12"/>
<feComposite in2="hardAlpha" operator="out"/>
<feColorMatrix type="matrix" values="0 0 0 0 0.00392157 0 0 0 0 0.0823529 0 0 0 0 0.160784 0 0 0 0.2 0"/>
<feBlend mode="normal" in2="BackgroundImageFix" result="effect1_dropShadow_1014_316"/>
<feBlend mode="normal" in="SourceGraphic" in2="effect1_dropShadow_1014_316" result="shape"/>
</filter>
</defs>
</svg>
