<svg width="144" height="144" viewBox="0 0 144 144" fill="none" xmlns="http://www.w3.org/2000/svg">
<g filter="url(#filter0_d_1014_202)">
<rect x="28" y="12" width="88" height="88" rx="16" fill="#011D3A"/>
</g>
<g clip-path="url(#clip0_1014_202)">
<path d="M89.035 67.7262V62.2016H73.1719V59.0208H85.0631C87.818 59.0208 90.0594 56.7795 90.0594 54.0245C90.0594 51.6723 88.4142 49.6865 86.214 49.1638C85.789 45.5914 82.7409 42.812 79.056 42.812C78.5935 42.812 78.1362 42.8557 77.6873 42.9424C77.158 41.1787 76.1315 39.5864 74.7202 38.3672C72.9531 36.8407 70.6925 36 68.3546 36C63.0101 36 58.6569 40.3261 58.6124 45.6603C55.8527 46.5815 53.9406 49.1704 53.9406 52.1623C53.9406 55.9441 57.0173 59.0209 60.7992 59.0209H70.8281V62.2017H54.965V67.7263H52V76H60.2738V67.7262H57.3088V64.5454H70.8281V67.7262H67.8631V76H76.1369V67.7262H73.1719V64.5454H86.6912V67.7262H83.7262V76H92V67.7262H89.035Z" fill="#F9C747"/>
</g>
<defs>
<filter id="filter0_d_1014_202" x="0" y="0" width="144" height="144" filterUnits="userSpaceOnUse" color-interpolation-filters="sRGB">
<feFlood flood-opacity="0" result="BackgroundImageFix"/>
<feColorMatrix in="SourceAlpha" type="matrix" values="0 0 0 0 0 0 0 0 0 0 0 0 0 0 0 0 0 0 127 0" result="hardAlpha"/>
<feMorphology radius="4" operator="dilate" in="SourceAlpha" result="effect1_dropShadow_1014_202"/>
<feOffset dy="16"/>
<feGaussianBlur stdDeviation="12"/>
<feComposite in2="hardAlpha" operator="out"/>
<feColorMatrix type="matrix" values="0 0 0 0 0.00392157 0 0 0 0 0.0823529 0 0 0 0 0.160784 0 0 0 0.2 0"/>
<feBlend mode="normal" in2="BackgroundImageFix" result="effect1_dropShadow_1014_202"/>
<feBlend mode="normal" in="SourceGraphic" in2="effect1_dropShadow_1014_202" result="shape"/>
</filter>
<clipPath id="clip0_1014_202">
<rect width="40" height="40" fill="white" transform="translate(52 36)"/>
</clipPath>
</defs>
</svg>
