<svg width="603" height="654" viewBox="0 0 603 654" fill="none" xmlns="http://www.w3.org/2000/svg">
<g style="mix-blend-mode:multiply" opacity="0.7">
<path d="M346.421 634.228C481.614 634.228 591.21 627.512 591.21 619.228C591.21 610.943 481.614 604.227 346.421 604.227C211.228 604.227 101.633 610.943 101.633 619.228C101.633 627.512 211.228 634.228 346.421 634.228Z" fill="#C7D4E2"/>
</g>
<g style="mix-blend-mode:multiply">
<path d="M239.366 0.0966797H101.63C97.4872 0.0966797 94.1289 3.45475 94.1289 7.59716V195.109C94.1289 199.252 97.4872 202.61 101.63 202.61H239.366C243.508 202.61 246.866 199.252 246.866 195.109V7.59716C246.866 3.45475 243.508 0.0966797 239.366 0.0966797Z" fill="#C7D4E2"/>
</g>
<path d="M237.323 2.14062H104.36C100.217 2.14062 96.8594 5.4987 96.8594 9.6411V192.38C96.8594 196.523 100.217 199.881 104.36 199.881H237.323C241.465 199.881 244.824 196.523 244.824 192.38V9.6411C244.824 5.4987 241.465 2.14062 237.323 2.14062Z" fill="white"/>
<path d="M233.229 34.8718H114.585V32.8262H233.229V34.8718Z" fill="#407CCA"/>
<path d="M233.229 41.6871H114.585V40.3232H233.229V41.6871Z" fill="#407CCA"/>
<path d="M233.229 48.5095H114.585V46.4639H233.229V48.5095Z" fill="#407CCA"/>
<path d="M176.635 55.3278H114.585V53.2822H176.635V55.3278Z" fill="#407CCA"/>
<path d="M233.229 69.6491H114.585V67.6035H233.229V69.6491Z" fill="#407CCA"/>
<path d="M233.229 76.4643H114.585V75.1006H233.229V76.4643Z" fill="#407CCA"/>
<path d="M233.229 83.2868H114.585V81.2412H233.229V83.2868Z" fill="#407CCA"/>
<path d="M233.229 90.1052H114.585V88.0596H233.229V90.1052Z" fill="#407CCA"/>
<path d="M233.907 140.563H115.264V139.199H233.907V140.563Z" fill="#407CCA"/>
<path d="M233.907 147.381H115.264V146.018H233.907V147.381Z" fill="#407CCA"/>
<path d="M233.907 154.201H115.264V152.837H233.907V154.201Z" fill="#407CCA"/>
<path d="M233.907 161.021H115.264V158.976H233.907V161.021Z" fill="#407CCA"/>
<path d="M233.229 105.787H114.585V103.741H233.229V105.787Z" fill="#407CCA"/>
<path d="M233.229 112.605H114.585V110.56H233.229V112.605Z" fill="#407CCA"/>
<path d="M233.229 119.425H114.585V117.379H233.229V119.425Z" fill="#407CCA"/>
<path d="M174.589 125.561H114.585V124.197H174.589V125.561Z" fill="#407CCA"/>
<path d="M171.182 131.698C191.517 131.698 208.002 115.213 208.002 94.8772C208.002 74.5417 191.517 58.0566 171.182 58.0566C150.846 58.0566 134.361 74.5417 134.361 94.8772C134.361 115.213 150.846 131.698 171.182 131.698Z" fill="#E94552"/>
<path d="M169.819 71.0137L192.32 98.9701H179.365V118.744H160.954V98.9701H147.999L169.819 71.0137Z" fill="white"/>
<path d="M507.338 125.564H177.316C164.136 125.564 153.451 136.249 153.451 149.43V591.276C153.451 604.457 164.136 615.142 177.316 615.142H507.338C520.518 615.142 531.203 604.457 531.203 591.276V149.43C531.203 136.249 520.518 125.564 507.338 125.564Z" fill="#A7BBE4"/>
<path d="M497.792 147.379H186.863C177.825 147.379 170.498 154.706 170.498 163.744V566.724C170.498 575.762 177.825 583.089 186.863 583.089H497.792C506.83 583.089 514.157 575.762 514.157 566.724V163.744C514.157 154.706 506.83 147.379 497.792 147.379Z" fill="url(#paint0_linear_1061_1946)"/>
<path d="M349.145 608.32C353.664 608.32 357.328 604.656 357.328 600.137C357.328 595.618 353.664 591.955 349.145 591.955C344.626 591.955 340.963 595.618 340.963 600.137C340.963 604.656 344.626 608.32 349.145 608.32Z" fill="#6F95D4"/>
<path d="M244.819 214.204C267.093 214.204 277.776 227.159 276.866 253.07H212.09C211.18 226.705 222.091 213.749 244.819 214.204Z" fill="#407CCA"/>
<path d="M244.819 206.701C254.234 206.701 261.866 199.069 261.866 189.654C261.866 180.239 254.234 172.607 244.819 172.607C235.404 172.607 227.772 180.239 227.772 189.654C227.772 199.069 235.404 206.701 244.819 206.701Z" fill="#407CCA"/>
<path d="M356.645 266.702H212.09V261.929H356.645V266.702Z" fill="#407CCA"/>
<path d="M356.645 278.973H212.09V274.2H356.645V278.973Z" fill="#407CCA"/>
<path d="M356.645 291.932H212.09V287.159H356.645V291.932Z" fill="#407CCA"/>
<path d="M356.645 306.252H212.09V300.797H356.645V306.252Z" fill="#407CCA"/>
<path d="M477.335 518.999H332.78V514.226H477.335V518.999Z" fill="#407CCA"/>
<path d="M477.335 531.27H332.78V526.497H477.335V531.27Z" fill="#407CCA"/>
<path d="M477.335 544.229H332.78V539.456H477.335V544.229Z" fill="#407CCA"/>
<path d="M477.335 558.549H332.78V553.094H477.335V558.549Z" fill="#407CCA"/>
<path d="M426.199 340.349C439.836 424.445 414.153 474.676 349.149 491.041C345.058 492.404 341.875 492.404 339.603 491.041C275.962 469.221 250.052 418.99 261.871 340.349C293.236 345.804 320.738 340.349 344.376 323.984C368.014 340.349 395.288 345.804 426.199 340.349Z" fill="#407CCA"/>
<path d="M413.241 351.259C424.605 421.718 403.013 463.767 348.464 477.404C344.827 478.313 342.1 478.313 340.282 477.404C287.097 459.221 265.504 417.173 275.505 351.259C301.87 355.805 324.826 351.259 344.373 337.622C363.92 351.259 386.876 355.805 413.241 351.259Z" fill="white"/>
<path d="M406.426 356.714C416.882 420.354 397.335 458.539 347.786 471.267C344.604 471.721 342.331 471.721 340.968 471.267C292.783 454.448 273.236 416.263 282.328 356.714C305.966 360.805 326.649 356.714 344.377 344.44C362.105 356.714 382.788 360.805 406.426 356.714Z" fill="#3B5CAD"/>
<path d="M345.057 465.813C344.148 465.813 343.239 465.813 342.33 465.813C296.872 454.904 278.462 419.901 287.099 360.806C308.918 364.443 328.011 360.579 344.375 349.215L345.057 465.813Z" fill="#407CCA"/>
<path d="M364.835 396.258H326.651C322.509 396.258 319.15 399.616 319.15 403.758V434.442C319.15 438.584 322.509 441.943 326.651 441.943H364.835C368.978 441.943 372.336 438.584 372.336 434.442V403.758C372.336 399.616 368.978 396.258 364.835 396.258Z" fill="white"/>
<path d="M330.062 398.985C330.062 388.757 329.38 368.983 345.744 368.983C359.382 368.983 364.609 379.211 361.427 399.667" stroke="white" stroke-width="0.7"/>
<path d="M349.154 422.166V430.348H341.654V422.166C338.926 420.802 337.562 418.075 337.562 415.347C337.562 410.574 340.972 407.165 345.745 407.165C349.836 407.165 353.245 410.574 353.245 415.347C353.245 418.075 351.882 420.802 349.154 422.166Z" fill="#3B5CAD"/>
<path d="M566.662 21.9184C489.839 62.8301 448.246 89.4227 441.882 101.696C439.154 100.787 438.018 99.4235 438.472 97.6052C466.656 69.4215 509.159 43.738 565.981 20.5547C567.344 21.0093 567.572 21.4638 566.662 21.9184Z" fill="#3B5CAD"/>
<path d="M566.66 21.9189C574.842 86.6959 571.433 173.292 555.75 236.706" stroke="#7FADD6" stroke-width="0.4"/>
<path d="M505.292 104.423H364.829C361.42 104.423 358.692 102.377 356.646 99.6496C352.555 92.831 349.828 82.603 351.873 75.1025C354.601 66.9202 361.42 59.4197 370.284 56.6923C368.92 43.055 379.83 29.4177 392.785 26.6903C406.422 23.281 421.423 30.0996 428.242 42.3731C429.606 44.4187 430.97 46.4643 433.015 47.1461C435.743 47.828 437.788 46.4643 439.834 45.7824C449.38 41.6913 460.29 42.3732 469.154 47.8281C477.336 53.283 483.473 62.829 484.155 73.0569C490.973 69.6476 500.52 71.0114 505.974 76.4663C512.111 81.9212 514.157 90.7853 511.429 98.2858C510.975 102.377 508.929 104.423 505.292 104.423Z" fill="#6F95D4"/>
<g style="mix-blend-mode:multiply" opacity="0.8">
<path d="M428.244 113.283C443.684 113.283 456.201 100.766 456.201 85.3265C456.201 69.8866 443.684 57.3701 428.244 57.3701C412.804 57.3701 400.288 69.8866 400.288 85.3265C400.288 100.766 412.804 113.283 428.244 113.283Z" fill="#407CCA"/>
</g>
<path d="M425.514 112.604C440.954 112.604 453.47 100.088 453.47 84.6477C453.47 69.2078 440.954 56.6914 425.514 56.6914C410.074 56.6914 397.558 69.2078 397.558 84.6477C397.558 100.088 410.074 112.604 425.514 112.604Z" fill="#E94552"/>
<path d="M439.834 73.7373L422.106 96.9206L412.56 88.7383" stroke="white" stroke-width="0.7"/>
<path d="M205.271 486.953V461.724V437.177H222.999V442.632L261.865 441.95V482.18C261.865 486.271 258.456 489.68 254.365 489.68L205.271 490.362V486.953Z" fill="#407CCA"/>
<path d="M247.547 470.587H213.454V432.402H247.547V470.587Z" fill="white"/>
<path d="M198.452 490.359V463.085H216.181V451.493H258.456V489.677" fill="#3B5CAD"/>
<path d="M261.867 451.493V486.268C261.867 488.314 260.503 490.359 258.458 490.359C256.412 490.359 254.366 488.314 254.366 486.268V451.493H261.867Z" fill="#407CCA"/>
<path d="M244.815 439.219H216.177V437.855H244.815V439.219Z" fill="#407CCA"/>
<path d="M244.815 441.268H216.177V440.586H244.815V441.268Z" fill="#407CCA"/>
<path d="M244.815 443.99H216.177V443.309H244.815V443.99Z" fill="#407CCA"/>
<path d="M229.132 446.722H216.177V446.04H229.132V446.722Z" fill="#407CCA"/>
<path d="M205.269 559.909V534.68V509.451H222.997V514.906H261.863V554.454C261.863 559.227 258.454 562.636 254.363 562.636H205.269V559.909Z" fill="#407CCA"/>
<path d="M247.546 543.543H213.453V504.677H247.546V543.543Z" fill="white"/>
<path d="M197.771 562.637V535.363H215.5V524.453H257.775L258.457 562.637" fill="#3B5CAD"/>
<path d="M261.866 524.453V558.546C261.866 560.592 260.502 562.637 258.457 562.637C255.729 562.637 254.365 560.592 254.365 558.546V524.453H261.866Z" fill="#407CCA"/>
<path d="M244.822 511.499H216.184V510.817H244.822V511.499Z" fill="#407CCA"/>
<path d="M244.822 514.225H216.184V512.861H244.822V514.225Z" fill="#407CCA"/>
<path d="M244.822 516.956H216.184V515.592H244.822V516.956Z" fill="#407CCA"/>
<path d="M229.139 519.678H216.184V518.314H229.139V519.678Z" fill="#407CCA"/>
<path d="M495.067 253.07H295.964V170.564H495.067V253.07Z" stroke="#407CCA" stroke-width="0.4"/>
<path d="M467.793 203.297H323.238V200.569H467.793V203.297Z" fill="#407CCA"/>
<path d="M467.793 211.478H323.238V209.433H467.793V211.478Z" fill="#407CCA"/>
<path d="M467.793 219.661H323.238V217.615H467.793V219.661Z" fill="#407CCA"/>
<path d="M467.793 227.838H323.238V225.793H467.793V227.838Z" fill="#407CCA"/>
<path d="M557.114 417.397L563.933 433.762H544.159L542.113 429.671C542.568 424.216 544.841 420.352 548.932 418.079C553.023 416.261 555.751 416.033 557.114 417.397Z" fill="#F7C5B4"/>
<path d="M467.113 418.079C471.205 420.352 473.477 424.216 473.932 429.671L471.886 433.762H452.112L458.931 417.397C460.295 416.033 463.022 416.261 467.113 418.079Z" fill="#F7C5B4"/>
<path d="M544.844 639.002H531.889L531.207 631.502C529.843 602.864 524.388 572.862 517.57 544.905C515.524 535.359 511.433 521.04 508.705 512.858L506.66 519.676C503.932 528.313 501.659 536.95 499.841 545.587C493.023 572.862 488.25 602.864 486.886 631.502L486.204 639.002H473.249C467.794 598.09 469.157 554.451 469.157 545.587C468.475 521.722 472.567 497.857 480.749 476.037C494.386 477.855 507.569 478.31 520.297 477.401L536.662 476.037C544.844 497.857 548.935 521.722 548.254 545.587C548.254 554.451 550.299 598.09 544.844 639.002Z" fill="#3B5CAD"/>
<path d="M544.84 638.999C548.931 641.045 554.386 644.454 558.478 647.863C559.159 648.545 560.523 649.909 560.523 651.273C559.841 652.636 558.477 653.318 557.114 653.318C555.068 654 553.022 654 550.977 654C545.522 653.318 540.067 653.318 535.294 651.273C534.612 651.273 533.248 650.591 532.566 649.909C531.885 648.545 531.885 646.5 531.885 644.454C531.885 642.636 531.885 640.817 531.885 638.999" fill="#003A70"/>
<path d="M486.205 638.999C486.205 640.817 486.205 642.636 486.205 644.454C486.205 646.5 486.205 648.545 485.523 649.909C484.841 650.591 483.477 651.273 482.795 651.273C477.34 653.318 472.568 653.318 467.113 654C465.067 654 463.021 654 460.976 653.318C459.612 653.318 458.248 652.636 457.566 651.273C457.566 649.909 458.93 648.545 459.612 647.863C463.022 644.454 469.158 641.045 473.25 638.999" fill="#003A70"/>
<path d="M559.843 652.637C555.07 653.318 550.297 652.637 545.524 652.637C543.251 652.182 540.751 651.727 538.024 651.273C537.114 650.818 535.978 650.364 534.614 649.909C534.614 649.909 533.932 649.909 533.251 649.227L531.887 647.864C531.887 647.864 531.887 647.636 531.887 647.182C531.887 647.182 532.114 647.182 532.568 647.182V647.864L533.251 648.545C533.932 649.227 534.614 649.227 535.296 649.909C536.205 650.364 537.342 650.591 538.705 650.591C540.978 651.046 543.251 651.5 545.524 651.955C550.297 651.955 555.07 652.637 559.843 651.955C559.843 651.955 559.843 652.182 559.843 652.637Z" fill="#407CCA"/>
<path d="M458.245 651.958C463.018 652.64 467.791 651.958 471.882 651.958C474.61 651.504 477.11 651.049 479.383 650.595C480.065 650.595 481.428 650.595 482.792 649.913C483.474 649.231 484.838 649.231 485.52 647.867C485.52 647.867 485.52 648.095 485.52 648.549C484.838 649.231 483.474 649.913 482.792 650.595C481.428 650.595 480.746 651.276 479.383 651.276C477.11 651.731 474.837 652.186 472.564 652.64C467.791 652.64 463.018 653.322 458.245 652.64C458.245 652.186 458.245 651.958 458.245 651.958Z" fill="#407CCA"/>
<path d="M529.157 476.716C529.839 483.534 535.294 489.671 541.431 491.717C541.431 492.171 541.431 492.399 541.431 492.399C534.613 490.353 529.157 484.216 528.476 476.716C528.476 476.716 528.703 476.716 529.157 476.716Z" fill="#407CCA"/>
<path d="M489.615 476.716C488.251 484.216 483.478 490.353 476.66 492.399C476.205 492.399 475.978 492.399 475.978 492.399C475.978 492.399 475.978 492.171 475.978 491.717C482.796 489.671 487.569 483.534 488.933 476.716C489.388 476.716 489.615 476.716 489.615 476.716Z" fill="#407CCA"/>
<path d="M477.341 420.12C475.523 425.12 474.386 428.302 473.932 429.666L472.568 427.62C469.84 424.211 461.658 419.438 458.931 417.392C468.477 392.163 474.614 393.527 480.069 392.163C482.796 391.481 486.205 390.799 489.614 390.799C501.888 388.527 517.343 388.981 535.981 392.163C541.436 392.845 547.573 392.163 557.119 417.392C553.71 419.438 546.209 424.211 543.482 427.62L542.118 429.666C541.663 428.302 540.527 425.12 538.709 420.12V421.483C538.709 439.212 538.027 455.576 537.345 473.305C537.345 473.987 537.345 475.35 536.663 476.032C530.754 476.941 520.753 477.396 506.661 477.396C489.387 477.396 480.523 476.714 480.069 475.35C479.614 474.896 479.387 474.214 479.387 473.305C478.932 469.214 478.705 465.122 478.705 461.031C478.705 456.031 478.477 450.803 478.023 445.348C477.568 438.984 477.341 430.575 477.341 420.12Z" fill="#003A70"/>
<path d="M516.889 373.074C517.343 375.802 517.798 378.757 518.253 381.939C518.253 383.302 518.252 385.348 518.934 386.03C519.616 387.394 526.435 390.121 527.799 390.803C524.162 393.985 517.571 395.803 508.025 396.258C498.933 396.712 492.796 394.894 489.614 390.803C490.978 389.439 497.797 387.394 498.478 385.348C499.16 384.666 499.16 382.62 499.16 381.257C499.615 378.529 500.07 375.575 500.524 372.393" fill="#F7C5B4"/>
<path d="M523.706 346.483C525.069 352.62 523.024 364.894 521.66 369.667C520.978 371.712 520.978 373.758 519.615 375.803C512.796 383.304 504.613 381.258 501.886 379.213C499.613 377.849 498.022 376.031 497.113 373.758C494.386 367.621 493.022 360.802 493.704 353.984C493.249 342.619 498.932 336.937 510.751 336.937C518.024 336.483 522.342 339.665 523.706 346.483Z" fill="#F7C5B4"/>
<path d="M494.388 364.211C493.706 364.211 493.024 364.211 492.342 364.211C491.888 363.756 491.66 363.074 491.66 362.165C491.66 361.711 491.66 361.029 491.66 360.12C491.66 359.665 491.66 359.21 491.66 358.756C492.115 358.756 492.569 358.756 493.024 358.756C493.479 358.756 493.706 358.983 493.706 359.438L494.388 364.211Z" fill="#F7C5B4"/>
<path d="M523.025 360.12C523.025 359.438 523.706 358.756 523.706 358.756C524.388 358.756 525.07 358.756 525.752 358.756C525.752 359.21 525.752 359.665 525.752 360.12C525.752 361.029 525.752 361.711 525.752 362.165C525.752 363.074 525.525 363.756 525.07 364.211C524.388 364.211 523.706 364.211 523.025 364.211C522.57 362.847 522.57 361.483 523.025 360.12Z" fill="#F7C5B4"/>
<path d="M499.159 345.8C499.841 347.846 499.841 350.573 499.159 352.619C498.25 354.892 496.886 356.937 495.067 358.755C495.067 359.437 494.386 360.119 493.704 359.437C493.25 359.437 493.022 359.21 493.022 358.755C491.658 354.664 492.34 350.573 494.386 347.164C494.386 344.436 495.068 341.709 497.113 339.663C498.477 337.618 501.205 336.254 503.932 335.572C505.296 335.572 506.659 335.572 508.023 335.572C509.387 335.572 510.069 335.572 511.432 335.572C512.796 335.572 513.478 335.572 514.842 335.572C516.887 334.89 518.933 335.572 519.615 337.618C520.297 337.618 520.297 338.3 520.979 338.981C521.433 339.436 522.115 339.663 523.024 339.663C525.07 340.345 526.433 341.709 526.433 344.436C526.433 344.436 526.433 344.664 526.433 345.118C526.433 352.619 518.251 351.255 515.523 350.573C512.796 349.664 510.296 348.3 508.023 346.482C507.341 347.164 508.023 347.846 508.023 347.846C507.568 348.3 507.114 348.755 506.659 349.209C506.205 349.209 505.75 349.209 505.295 349.209C503.932 348.755 502.795 348.3 501.886 347.846C500.522 347.391 499.613 346.709 499.159 345.8Z" fill="#3C3C3B"/>
<g style="mix-blend-mode:multiply">
<path d="M508.703 383.986C503.703 383.986 500.976 382.168 500.521 378.531C500.521 378.531 503.931 381.941 509.386 381.259C513.022 380.804 515.522 379.895 516.886 378.531C516.431 382.168 513.704 383.986 508.703 383.986Z" fill="#F7C5B4"/>
</g>
<path d="M522.344 350.574C522.344 349.21 523.026 348.528 523.707 348.528C524.162 348.528 524.39 348.528 524.39 348.528C524.844 348.983 525.071 349.21 525.071 349.21C526.435 351.938 525.753 354.665 525.071 357.392C525.071 357.847 525.071 358.302 525.071 358.756C524.617 358.756 524.39 358.756 524.39 358.756C523.935 358.756 523.707 358.529 523.707 358.074C522.344 356.029 521.662 353.301 522.344 350.574Z" fill="#3C3C3B"/>
<g style="mix-blend-mode:multiply" opacity="0.5">
<path d="M536.658 476.037C524.839 477.401 515.293 477.855 508.02 477.401C497.11 477.401 484.154 477.401 480.745 476.037C497.11 481.947 515.747 481.947 536.658 476.037Z" fill="#3B5CAD"/>
</g>
<path d="M502.567 362.849C502.567 363.531 501.885 364.213 500.521 364.213C499.839 364.213 499.157 363.531 499.157 362.849C499.157 362.167 499.839 361.485 500.521 361.485C501.885 361.485 502.567 362.167 502.567 362.849Z" fill="#3C3C3B"/>
<path d="M516.203 361.485C516.885 361.485 517.566 362.167 517.566 362.849C517.566 363.531 516.885 364.213 516.203 364.213C515.521 364.213 514.839 363.531 514.839 362.849C514.839 362.167 515.521 361.485 516.203 361.485Z" fill="#3C3C3B"/>
<path d="M508.703 362.164C508.249 363.528 508.022 364.891 508.022 366.255C508.022 366.71 508.022 367.392 508.022 368.301C508.022 368.301 508.703 368.301 509.385 368.983C508.703 368.983 507.34 368.983 507.34 368.301C507.34 366.937 507.34 366.937 507.34 366.255C507.34 364.891 507.567 363.528 508.022 362.164C508.022 362.164 508.249 362.164 508.703 362.164Z" fill="#DA806C"/>
<path d="M512.113 371.03C511.431 372.394 509.385 373.076 507.34 373.076C507.34 372.621 507.34 372.394 507.34 372.394C509.158 372.394 510.749 371.712 512.113 370.349C512.113 370.349 512.113 370.576 512.113 371.03Z" fill="#DA806C"/>
<path d="M504.611 361.481C501.883 359.435 500.519 358.753 498.474 358.072C498.019 358.072 497.792 358.072 497.792 358.072C498.247 357.617 498.928 357.39 499.837 357.39C501.201 357.39 502.338 357.844 503.247 358.753C503.701 358.753 503.929 358.753 503.929 358.753C503.929 358.753 503.929 358.981 503.929 359.435C504.383 359.435 504.611 359.435 504.611 359.435C505.292 359.435 505.292 360.799 504.611 361.481Z" fill="#3C3C3B"/>
<path d="M511.429 361.481C511.429 360.799 511.429 359.435 512.11 359.435C512.565 358.981 512.793 358.753 512.793 358.753C514.156 357.844 515.52 357.39 516.884 357.39C517.793 357.39 518.474 357.617 518.929 358.072C518.474 358.072 518.247 358.072 518.247 358.072C515.52 358.753 514.156 359.435 512.11 361.481C511.656 361.481 511.429 361.481 511.429 361.481Z" fill="#3C3C3B"/>
<path d="M569.393 433.761H448.021C443.879 433.761 440.521 437.119 440.521 441.261V503.992C440.521 508.135 443.879 511.493 448.021 511.493H569.393C573.535 511.493 576.893 508.135 576.893 503.992V441.261C576.893 437.119 573.535 433.761 569.393 433.761Z" fill="#E94552"/>
<path d="M576.893 459.673H440.521V445.354H576.893V459.673Z" fill="#3B5CAD"/>
<path d="M485.525 472.627H443.931V464.444H485.525V472.627Z" fill="white"/>
<path d="M511.434 472.627H491.66V464.444H511.434V472.627Z" fill="white"/>
<path d="M579.616 488.989C578.934 491.035 578.252 492.398 576.889 493.08C575.525 493.762 574.161 493.762 573.479 493.762C571.661 493.762 570.07 493.762 568.707 493.762C568.707 493.08 568.025 493.08 567.343 492.398C567.343 491.717 568.025 491.035 568.707 491.035C569.388 491.035 570.07 491.035 570.752 490.353C570.07 490.353 568.706 490.353 568.024 489.671C567.343 489.671 567.343 488.307 568.024 487.625C568.479 487.625 568.707 487.625 568.707 487.625C569.616 487.625 570.752 487.625 572.116 487.625C570.752 487.171 569.616 486.716 568.707 486.262C568.025 485.58 568.024 484.898 568.024 484.216C568.479 484.216 568.934 484.216 569.388 484.216C570.297 484.216 571.434 484.443 572.798 484.898C571.888 484.443 570.979 483.989 570.07 483.534C569.388 482.852 568.706 482.17 569.388 480.807C570.07 480.125 570.752 480.807 571.434 480.807C573.479 481.489 574.843 482.17 576.889 482.852V480.807V468.533L579.616 481.489C580.298 484.216 580.298 486.943 579.616 488.989Z" fill="#F7C5B4"/>
<path d="M449.383 493.08C449.383 493.08 448.701 493.762 448.019 493.762C446.655 493.762 445.291 493.989 443.928 494.444C442.564 494.444 441.2 493.762 439.837 493.762C438.473 492.398 437.791 491.035 437.109 488.989C436.427 486.943 436.427 484.216 437.109 481.489L440.518 468.533V480.807V482.852C441.882 482.17 443.928 481.489 445.291 480.807C445.973 480.807 447.337 480.807 447.337 481.489C448.019 482.171 447.337 482.852 446.655 483.534C445.746 483.989 444.837 484.443 443.928 484.898C445.291 484.898 446.655 484.671 448.019 484.216C448.019 484.216 448.246 484.216 448.701 484.216C449.383 484.898 448.701 485.58 448.019 486.262C447.11 487.171 446.201 487.625 445.291 487.625C446.201 487.625 447.11 487.625 448.019 487.625C448.474 487.625 448.701 487.625 448.701 487.625C449.383 488.307 449.383 489.671 448.701 490.353C448.019 490.353 447.337 490.353 445.974 490.353C446.655 491.035 447.337 491.035 448.019 491.035C448.701 491.035 449.383 492.398 449.383 493.08Z" fill="#F7C5B4"/>
<path d="M525.754 413.986C529.845 414.896 530.981 417.623 529.163 422.169C529.617 423.987 528.936 424.669 527.117 424.214C526.208 424.669 525.981 425.351 526.436 426.26C525.527 426.26 524.845 426.26 524.39 426.26C523.481 426.26 522.572 426.26 521.663 426.26C522.117 425.351 521.89 424.669 520.981 424.214C519.163 424.669 518.48 423.987 518.935 422.169C517.117 417.623 518.253 414.896 522.344 413.986C523.253 413.532 524.39 413.532 525.754 413.986Z" fill="white"/>
<path d="M525.07 419.442C525.07 419.442 525.297 419.214 525.752 418.76C525.752 418.76 525.98 418.76 526.434 418.76C526.889 419.214 527.116 419.442 527.116 419.442C527.57 419.442 527.798 419.442 527.798 419.442C528.253 419.896 528.48 420.351 528.48 420.805C528.48 420.805 528.253 421.033 527.798 421.487C527.798 421.942 527.57 422.169 527.116 422.169C526.434 422.169 525.752 422.169 525.752 421.487C525.297 421.033 524.843 420.578 524.389 420.124C524.389 419.669 524.616 419.442 525.07 419.442Z" fill="#003A70"/>
<path d="M523.705 420.124C523.251 421.033 522.796 421.487 522.341 421.487C521.66 422.169 520.978 422.169 520.296 421.487C519.841 421.487 519.614 421.26 519.614 420.805C519.614 420.805 519.614 420.578 519.614 420.124C519.614 419.669 519.841 419.442 520.296 419.442C520.296 418.987 520.523 418.76 520.978 418.76C521.433 418.76 521.66 418.76 521.66 418.76C522.114 418.76 522.569 418.987 523.024 419.442C523.024 419.442 523.251 419.669 523.705 420.124Z" fill="#003A70"/>
<path d="M524.392 420.804C524.392 421.258 524.392 421.486 524.392 421.486C524.392 421.486 524.619 421.713 525.074 422.167C525.074 422.622 525.074 422.849 525.074 422.849C524.619 422.849 524.392 422.849 524.392 422.849C524.392 422.849 524.165 422.849 523.71 422.849C523.71 422.849 523.71 422.622 523.71 422.167C523.71 421.713 523.71 421.486 523.71 421.486C523.71 421.031 523.937 420.804 524.392 420.804Z" fill="#003A70"/>
<g style="mix-blend-mode:multiply">
<path d="M602.799 248.983V259.893V308.987C602.799 315.805 597.344 321.942 589.843 321.942H415.287C408.468 321.942 402.331 315.805 402.331 308.987V259.893V248.983C402.331 242.164 408.468 236.027 415.287 236.027H589.843C597.344 236.027 602.799 242.164 602.799 248.983Z" fill="#C7D4E2"/>
</g>
<path d="M397.559 257.162V246.252C397.559 238.752 403.696 233.297 410.514 233.297H585.071C592.571 233.297 598.026 238.752 598.026 246.252V257.162H397.559Z" fill="#407CCA"/>
<path d="M598.026 257.162V305.574C598.026 313.075 592.571 318.53 585.071 318.53H410.514C403.696 318.53 397.559 313.075 397.559 305.574V257.162H598.026Z" fill="white"/>
<path d="M446.651 281.027H450.06L449.378 286.482L454.833 283.073L456.197 285.8L450.742 288.528L456.197 291.937L454.833 294.665L449.378 290.573L450.06 296.71H446.651L447.332 290.573L442.56 294.665L440.514 291.255L445.969 288.528L440.514 286.482L442.56 283.073L447.332 287.164L446.651 281.027Z" fill="#407CCA"/>
<path d="M471.881 281.027H475.972L475.29 286.482L480.063 283.073L482.109 285.8L475.972 288.528L482.109 291.937L480.063 294.665L475.29 290.573L475.972 296.71H471.881L472.563 290.573L467.79 294.665L466.426 291.255L471.881 288.528L465.744 286.482L467.79 283.073L472.563 287.164L471.881 281.027Z" fill="#407CCA"/>
<path d="M497.79 281.027H501.2L500.518 286.482L505.291 283.073L507.336 285.8L501.881 288.528L507.336 291.937L505.291 294.665L500.518 290.573L501.2 296.71H497.79L498.472 290.573L493.699 294.665L491.653 291.255L497.109 288.528L491.653 286.482L493.017 283.073L498.472 287.164L497.79 281.027Z" fill="#407CCA"/>
<path d="M523.021 281.027H526.43V286.482L531.203 283.073L532.567 285.8L527.112 288.528L532.567 291.937L531.203 294.665L526.43 290.573V296.71H523.021L523.702 290.573L518.929 294.665L516.884 291.255L522.339 288.528L516.884 286.482L518.929 283.073L523.702 287.164L523.021 281.027Z" fill="#407CCA"/>
<path d="M548.93 281.027H552.339L551.658 286.482L556.43 283.073L558.476 285.8L553.021 288.528L558.476 291.937L556.43 294.665L551.658 290.573L552.339 296.71H548.93L549.612 290.573L544.157 294.665L542.793 291.255L548.248 288.528L542.793 286.482L544.157 283.073L549.612 287.164L548.93 281.027Z" fill="#407CCA"/>
<g style="mix-blend-mode:multiply">
<path d="M220.276 377.168H12.3075C7.41192 377.168 3.44336 381.137 3.44336 386.032V459.673C3.44336 464.569 7.41192 468.537 12.3075 468.537H220.276C225.171 468.537 229.14 464.569 229.14 459.673V386.032C229.14 381.137 225.171 377.168 220.276 377.168Z" fill="#C7D4E2"/>
</g>
<path d="M216.865 380.578H8.89733C4.00176 380.578 0.0332031 384.547 0.0332031 389.442V459.674C0.0332031 464.57 4.00176 468.538 8.89733 468.538H216.865C221.761 468.538 225.729 464.57 225.729 459.674V389.442C225.729 384.547 221.761 380.578 216.865 380.578Z" fill="white"/>
<path d="M14.3506 450.131C17.7599 440.585 25.9422 431.039 41.6251 431.039C57.9898 431.039 65.4905 440.585 69.5817 450.131H14.3506Z" fill="#407CCA"/>
<path d="M41.6221 426.945C48.7772 426.945 54.5777 421.145 54.5777 413.99C54.5777 406.834 48.7772 401.034 41.6221 401.034C34.4671 401.034 28.667 406.834 28.667 413.99C28.667 421.145 34.4671 426.945 41.6221 426.945Z" fill="#407CCA"/>
<path d="M216.185 413.986H76.4033V411.94H216.185V413.986Z" fill="#407CCA"/>
<path d="M216.185 422.849H76.4033V420.804H216.185V422.849Z" fill="#407CCA"/>
<path d="M216.185 431.714H76.4033V428.986H216.185V431.714Z" fill="#407CCA"/>
<path d="M150.044 439.895H76.4033V437.85H150.044V439.895Z" fill="#407CCA"/>
<path d="M216.185 413.986H76.4033V411.94H216.185V413.986Z" fill="#407CCA"/>
<path d="M216.185 422.849H76.4033V420.804H216.185V422.849Z" fill="#407CCA"/>
<path d="M216.185 431.714H76.4033V428.986H216.185V431.714Z" fill="#407CCA"/>
<path d="M150.044 439.895H76.4033V437.85H150.044V439.895Z" fill="#407CCA"/>
<defs>
<linearGradient id="paint0_linear_1061_1946" x1="548.25" y1="196.473" x2="701.669" y2="540.132" gradientUnits="userSpaceOnUse">
<stop stop-color="white"/>
<stop offset="1" stop-color="#C1DEF2"/>
</linearGradient>
</defs>
</svg>
