<svg width="8" height="16" viewBox="0 0 8 16" fill="none" xmlns="http://www.w3.org/2000/svg">
<path d="M2.27133 8.93587C2.21733 8.93587 1.02933 8.93587 0.489328 8.93587C0.201328 8.93587 0.111328 8.82787 0.111328 8.55787C0.111328 7.83787 0.111328 7.09987 0.111328 6.37987C0.111328 6.09187 0.219328 6.00187 0.489328 6.00187H2.27133C2.27133 5.94787 2.27133 4.90387 2.27133 4.41787C2.27133 3.69787 2.39733 3.01387 2.75733 2.38387C3.13533 1.73587 3.67533 1.30387 4.35933 1.05187C4.80933 0.889871 5.25933 0.817871 5.74533 0.817871H7.50933C7.76133 0.817871 7.86933 0.925871 7.86933 1.17787V3.22987C7.86933 3.48187 7.76133 3.58987 7.50933 3.58987C7.02333 3.58987 6.53733 3.58987 6.05133 3.60787C5.56533 3.60787 5.31333 3.84187 5.31333 4.34587C5.29533 4.88587 5.31333 5.40787 5.31333 5.96587H7.40133C7.68933 5.96587 7.79733 6.07387 7.79733 6.36187V8.53987C7.79733 8.82787 7.70733 8.91787 7.40133 8.91787C6.75333 8.91787 5.36733 8.91787 5.31333 8.91787V14.7859C5.31333 15.0919 5.22333 15.1999 4.89933 15.1999C4.14333 15.1999 3.40533 15.1999 2.64933 15.1999C2.37933 15.1999 2.27133 15.0919 2.27133 14.8219C2.27133 12.9319 2.27133 8.98987 2.27133 8.93587Z" fill="#FEFFFE"/>
</svg>
