<svg width="16" height="16" viewBox="0 0 16 16" fill="none" xmlns="http://www.w3.org/2000/svg">
<path d="M15.2005 15.2V9.926C15.2005 7.334 14.6425 5.354 11.6185 5.354C10.1605 5.354 9.18853 6.146 8.79253 6.902H8.75653V5.588H5.89453V15.2H8.88253V10.43C8.88253 9.17 9.11653 7.964 10.6645 7.964C12.1945 7.964 12.2125 9.386 12.2125 10.502V15.182H15.2005V15.2Z" fill="#FEFFFE"/>
<path d="M1.03516 5.58789H4.02316V15.1999H1.03516V5.58789Z" fill="#FEFFFE"/>
<path d="M2.52878 0.799805C1.57478 0.799805 0.800781 1.57381 0.800781 2.52781C0.800781 3.48181 1.57478 4.27381 2.52878 4.27381C3.48279 4.27381 4.25679 3.48181 4.25679 2.52781C4.25679 1.57381 3.48279 0.799805 2.52878 0.799805Z" fill="#FEFFFE"/>
</svg>
