<svg width="711" height="652" viewBox="0 0 711 652" fill="none" xmlns="http://www.w3.org/2000/svg">
<g clip-path="url(#clip0_1036_1123)">
<g style="mix-blend-mode:multiply" opacity="0.7">
<path d="M478.944 594.529C601.019 594.529 699.981 588.435 699.981 580.917C699.981 573.399 601.019 567.305 478.944 567.305C356.868 567.305 257.906 573.399 257.906 580.917C257.906 588.435 356.868 594.529 478.944 594.529Z" fill="#C7D4E2"/>
</g>
<g style="mix-blend-mode:multiply" opacity="0.7">
<path d="M233.923 611.384C363.159 611.384 467.925 605.289 467.925 597.771C467.925 590.254 363.159 584.159 233.923 584.159C104.688 584.159 -0.078125 590.254 -0.078125 597.771C-0.078125 605.289 104.688 611.384 233.923 611.384Z" fill="#C7D4E2"/>
</g>
<path d="M464.555 261.354H72.392C60.9362 261.354 51.6494 270.641 51.6494 282.097V575.085C51.6494 586.541 60.9362 595.828 72.392 595.828H464.555C476.011 595.828 485.298 586.541 485.298 575.085V282.097C485.298 270.641 476.011 261.354 464.555 261.354Z" fill="#A7BBE4"/>
<path d="M451.594 276.262H94.434C86.5581 276.262 80.1738 282.646 80.1738 290.522V566.657C80.1738 574.533 86.5581 580.917 94.434 580.917H451.594C459.47 580.917 465.855 574.533 465.855 566.657V290.522C465.855 282.646 459.47 276.262 451.594 276.262Z" fill="url(#paint0_linear_1036_1123)"/>
<path d="M65.2619 440.907C69.1998 440.907 72.3924 437.715 72.3924 433.777C72.3924 429.839 69.1998 426.646 65.2619 426.646C61.324 426.646 58.1318 429.839 58.1318 433.777C58.1318 437.715 61.324 440.907 65.2619 440.907Z" fill="#6F95D4"/>
<path d="M316.115 497.303H225.366V416.278H316.115V497.303Z" fill="#3B5CAD"/>
<path d="M235.089 398.775C235.089 379.329 251.294 363.124 270.74 363.124C290.186 363.124 306.391 379.329 306.391 398.775V416.277" stroke="#3B5CAD" stroke-width="0.9"/>
<path d="M255.831 497.303H233.792V416.278H255.831V497.303Z" fill="#407CCA"/>
<path d="M270.739 476.56C276.825 476.56 281.759 471.627 281.759 465.541C281.759 459.455 276.825 454.521 270.739 454.521C264.653 454.521 259.72 459.455 259.72 465.541C259.72 471.627 264.653 476.56 270.739 476.56Z" fill="#003A70"/>
<path d="M270.738 455.816C275.034 455.816 278.517 452.334 278.517 448.038C278.517 443.742 275.034 440.259 270.738 440.259C266.443 440.259 262.96 443.742 262.96 448.038C262.96 452.334 266.443 455.816 270.738 455.816Z" fill="#003A70"/>
<path d="M142.399 392.291H91.8389V390.347H142.399V392.291Z" fill="#407CCA"/>
<path d="M142.399 398.774H91.8389V397.478H142.399V398.774Z" fill="#407CCA"/>
<path d="M142.399 405.256H91.8389V403.959H142.399V405.256Z" fill="#407CCA"/>
<path d="M118.415 411.738H91.8389V410.442H118.415V411.738Z" fill="#407CCA"/>
<path d="M448.997 445.446H343.34V443.501H448.997V445.446Z" fill="#407CCA"/>
<path d="M448.997 451.928H343.34V450.632H448.997V451.928Z" fill="#407CCA"/>
<path d="M448.997 458.41H343.34V457.113H448.997V458.41Z" fill="#407CCA"/>
<path d="M449.645 464.892H343.34V462.947H449.645V464.892Z" fill="#407CCA"/>
<path opacity="0.9" d="M351.766 439.611H343.34V430.537H351.766V439.611Z" fill="#E94552"/>
<path d="M448.997 489.522H343.34V487.577H448.997V489.522Z" fill="#407CCA"/>
<path d="M448.997 496.004H343.34V494.708H448.997V496.004Z" fill="#407CCA"/>
<path d="M448.997 502.487H343.34V501.19H448.997V502.487Z" fill="#407CCA"/>
<path d="M449.645 508.967H343.34V507.022H449.645V508.967Z" fill="#407CCA"/>
<path opacity="0.9" d="M351.766 483.688H343.34V474.613H351.766V483.688Z" fill="#E94552"/>
<g style="mix-blend-mode:multiply">
<path d="M178.699 305.432H22.4816C18.5437 305.432 15.3516 308.624 15.3516 312.562V367.659C15.3516 371.597 18.5437 374.789 22.4816 374.789H178.699C182.636 374.789 185.829 371.597 185.829 367.659V312.562C185.829 308.624 182.636 305.432 178.699 305.432Z" fill="#C7D4E2"/>
</g>
<path d="M176.104 308.024H19.8869C15.949 308.024 12.7568 311.216 12.7568 315.154V367.01C12.7568 370.948 15.949 374.141 19.8869 374.141H176.104C180.042 374.141 183.234 370.948 183.234 367.01V315.154C183.234 311.216 180.042 308.024 176.104 308.024Z" fill="white"/>
<path d="M23.7773 360.528C26.3702 353.398 32.2041 346.268 44.5199 346.268C56.8358 346.268 62.6693 353.398 65.2621 360.528H23.7773Z" fill="#407CCA"/>
<path d="M44.5209 343.027C49.8908 343.027 54.244 338.674 54.244 333.304C54.244 327.934 49.8908 323.581 44.5209 323.581C39.151 323.581 34.7979 327.934 34.7979 333.304C34.7979 338.674 39.151 343.027 44.5209 343.027Z" fill="#407CCA"/>
<path d="M176.104 333.305H71.0947V331.36H176.104V333.305Z" fill="#407CCA"/>
<path d="M176.104 339.787H71.0947V338.491H176.104V339.787Z" fill="#407CCA"/>
<path d="M176.104 346.269H71.0947V344.973H176.104V346.269Z" fill="#407CCA"/>
<path d="M126.192 352.752H71.0947V351.456H126.192V352.752Z" fill="#407CCA"/>
<path d="M176.104 333.305H71.0947V331.36H176.104V333.305Z" fill="#407CCA"/>
<path d="M176.104 339.787H71.0947V338.491H176.104V339.787Z" fill="#407CCA"/>
<path d="M176.104 346.269H71.0947V344.973H176.104V346.269Z" fill="#407CCA"/>
<path d="M126.192 352.752H71.0947V351.456H126.192V352.752Z" fill="#407CCA"/>
<path d="M327.136 379.975L331.025 383.864C336.643 376.95 344.205 373.709 353.712 374.141C363.219 374.573 370.565 377.814 375.751 383.864L379.64 379.975C363.651 363.554 346.15 363.554 327.136 379.975Z" fill="#6F95D4"/>
<path d="M373.156 386.456L369.267 390.345C356.735 381.27 346.364 381.27 338.153 390.345L334.264 386.456C348.524 374.788 361.488 374.788 373.156 386.456Z" fill="#6F95D4"/>
<path d="M340.746 392.94C349.821 386.026 358.248 386.026 366.026 392.94L361.489 397.477C356.303 391.86 350.901 391.86 345.284 397.477L340.746 392.94Z" fill="#6F95D4"/>
<path d="M358.248 403.309C358.248 405.902 356.304 407.846 353.711 407.846C351.118 407.846 348.525 405.902 348.525 403.309C348.525 400.716 351.118 398.771 353.711 398.771C356.304 398.771 358.248 400.716 358.248 403.309Z" fill="#6F95D4"/>
<path d="M373.81 537.488H268.153V535.544H373.81V537.488Z" fill="#407CCA"/>
<path d="M373.81 543.971H268.153V542.026H373.81V543.971Z" fill="#407CCA"/>
<path d="M373.81 550.453H268.153V548.509H373.81V550.453Z" fill="#407CCA"/>
<path d="M374.458 556.934H268.153V554.989H374.458V556.934Z" fill="#407CCA"/>
<path d="M243.52 561.473C252.111 561.473 259.077 554.508 259.077 545.916C259.077 537.325 252.111 530.359 243.52 530.359C234.928 530.359 227.963 537.325 227.963 545.916C227.963 554.508 234.928 561.473 243.52 561.473Z" stroke="#E94552" stroke-width="0.5"/>
<path d="M255.189 534.898L232.502 556.937" stroke="#E94552" stroke-width="0.5"/>
<path d="M373.161 523.229H226.019C220.649 523.229 216.296 527.582 216.296 532.952V558.88C216.296 564.25 220.649 568.603 226.019 568.603H373.161C378.531 568.603 382.884 564.25 382.884 558.88V532.952C382.884 527.582 378.531 523.229 373.161 523.229Z" stroke="#407CCA" stroke-width="0.4"/>
<g style="mix-blend-mode:multiply">
<path d="M348.007 104.488H224.2C220.262 104.488 217.07 107.681 217.07 111.619V280.8C217.07 284.737 220.262 287.93 224.2 287.93H348.007C351.945 287.93 355.138 284.737 355.138 280.8V111.619C355.138 107.681 351.945 104.488 348.007 104.488Z" fill="#C7D4E2"/>
</g>
<path d="M345.413 106.432H226.144C222.206 106.432 219.014 109.624 219.014 113.562V277.557C219.014 281.495 222.206 284.688 226.144 284.688H345.413C349.351 284.688 352.543 281.495 352.543 277.557V113.562C352.543 109.624 349.351 106.432 345.413 106.432Z" fill="white"/>
<path d="M342.171 135.602H235.218V134.306H342.171V135.602Z" fill="#407CCA"/>
<path d="M342.171 142.085H235.218V140.789H342.171V142.085Z" fill="#407CCA"/>
<path d="M342.171 147.918H235.218V146.622H342.171V147.918Z" fill="#407CCA"/>
<path d="M291.612 154.399H235.218V152.455H291.612V154.399Z" fill="#407CCA"/>
<path d="M342.171 167.363H235.218V165.418H342.171V167.363Z" fill="#407CCA"/>
<path d="M342.171 173.845H235.218V171.901H342.171V173.845Z" fill="#407CCA"/>
<path d="M342.171 179.679H235.218V177.734H342.171V179.679Z" fill="#407CCA"/>
<path d="M342.171 185.512H235.218V184.215H342.171V185.512Z" fill="#407CCA"/>
<path d="M342.825 231.535H235.871V229.59H342.825V231.535Z" fill="#407CCA"/>
<path d="M342.825 238.017H235.871V236.073H342.825V238.017Z" fill="#407CCA"/>
<path d="M342.825 243.85H235.871V241.906H342.825V243.85Z" fill="#407CCA"/>
<path d="M342.825 249.684H235.871V248.387H342.825V249.684Z" fill="#407CCA"/>
<path d="M342.171 199.774H235.218V197.83H342.171V199.774Z" fill="#407CCA"/>
<path d="M342.171 206.257H235.218V204.312H342.171V206.257Z" fill="#407CCA"/>
<path d="M342.171 212.09H235.218V210.145H342.171V212.09Z" fill="#407CCA"/>
<path d="M289.667 217.923H235.218V216.626H289.667V217.923Z" fill="#407CCA"/>
<path d="M286.425 223.11C304.683 223.11 319.484 208.31 319.484 190.052C319.484 171.794 304.683 156.994 286.425 156.994C268.168 156.994 253.367 171.794 253.367 190.052C253.367 208.31 268.168 223.11 286.425 223.11Z" fill="#E94552"/>
<path d="M285.131 168.011L305.225 193.939H293.557V211.44H277.352V193.939H265.685L285.131 168.011Z" fill="white"/>
<path d="M625.436 134.306H326.614C314.801 134.306 305.224 143.883 305.224 155.697V555.639C305.224 567.452 314.801 577.029 326.614 577.029H625.436C637.25 577.029 646.827 567.452 646.827 555.639V155.697C646.827 143.883 637.25 134.306 625.436 134.306Z" fill="#A7BBE4"/>
<path d="M616.36 153.752H335.039C326.806 153.752 320.131 160.427 320.131 168.661V532.303C320.131 540.537 326.806 547.212 335.039 547.212H616.36C624.594 547.212 631.269 540.537 631.269 532.303V168.661C631.269 160.427 624.594 153.752 616.36 153.752Z" fill="url(#paint1_linear_1036_1123)"/>
<path d="M481.535 570.547C485.831 570.547 489.314 567.064 489.314 562.769C489.314 558.473 485.831 554.99 481.535 554.99C477.239 554.99 473.757 558.473 473.757 562.769C473.757 567.064 477.239 570.547 481.535 570.547Z" fill="#6F95D4"/>
<path d="M386.897 214.035C407.207 214.035 416.93 225.918 416.066 249.686H357.728C356.863 225.918 366.587 214.035 386.897 214.035Z" fill="#407CCA"/>
<path d="M386.898 207.554C395.49 207.554 402.455 200.589 402.455 191.997C402.455 183.405 395.49 176.44 386.898 176.44C378.307 176.44 371.342 183.405 371.342 191.997C371.342 200.589 378.307 207.554 386.898 207.554Z" fill="#407CCA"/>
<path d="M488.015 262.003H357.726V257.465H488.015V262.003Z" fill="#407CCA"/>
<path d="M488.015 273.024H357.726V268.486H488.015V273.024Z" fill="#407CCA"/>
<path d="M488.015 284.69H357.726V280.152H488.015V284.69Z" fill="#407CCA"/>
<path d="M488.015 297.654H357.726V293.117H488.015V297.654Z" fill="#407CCA"/>
<path d="M597.565 490.171H466.628V484.985H597.565V490.171Z" fill="#407CCA"/>
<path d="M597.565 501.189H466.628V496.651H597.565V501.189Z" fill="#407CCA"/>
<path d="M597.565 512.859H466.628V508.321H597.565V512.859Z" fill="#407CCA"/>
<path d="M597.565 525.174H466.628V520.637H597.565V525.174Z" fill="#407CCA"/>
<path d="M551.538 328.117C563.638 404.606 540.303 450.196 481.532 464.889C477.643 465.753 474.834 465.753 473.106 464.889C415.631 445.01 392.296 399.42 403.099 328.117C431.188 333.303 455.82 328.55 476.995 313.857C498.169 328.55 523.017 333.303 551.538 328.117Z" fill="#407CCA"/>
<path d="M539.225 338.488C549.597 402.012 530.15 440.04 480.887 452.572C477.862 453.004 475.485 453.004 473.757 452.572C425.79 436.151 406.344 398.123 415.419 338.488C438.754 342.81 459.28 338.704 476.998 326.172C494.715 338.704 515.458 342.81 539.225 338.488Z" fill="white"/>
<path d="M533.391 343.025C542.898 400.931 525.18 435.502 480.238 446.737C477.645 447.169 475.484 447.169 473.756 446.737C430.542 431.613 413.041 397.042 421.252 343.025C442.426 346.914 461.008 343.241 476.997 332.005C493.418 343.241 512.216 346.914 533.391 343.025Z" fill="#3B5CAD"/>
<path d="M478.293 442.201C477.428 442.201 476.348 441.985 475.052 441.553C433.999 431.614 417.577 400.068 425.788 346.915C445.234 350.372 462.304 346.915 476.996 336.544L478.293 442.201Z" fill="#407CCA"/>
<path d="M495.145 378.677H461.439C457.501 378.677 454.309 381.87 454.309 385.808V413.032C454.309 416.97 457.501 420.162 461.439 420.162H495.145C499.083 420.162 502.276 416.97 502.276 413.032V385.808C502.276 381.87 499.083 378.677 495.145 378.677Z" fill="white"/>
<path d="M464.677 369.604C464.677 359.881 469.863 353.399 479.586 354.047C491.253 354.479 495.791 363.554 493.198 381.271" stroke="white" stroke-width="0.6"/>
<path d="M481.531 402.013V409.792H474.4V402.013C472.456 400.717 471.159 398.772 471.159 396.18C471.159 392.29 474.4 389.049 478.29 389.049C482.179 389.049 485.42 392.29 485.42 396.18C485.42 398.772 483.475 401.365 481.531 402.013Z" fill="#3B5CAD"/>
<g style="mix-blend-mode:multiply">
<path d="M314.951 409.794C340.727 409.794 361.622 388.899 361.622 363.123C361.622 337.348 340.727 316.453 314.951 316.453C289.176 316.453 268.28 337.348 268.28 363.123C268.28 388.899 289.176 409.794 314.951 409.794Z" fill="#C7D4E2"/>
</g>
<path d="M312.357 408.499C337.416 408.499 357.731 388.184 357.731 363.124C357.731 338.065 337.416 317.75 312.357 317.75C287.297 317.75 266.982 338.065 266.982 363.124C266.982 388.184 287.297 408.499 312.357 408.499Z" fill="#E94552"/>
<path d="M304.576 330.066H322.077L318.188 378.033H307.169L304.576 330.066Z" fill="white"/>
<path d="M311.706 396.182C315.644 396.182 318.836 392.99 318.836 389.052C318.836 385.114 315.644 381.922 311.706 381.922C307.768 381.922 304.576 385.114 304.576 389.052C304.576 392.99 307.768 396.182 311.706 396.182Z" fill="white"/>
<path d="M256.609 361.827H239.756" stroke="#E94552" stroke-width="0.5"/>
<path d="M259.849 342.379L244.94 334.601" stroke="#E94552" stroke-width="0.5"/>
<path d="M274.11 328.12L265.684 313.211" stroke="#E94552" stroke-width="0.5"/>
<path d="M259.848 381.273L244.939 389.051" stroke="#E94552" stroke-width="0.5"/>
<path d="M272.163 398.127L264.385 413.036" stroke="#E94552" stroke-width="0.5"/>
<path d="M677.943 40.3167C608.801 77.4804 571.205 101.464 565.155 112.267C562.562 111.835 561.698 110.755 562.562 109.026C588.058 83.5301 626.518 60.411 677.943 39.6685C678.807 39.6685 678.807 39.8846 677.943 40.3167Z" fill="#3B5CAD"/>
<path d="M677.941 40.3174C685.719 99.3039 682.478 177.737 668.218 234.778" stroke="#C7D4E2" stroke-width="0.4"/>
<path d="M622.844 114.859H495.796C492.555 114.859 489.962 113.563 488.666 110.97C484.776 104.488 482.183 95.4129 484.128 88.9308C486.073 81.1524 492.555 74.6703 500.982 72.0775C499.685 59.7616 508.76 47.4457 521.076 44.8529C533.392 42.2601 546.356 48.094 553.486 59.1134C554.134 60.4098 555.431 63.0025 557.375 63.6507C559.32 64.299 561.913 63.0027 563.857 62.3545C572.284 58.4652 582.007 59.1133 589.786 63.6507C597.564 68.8364 602.749 77.263 603.398 86.3379C609.88 83.7451 618.306 85.0415 623.492 89.5789C628.677 94.7645 630.622 102.543 628.678 109.673C627.814 113.13 625.869 114.859 622.844 114.859Z" fill="#6F95D4"/>
<g style="mix-blend-mode:multiply" opacity="0.8">
<path d="M552.843 123.287C566.804 123.287 578.122 111.969 578.122 98.0074C578.122 84.0457 566.804 72.7275 552.843 72.7275C538.881 72.7275 527.562 84.0457 527.562 98.0074C527.562 111.969 538.881 123.287 552.843 123.287Z" fill="#407CCA"/>
</g>
<path d="M550.247 122.638C564.209 122.638 575.528 111.32 575.528 97.3585C575.528 83.3968 564.209 72.0786 550.247 72.0786C536.286 72.0786 524.968 83.3968 524.968 97.3585C524.968 111.32 536.286 122.638 550.247 122.638Z" fill="#E94552"/>
<path d="M563.862 86.9858L547.656 108.377L539.229 101.246" stroke="white" stroke-width="0.6"/>
<path d="M351.889 461V438.313V415.625H367.445V420.811L403.097 420.163V456.462C403.097 460.351 399.856 463.593 395.966 463.593H351.889V461Z" fill="#407CCA"/>
<path d="M389.488 446.091H359.022V411.736H389.488V446.091Z" fill="white"/>
<path d="M344.761 463.593V439.609H360.966V428.59H399.21V463.593" fill="#3B5CAD"/>
<path d="M403.101 428.59V460.352C403.101 462.296 401.156 463.593 399.212 463.593C397.267 463.593 395.971 462.296 395.971 460.352V428.59H403.101Z" fill="#407CCA"/>
<path d="M387.54 417.569H361.612V416.92H387.54V417.569Z" fill="#407CCA"/>
<path d="M387.54 420.16H361.612V418.864H387.54V420.16Z" fill="#407CCA"/>
<path d="M387.54 422.107H361.612V421.459H387.54V422.107Z" fill="#407CCA"/>
<path d="M373.28 424.7H361.612V424.051H373.28V424.7Z" fill="#407CCA"/>
<path d="M351.243 526.469V503.782V481.095H367.448V486.28H403.099V521.931C403.099 525.821 399.859 529.062 395.969 529.062H351.243V526.469Z" fill="#407CCA"/>
<path d="M389.488 511.56H359.022V477.205H389.488V511.56Z" fill="white"/>
<path d="M344.761 529.063V505.079H360.966V494.708H399.21V529.063" fill="#3B5CAD"/>
<path d="M403.101 494.708V525.822C403.101 527.767 401.156 529.063 399.212 529.063C397.267 529.063 395.971 527.767 395.971 525.822V494.708H403.101Z" fill="#407CCA"/>
<path d="M387.542 483.038H360.966V482.39H387.542V483.038Z" fill="#407CCA"/>
<path d="M387.542 485.629H360.966V484.333H387.542V485.629Z" fill="#407CCA"/>
<path d="M387.542 487.577H360.966V486.929H387.542V487.577Z" fill="#407CCA"/>
<path d="M373.282 490.169H360.966V489.521H373.282V490.169Z" fill="#407CCA"/>
<path d="M613.119 249.685H433.566V175.142H613.119V249.685Z" stroke="#407CCA" stroke-width="0.4"/>
<path d="M588.486 204.312H458.197V202.368H588.486V204.312Z" fill="#407CCA"/>
<path d="M588.486 212.088H458.197V210.144H588.486V212.088Z" fill="#407CCA"/>
<path d="M588.486 219.219H458.197V217.275H588.486V219.219Z" fill="#407CCA"/>
<path d="M588.486 226.35H458.197V224.406H588.486V226.35Z" fill="#407CCA"/>
<path d="M590.43 208.199C597.232 208.199 602.746 202.685 602.746 195.883C602.746 189.081 597.232 183.567 590.43 183.567C583.628 183.567 578.114 189.081 578.114 195.883C578.114 202.685 583.628 208.199 590.43 208.199Z" fill="#E94552"/>
<path d="M587.19 189.4L589.134 191.993C589.566 192.857 589.999 193.721 590.431 194.585C590.863 193.721 591.295 192.857 591.727 191.993L593.672 189.4H596.265L591.727 195.882L596.913 202.364H593.672L591.727 199.771C591.295 198.907 590.863 198.042 590.431 197.178C589.999 198.042 589.566 198.907 589.134 199.771L587.19 202.364H584.597L589.134 195.882L584.597 189.4H587.19Z" fill="white"/>
<path d="M669.512 397.476L675.994 413.033H657.844L655.899 409.144C656.332 403.958 658.276 400.501 661.733 398.773C665.623 397.044 668.216 396.612 669.512 397.476Z" fill="#F7C5B4"/>
<path d="M588.488 398.773C591.945 400.501 593.89 403.958 594.322 409.144L592.377 413.033H574.228L580.71 397.476C582.006 396.612 584.599 397.044 588.488 398.773Z" fill="#F7C5B4"/>
<path d="M658.495 598.419H646.828L646.179 591.289C644.883 565.361 639.697 538.136 633.863 512.856C631.919 505.078 628.03 492.114 626.085 484.336L624.14 490.818C621.548 498.164 619.387 505.726 617.658 513.505C611.825 538.785 607.287 566.009 605.991 591.289L605.342 598.419H593.675C588.489 561.472 589.786 521.931 589.786 513.505C589.786 492.114 593.027 470.723 600.157 450.629C612.689 452.357 624.788 452.79 636.456 451.925L651.365 450.629C658.495 470.723 661.736 492.114 661.736 513.505C661.736 521.931 663.681 561.472 658.495 598.419Z" fill="#3B5CAD"/>
<path d="M658.492 598.418C662.381 600.363 667.567 603.604 670.808 606.196C671.456 606.845 672.752 608.141 672.104 609.438C672.104 610.734 670.808 611.382 669.511 611.382C667.567 612.03 665.622 612.03 663.677 612.03C659.14 611.382 654.603 611.382 650.065 609.438C648.769 609.005 647.904 608.573 647.472 608.141C646.176 606.845 646.176 604.9 646.176 603.604C646.608 601.875 646.824 600.147 646.824 598.418" fill="#003A70"/>
<path d="M605.34 598.418C605.34 600.147 605.34 601.875 605.34 603.604C605.34 604.9 605.34 606.845 604.692 608.141C603.828 608.573 602.964 609.005 602.099 609.438C597.562 611.382 593.025 611.382 588.487 612.03C586.543 612.03 584.598 612.03 582.653 611.382C581.357 611.382 580.06 610.734 579.412 609.438C579.412 608.141 580.708 606.845 581.357 606.196C584.598 603.604 589.783 600.363 593.673 598.418" fill="#003A70"/>
<path d="M672.108 610.088C667.57 611.384 663.033 610.736 659.144 610.736C656.983 610.304 654.822 609.871 652.662 609.439C651.365 609.007 650.285 608.575 649.421 608.143C648.772 608.143 648.125 608.143 648.125 607.495L646.828 606.198L648.125 607.495C648.773 607.495 648.772 607.495 649.421 608.143C650.285 608.575 651.365 608.791 652.662 608.791C654.822 609.223 656.983 609.655 659.144 610.088C663.033 610.088 667.57 610.736 672.108 610.088Z" fill="#407CCA"/>
<path d="M580.057 610.088C584.594 610.736 588.483 610.088 593.021 610.088C595.181 609.655 597.126 609.223 598.854 608.791C600.151 608.791 601.447 608.791 602.095 608.143C602.744 607.495 604.04 607.495 604.688 606.198C605.12 606.63 605.12 606.846 604.688 606.846C604.04 607.495 603.392 608.143 602.095 608.791C601.447 608.791 600.151 609.439 598.854 609.439C597.126 609.871 595.181 610.304 593.021 610.736C588.483 610.736 584.594 611.384 580.057 610.088Z" fill="#407CCA"/>
<path d="M644.234 451.926C644.882 457.759 649.42 462.945 655.254 465.538C655.686 465.538 655.902 465.538 655.902 465.538C655.469 465.97 655.254 466.186 655.254 466.186C648.771 464.241 644.234 458.408 643.586 451.926C643.586 451.926 643.586 451.709 643.586 451.277C644.018 451.277 644.234 451.493 644.234 451.926Z" fill="#407CCA"/>
<path d="M608.578 451.926C607.282 458.408 602.745 464.241 596.911 466.186C596.479 466.186 596.263 465.97 596.263 465.538C602.097 462.945 606.634 457.759 607.93 451.926C607.93 451.493 607.93 451.277 607.93 451.277C608.362 451.709 608.578 451.926 608.578 451.926Z" fill="#407CCA"/>
<path d="M597.563 400.069C595.835 404.823 594.754 407.847 594.322 409.144L593.026 407.199C590.433 404.606 583.303 400.069 580.71 398.124C589.785 375.437 594.97 376.085 600.156 375.437C602.749 374.789 605.342 374.141 608.583 373.493C619.386 371.764 633.215 372.412 650.068 375.437C655.253 376.085 660.439 375.437 669.514 397.476C666.921 400.069 659.791 404.606 657.198 407.199L655.901 409.144C655.469 407.847 654.389 404.823 652.66 400.069V402.014C652.66 418.219 652.012 432.479 652.012 448.036C652.012 449.332 652.012 450.629 650.716 451.277C645.53 452.141 636.672 452.573 624.14 452.573C608.151 452.573 599.94 451.925 599.508 450.629C599.508 449.765 599.292 449.116 598.86 448.684C598.86 444.795 598.86 441.122 598.86 437.665C598.427 432.911 598.212 428.158 598.212 423.404C597.779 417.354 597.563 409.576 597.563 400.069Z" fill="#003A70"/>
<path d="M633.213 357.936C633.645 360.529 633.861 363.337 633.861 366.362C634.509 367.011 634.509 368.955 635.158 369.603C635.806 370.9 642.288 373.493 643.584 374.141C640.127 377.166 634.077 378.894 625.435 379.326C616.792 379.759 611.174 377.814 608.581 373.493C609.229 372.844 615.711 370.9 616.36 368.955C617.008 368.307 617.008 366.362 617.656 365.714C617.656 362.689 617.872 359.88 618.304 357.288" fill="#F7C5B4"/>
<path d="M639.049 333.952C640.345 339.786 639.048 350.805 637.752 355.343C637.104 356.639 636.456 358.584 635.159 360.529C629.974 367.659 622.195 365.066 619.602 363.77C617.442 362.473 615.929 360.745 615.065 358.584C613.12 352.75 611.824 346.916 612.472 340.434C612.04 330.063 617.226 324.877 628.029 324.877C634.511 324.877 638.184 327.902 639.049 333.952Z" fill="#F7C5B4"/>
<path d="M612.472 349.507C612.472 350.155 611.824 350.155 611.175 350.155C610.743 349.723 610.527 349.075 610.527 348.211C610.095 347.779 609.879 347.13 609.879 346.266C609.879 345.834 610.095 345.618 610.527 345.618C610.959 345.186 611.391 344.97 611.823 344.97C612.256 344.97 612.472 345.186 612.472 345.618V349.507Z" fill="#F7C5B4"/>
<path d="M638.397 346.266C639.045 345.618 639.045 344.97 639.693 344.97C639.693 344.97 640.341 344.97 640.989 345.618C640.989 345.618 640.989 345.834 640.989 346.266C640.989 347.13 640.989 347.779 640.989 348.211C640.989 349.075 640.773 349.723 640.341 350.155C639.693 350.155 639.045 350.155 639.045 349.507C638.181 348.643 637.965 347.562 638.397 346.266Z" fill="#F7C5B4"/>
<path d="M617.006 333.303C617.654 335.248 617.654 337.192 617.006 339.785C616.142 341.514 615.061 343.242 613.765 344.971C613.117 345.619 612.469 346.267 611.82 345.619C611.82 345.619 611.82 345.403 611.82 344.971C610.524 341.73 610.524 337.841 612.469 334.6C612.469 332.007 613.117 329.414 615.061 327.469C617.006 325.525 618.951 324.228 621.543 324.228C622.84 324.228 624.137 323.58 625.433 324.228C626.081 324.228 627.377 324.228 628.025 324.228C629.322 324.228 629.97 324.228 631.267 323.58C633.211 323.58 634.508 324.228 635.804 325.525C636.452 326.173 636.452 326.821 637.101 327.469C637.533 327.469 637.965 327.469 638.397 327.469C640.342 328.118 641.638 330.062 641.638 332.007C641.638 332.007 641.638 332.223 641.638 332.655C641.638 339.785 634.508 338.489 631.915 337.841C629.754 336.976 627.377 335.68 624.784 333.951C624.784 334.6 624.784 335.248 624.784 335.248C624.784 335.68 624.569 336.112 624.136 336.544C623.704 336.544 623.272 336.328 622.84 335.896C621.544 335.896 620.463 335.68 619.599 335.248C618.303 334.816 617.438 334.167 617.006 333.303Z" fill="#3C3C3B"/>
<g style="mix-blend-mode:multiply">
<path d="M626.083 367.658C621.33 367.658 618.737 365.929 618.305 362.472C618.305 363.12 621.546 365.713 626.083 365.713C629.54 365.281 631.917 364.201 633.213 362.472C632.781 365.929 630.405 367.658 626.083 367.658Z" fill="#F7C5B4"/>
</g>
<path d="M637.75 337.84C637.75 336.544 638.398 335.896 639.695 335.896C639.695 335.896 639.911 335.896 640.343 335.896C640.343 336.328 640.343 336.544 640.343 336.544C641.639 339.137 640.991 341.729 640.343 344.322C640.343 344.322 640.343 344.538 640.343 344.971C640.343 344.971 640.127 344.971 639.695 344.971C639.262 344.971 639.046 344.754 639.046 344.322C637.75 342.378 637.75 339.785 637.75 337.192" fill="#3C3C3B"/>
<g style="mix-blend-mode:multiply" opacity="0.5">
<path d="M650.716 451.277C640.345 452.574 631.918 453.006 625.436 452.573C615.065 451.925 603.397 451.925 600.156 450.629C615.281 456.247 632.134 456.463 650.716 451.277Z" fill="#3B5CAD"/>
</g>
<path d="M620.248 348.861C620.248 349.509 619.6 350.158 618.303 350.158C617.655 350.158 617.007 349.509 617.007 348.861C617.007 348.213 617.655 347.565 618.303 347.565C619.6 347.565 620.248 348.213 620.248 348.861Z" fill="#3C3C3B"/>
<path d="M632.565 347.565C633.213 347.565 633.862 348.213 633.862 348.861C633.862 349.509 633.213 350.158 632.565 350.158C631.917 350.158 631.269 349.509 631.269 348.861C631.269 348.213 631.917 347.565 632.565 347.565Z" fill="#3C3C3B"/>
<path d="M625.437 348.211C625.437 349.507 625.437 350.588 625.437 351.452C625.005 352.316 624.789 352.964 624.789 353.396C624.789 354.045 625.437 354.045 626.085 354.045C626.085 354.477 626.085 354.693 626.085 354.693C625.437 354.693 624.789 354.693 624.141 353.396C624.141 352.964 624.357 352.316 624.789 351.452C624.789 350.588 625.005 349.507 625.437 348.211Z" fill="#DA806C"/>
<path d="M629.326 355.99C628.03 357.286 626.085 358.582 624.789 357.934C624.357 357.934 624.141 357.934 624.141 357.934C624.141 357.502 624.357 357.286 624.789 357.286C626.085 357.286 627.382 356.854 628.678 355.99C628.678 355.557 628.894 355.341 629.326 355.341C629.326 355.773 629.326 355.99 629.326 355.99Z" fill="#DA806C"/>
<path d="M622.191 347.565C619.598 345.62 618.302 344.972 616.357 344.324C616.357 344.324 616.141 344.324 615.709 344.324C616.141 343.891 616.789 343.675 617.654 343.675C618.95 343.675 620.03 344.108 620.895 344.972C620.895 344.972 621.11 344.972 621.543 344.972C621.543 345.404 621.543 345.62 621.543 345.62C622.191 345.62 622.191 346.916 622.191 347.565Z" fill="#3C3C3B"/>
<path d="M628.678 347.565C628.029 346.916 628.029 345.62 628.678 345.62C629.11 345.62 629.326 345.404 629.326 344.972C630.622 344.108 631.918 343.675 633.215 343.675C633.647 343.675 634.079 343.891 634.511 344.324C631.918 344.972 630.622 345.62 628.678 347.565Z" fill="#3C3C3B"/>
<path d="M679.88 413.031H570.982C567.044 413.031 563.852 416.223 563.852 420.161V475.906C563.852 479.844 567.044 483.037 570.982 483.037H679.88C683.818 483.037 687.01 479.844 687.01 475.906V420.161C687.01 416.223 683.818 413.031 679.88 413.031Z" fill="#E94552"/>
<path d="M687.01 436.367H563.852V423.403H687.01V436.367Z" fill="#3B5CAD"/>
<path d="M604.688 448.035H567.092V440.257H604.688V448.035Z" fill="white"/>
<path d="M628.021 448.035H609.871V440.257H628.021V448.035Z" fill="white"/>
<path d="M689.605 462.944C689.605 464.241 688.957 466.185 687.661 466.834C686.365 467.482 685.068 467.482 683.772 467.482C682.475 467.482 681.179 467.266 679.882 466.834L679.234 466.185C678.586 465.537 679.234 464.889 679.882 464.241C680.531 464.241 681.179 464.241 681.827 464.241C681.179 464.241 680.531 464.241 679.882 463.593C679.234 462.944 678.586 462.296 679.234 461.648C679.666 461.648 680.099 461.648 680.531 461.648C680.963 461.216 681.611 461.216 682.475 461.648C681.611 461.216 680.747 460.784 679.882 460.352C679.234 459.703 679.234 459.055 679.882 458.407C679.882 458.407 680.099 458.407 680.531 458.407C681.395 458.407 682.475 458.623 683.772 459.055C682.908 458.623 682.259 458.191 681.827 457.759C680.531 457.111 679.883 456.462 680.531 455.814C681.179 455.166 681.827 455.166 682.475 455.166C684.42 455.814 685.716 456.462 687.013 457.111V455.814V444.146L690.254 455.814C690.254 458.407 690.254 460.352 689.605 462.944Z" fill="#F7C5B4"/>
<path d="M572.282 466.185C571.634 466.834 571.634 466.834 570.986 466.834C569.689 467.266 568.393 467.482 567.097 467.482C565.8 467.482 564.504 467.482 563.855 466.834C562.559 466.185 561.911 464.241 561.263 462.944C560.614 461 560.614 458.407 561.263 455.814L563.855 444.146V455.814V457.111C565.152 457.111 567.096 455.814 568.393 455.814C569.041 455.166 570.338 455.166 570.338 455.814C570.986 456.462 570.337 457.111 569.689 457.759C568.825 458.191 567.961 458.623 567.097 459.055C568.393 459.055 569.473 458.839 570.338 458.407C570.77 458.407 571.201 458.407 571.634 458.407C572.282 459.055 571.634 459.703 570.986 460.352C570.121 460.784 569.257 461.216 568.393 461.648C569.257 461.648 570.121 461.648 570.986 461.648C571.418 461.648 571.634 461.648 571.634 461.648C572.282 462.296 572.282 463.593 571.634 463.593C570.985 464.241 569.689 464.241 569.041 464.241C569.689 464.241 570.337 464.241 570.986 464.889C571.634 464.889 572.282 465.537 572.282 466.185Z" fill="#F7C5B4"/>
<path d="M640.992 394.884C644.881 395.748 645.961 398.125 644.233 402.014C644.665 403.742 644.017 404.607 642.288 404.607C641.424 404.607 641.208 405.039 641.64 405.903C641.208 405.903 640.56 405.903 639.695 405.903C638.831 405.903 638.183 405.903 637.751 405.903C637.751 405.039 637.535 404.607 637.103 404.607C635.374 404.607 634.726 403.742 635.158 402.014C633.43 398.125 634.294 395.748 637.751 394.884C638.615 394.452 639.695 394.452 640.992 394.884Z" fill="white"/>
<path d="M640.345 400.069C640.345 399.637 640.561 399.421 640.993 399.421C641.425 399.421 641.641 399.421 641.641 399.421C642.073 399.421 642.505 399.637 642.937 400.069C642.937 400.069 643.154 400.069 643.586 400.069C643.586 400.501 643.586 400.717 643.586 400.717C643.586 401.149 643.369 401.582 642.937 402.014C642.937 402.014 642.721 402.014 642.289 402.014C642.289 402.662 641.641 402.014 640.993 402.014C640.561 401.582 640.345 401.149 640.345 400.717C640.345 400.285 640.345 400.069 640.345 400.069Z" fill="#003A70"/>
<path d="M639.048 400.717C638.616 401.149 638.183 401.582 637.751 402.014C637.103 402.014 637.103 402.014 636.455 402.014C636.023 402.014 635.807 401.798 635.807 401.365C635.807 400.933 635.807 400.717 635.807 400.717C635.807 400.285 635.807 400.069 635.807 400.069C636.239 399.637 636.455 399.421 636.455 399.421C636.887 399.421 637.319 399.421 637.751 399.421C638.183 399.421 638.4 399.421 638.4 399.421C638.832 399.853 639.048 400.069 639.048 400.069C639.048 400.069 639.048 400.285 639.048 400.717Z" fill="#003A70"/>
<path d="M639.696 401.365C640.128 401.797 640.344 402.229 640.344 402.661C640.344 403.093 640.344 403.093 640.344 402.661C639.912 402.661 639.696 402.661 639.696 402.661C639.264 403.093 639.048 403.093 639.048 402.661C639.048 402.661 639.048 402.445 639.048 402.013C639.048 402.013 639.264 401.797 639.696 401.365Z" fill="#003A70"/>
<g style="mix-blend-mode:multiply">
<path d="M711.001 245.797V256.168V300.246C711.001 306.728 705.815 311.914 699.333 311.914H541.172C535.338 311.914 530.152 306.728 530.152 300.246V256.168V245.797C530.152 239.315 535.338 234.129 541.172 234.129H699.333C705.815 234.129 711.001 239.315 711.001 245.797Z" fill="#C7D4E2"/>
</g>
<path d="M525.614 252.928V243.205C525.614 236.723 530.8 231.538 537.282 231.538H694.795C701.277 231.538 706.463 236.723 706.463 243.205V252.928H525.614Z" fill="#407CCA"/>
<path d="M706.463 252.927V297.005C706.463 303.487 701.277 308.673 694.795 308.673H537.282C530.8 308.673 525.614 303.487 525.614 297.005V252.927H706.463Z" fill="white"/>
<path d="M569.694 274.32H572.935L572.287 280.154L576.824 276.913L578.769 279.506L573.583 282.098L578.769 284.691L576.824 287.284L572.287 284.043L572.935 289.229H569.694L570.342 283.395L565.805 287.284L564.508 284.043L569.046 282.098L563.86 279.506L565.805 276.913L570.342 280.154L569.694 274.32Z" fill="#407CCA"/>
<path d="M593.027 274.32H595.62V280.154L600.157 276.913L601.454 279.506L596.268 282.098L601.454 284.691L600.157 287.284L595.62 284.043V289.229H593.027V283.395L589.138 287.284L587.193 284.043L592.379 282.098L587.193 279.506L588.49 276.913L593.027 280.154V274.32Z" fill="#407CCA"/>
<path d="M615.714 274.32H618.955L618.306 280.154L622.844 276.913L624.788 279.506L619.603 282.098L624.788 284.691L622.844 287.284L618.306 284.043L618.955 289.229H615.714L616.362 283.395L611.824 287.284L610.528 284.043L615.065 282.098L609.88 279.506L611.824 276.913L616.362 280.154L615.714 274.32Z" fill="#407CCA"/>
<path d="M639.053 274.32H642.294L641.646 280.154L646.183 276.913L647.479 279.506L642.294 282.098L647.479 284.691L646.183 287.284L641.646 284.043L642.294 289.229H639.053L639.701 283.395L635.164 287.284L633.219 284.043L638.405 282.098L633.219 279.506L635.164 276.913L639.701 280.154L639.053 274.32Z" fill="#407CCA"/>
<path d="M661.737 274.32H664.978L664.33 280.154L668.867 276.913L670.812 279.506L665.626 282.098L670.812 284.691L668.867 287.284L664.33 284.043L664.978 289.229H661.737L662.385 283.395L657.848 287.284L656.552 284.043L661.089 282.098L656.552 279.506L657.848 276.913L662.385 280.154L661.737 274.32Z" fill="#407CCA"/>
</g>
<defs>
<linearGradient id="paint0_linear_1036_1123" x1="423.074" y1="611.383" x2="119.066" y2="747.506" gradientUnits="userSpaceOnUse">
<stop stop-color="white"/>
<stop offset="1" stop-color="#C1DEF2"/>
</linearGradient>
<linearGradient id="paint1_linear_1036_1123" x1="662.382" y1="197.83" x2="801.098" y2="508.32" gradientUnits="userSpaceOnUse">
<stop stop-color="white"/>
<stop offset="1" stop-color="#C1DEF2"/>
</linearGradient>
<clipPath id="clip0_1036_1123">
<rect width="711" height="652" fill="white" transform="translate(-0.000976562)"/>
</clipPath>
</defs>
</svg>
