<svg width="25" height="24" viewBox="0 0 25 24" fill="none" xmlns="http://www.w3.org/2000/svg">
<path d="M12.9961 2.24951C11.0677 2.24951 9.18267 2.82134 7.57929 3.89268C5.97591 4.96403 4.72623 6.48677 3.98827 8.26835C3.25032 10.0499 3.05724 12.0103 3.43344 13.9016C3.80965 15.793 4.73824 17.5302 6.10181 18.8938C7.46537 20.2574 9.20265 21.186 11.094 21.5622C12.9853 21.9384 14.9457 21.7453 16.7273 21.0073C18.5088 20.2694 20.0316 19.0197 21.1029 17.4163C22.1743 15.8129 22.7461 13.9279 22.7461 11.9995C22.7431 9.41457 21.7149 6.93635 19.8871 5.10852C18.0593 3.28069 15.581 2.2525 12.9961 2.24951V2.24951ZM17.6397 10.2922L12.1392 15.5422C11.9993 15.6753 11.8137 15.7495 11.6206 15.7495C11.4276 15.7495 11.2419 15.6753 11.1021 15.5422L8.35254 12.9172C8.2089 12.7796 8.12574 12.5907 8.12134 12.3918C8.11694 12.1929 8.19165 12.0004 8.32906 11.8566C8.46648 11.7128 8.65536 11.6294 8.85422 11.6247C9.05308 11.6201 9.24566 11.6946 9.38965 11.8318L11.6206 13.9624L16.6025 9.20679C16.7465 9.06955 16.9391 8.99509 17.138 8.99974C17.3368 9.0044 17.5257 9.08779 17.6631 9.23162C17.8005 9.37544 17.8753 9.56792 17.8709 9.76678C17.8665 9.96565 17.7833 10.1546 17.6397 10.2922V10.2922Z" fill="#F9C747"/>
</svg>
