<svg width="16" height="12" viewBox="0 0 16 12" fill="none" xmlns="http://www.w3.org/2000/svg">
<path d="M15.1813 1.5359C14.6413 1.7699 14.0833 1.9319 13.4893 2.0039C14.1013 1.6439 14.5693 1.0679 14.7853 0.365902C14.2093 0.707902 13.5793 0.941903 12.9133 1.0859C12.3733 0.509902 11.5993 0.149902 10.7533 0.149902C9.11526 0.149902 7.80126 1.4819 7.80126 3.1019C7.80126 3.3359 7.81926 3.5519 7.87326 3.7679C5.42525 3.6599 3.26525 2.4719 1.80725 0.689902C0.76325 2.5619 1.93325 4.1099 2.70725 4.6319C2.23925 4.6319 1.77125 4.4879 1.37525 4.2719C1.37525 5.7299 2.40125 6.9359 3.73325 7.2059C3.44525 7.2959 2.79725 7.3499 2.40125 7.2599C2.77925 8.4299 3.87725 9.2939 5.15525 9.3119C4.14725 10.1039 2.67125 10.7339 0.78125 10.5359C2.09525 11.3819 3.64325 11.8679 5.31725 11.8679C10.7533 11.8679 13.7053 7.3679 13.7053 3.4799C13.7053 3.3539 13.7053 3.2279 13.6873 3.1019C14.2993 2.6519 14.8033 2.1299 15.1813 1.5359Z" fill="#FEFFFE"/>
</svg>
