<svg width="144" height="144" viewBox="0 0 144 144" fill="none" xmlns="http://www.w3.org/2000/svg">
<g filter="url(#filter0_d_1040_322)">
<rect x="28" y="12" width="88" height="88" rx="16" fill="#011D3A"/>
</g>
<path d="M77.5356 48.1109C77.8507 48.4259 77.9598 48.8923 77.8173 49.3144L75.4637 56.2839C75.2987 56.7727 74.8425 57.0812 74.3536 57.0812C74.2293 57.0812 74.1029 57.0612 73.9786 57.0193C73.3654 56.8123 73.0362 56.1473 73.2432 55.5341L75.364 49.2538L73.5248 47.4147C73.2313 47.1212 73.1149 46.6943 73.219 46.2924L74.063 43.0312H64.3149C63.5404 44.1896 62.5431 45.1869 61.3848 45.9614V50.7385C61.3848 55.4544 62.4766 59.6444 64.5424 62.8555C66.3505 65.6662 68.8583 67.6389 72.0008 68.7238C75.143 67.6391 77.6504 65.6664 79.4582 62.8559C81.5236 59.6449 82.6152 55.4548 82.6152 50.7385V45.9614C81.4569 45.1868 80.4596 44.1895 79.6851 43.0312H76.4841L75.6559 46.231L77.5356 48.1109Z" fill="#F9C747"/>
<path d="M88.4746 40.707C86.5253 40.707 84.9395 39.1212 84.9395 37.1719C84.9395 36.5247 84.4148 36 83.7676 36H78.3039L77.0906 40.6875H80.3352C80.7535 40.6875 81.1402 40.9105 81.3496 41.2728C82.0745 42.5263 83.1202 43.572 84.3737 44.2969C84.7359 44.5063 84.959 44.893 84.959 45.3113V50.7386C84.959 55.9054 83.7384 60.5339 81.4294 64.1238C79.2513 67.5099 76.199 69.8487 72.3571 71.075C72.2413 71.112 72.121 71.1305 72.0008 71.1305C71.8805 71.1305 71.7603 71.112 71.6445 71.075C67.8023 69.8486 64.7496 67.5098 62.5712 64.1236C60.2617 60.5335 59.0409 55.9051 59.0409 50.7386V45.3113C59.0409 44.893 59.264 44.5062 59.6262 44.2968C60.8798 43.572 61.9255 42.5263 62.6502 41.2728C62.8597 40.9106 63.2463 40.6875 63.6648 40.6875H74.6697L75.883 36H60.2324C59.5852 36 59.0605 36.5247 59.0605 37.1719C59.0605 39.1212 57.4747 40.707 55.5254 40.707C54.8782 40.707 54.3535 41.2317 54.3535 41.8789V50.7385C54.3535 56.8062 55.832 62.3116 58.6291 66.6596C61.6593 71.37 66.1852 74.5879 71.7177 75.9653C71.8106 75.9884 71.9057 76 72.0008 76C72.0959 76 72.1909 75.9884 72.2839 75.9653C77.8162 74.5879 82.342 71.3701 85.3717 66.6596C88.1683 62.3119 89.6464 56.8064 89.6464 50.7386V41.8789C89.6465 41.2317 89.1218 40.707 88.4746 40.707Z" fill="#F9C747"/>
<defs>
<filter id="filter0_d_1040_322" x="0" y="0" width="144" height="144" filterUnits="userSpaceOnUse" color-interpolation-filters="sRGB">
<feFlood flood-opacity="0" result="BackgroundImageFix"/>
<feColorMatrix in="SourceAlpha" type="matrix" values="0 0 0 0 0 0 0 0 0 0 0 0 0 0 0 0 0 0 127 0" result="hardAlpha"/>
<feMorphology radius="4" operator="dilate" in="SourceAlpha" result="effect1_dropShadow_1040_322"/>
<feOffset dy="16"/>
<feGaussianBlur stdDeviation="12"/>
<feComposite in2="hardAlpha" operator="out"/>
<feColorMatrix type="matrix" values="0 0 0 0 0.00392157 0 0 0 0 0.0823529 0 0 0 0 0.160784 0 0 0 0.2 0"/>
<feBlend mode="normal" in2="BackgroundImageFix" result="effect1_dropShadow_1040_322"/>
<feBlend mode="normal" in="SourceGraphic" in2="effect1_dropShadow_1040_322" result="shape"/>
</filter>
</defs>
</svg>
