<svg width="144" height="144" viewBox="0 0 144 144" fill="none" xmlns="http://www.w3.org/2000/svg">
<g filter="url(#filter0_d_1040_282)">
<rect x="28" y="12" width="88" height="88" rx="16" fill="#011D3A"/>
</g>
<g clip-path="url(#clip0_1040_282)">
<path d="M86.752 65.0218H90.3631V44.4058C90.3631 43.7586 89.8384 43.2339 89.1912 43.2339H86.752V65.0218Z" fill="#F9C747"/>
<path d="M57.905 65.0218V43.2339H54.8086C54.1614 43.2339 53.6367 43.7586 53.6367 44.4058V65.0219H57.905V65.0218Z" fill="#F9C747"/>
<path d="M60.248 65.0218H67.5328C68.18 65.0218 68.7047 65.5465 68.7047 66.1937C68.7047 66.6659 69.0854 67.0501 69.5533 67.0501H74.4448C74.9127 67.0501 75.2934 66.6659 75.2934 66.1937C75.2934 65.5465 75.818 65.0218 76.4652 65.0218H84.4071V37.1719C84.4071 36.5247 83.8824 36 83.2352 36H61.4199C60.7727 36 60.248 36.5247 60.248 37.1719V65.0218ZM77.9173 57.3118V60.804C77.9173 61.4512 77.3926 61.9759 76.7454 61.9759H67.9098C67.2627 61.9759 66.738 61.4512 66.738 60.804V57.3118C64.7266 55.6442 63.5424 53.1465 63.5424 50.5133C63.5424 45.6528 67.4834 41.6985 72.3277 41.6985C77.1719 41.6985 81.1129 45.6528 81.1129 50.5133C81.1129 53.1464 79.9287 55.6442 77.9173 57.3118Z" fill="#F9C747"/>
<path d="M78.7697 50.5135C78.7697 46.9454 75.8801 44.0425 72.3282 44.0425C68.7763 44.0425 65.8867 46.9454 65.8867 50.5135C65.8867 52.5997 66.8984 54.5701 68.593 55.7843C68.9002 56.0043 69.0823 56.359 69.0823 56.7368V59.6324H75.5741V56.7368C75.5741 56.359 75.7563 56.0043 76.0635 55.7843C77.758 54.5701 78.7697 52.5997 78.7697 50.5135ZM70.841 53.4859C70.6124 53.7133 70.3135 53.8269 70.0147 53.8269C69.7137 53.8269 69.4128 53.7116 69.1837 53.4813L67.9576 52.2483C67.5012 51.7894 67.5033 51.0475 67.9622 50.5911C68.421 50.1347 69.163 50.1367 69.6195 50.5957L70.8456 51.8286C71.302 52.2876 71.2999 53.0296 70.841 53.4859ZM75.4462 53.4319C75.2198 53.6456 74.9305 53.7516 74.6419 53.7516C74.3306 53.7516 74.0201 53.6284 73.7895 53.3843C73.3452 52.9136 73.3666 52.1719 73.8371 51.7276L75.0633 50.57C75.5339 50.1256 76.2756 50.1471 76.7199 50.6176C77.1642 51.0882 77.1429 51.8299 76.6723 52.2742L75.4462 53.4319Z" fill="#F9C747"/>
<path d="M90.8281 67.3657H77.4165C76.9491 68.5523 75.7936 69.394 74.4458 69.394H69.5543C68.2065 69.394 67.051 68.5523 66.5836 67.3657H53.1719C52.5247 67.3657 52 67.8904 52 68.5376V71.7391C52 74.0887 53.9061 76.0002 56.2491 76.0002H87.7509C90.0939 76.0002 92.0001 74.0887 92.0001 71.7392V68.5377C92 67.8904 91.4753 67.3657 90.8281 67.3657Z" fill="#F9C747"/>
</g>
<defs>
<filter id="filter0_d_1040_282" x="0" y="0" width="144" height="144" filterUnits="userSpaceOnUse" color-interpolation-filters="sRGB">
<feFlood flood-opacity="0" result="BackgroundImageFix"/>
<feColorMatrix in="SourceAlpha" type="matrix" values="0 0 0 0 0 0 0 0 0 0 0 0 0 0 0 0 0 0 127 0" result="hardAlpha"/>
<feMorphology radius="4" operator="dilate" in="SourceAlpha" result="effect1_dropShadow_1040_282"/>
<feOffset dy="16"/>
<feGaussianBlur stdDeviation="12"/>
<feComposite in2="hardAlpha" operator="out"/>
<feColorMatrix type="matrix" values="0 0 0 0 0.00392157 0 0 0 0 0.0823529 0 0 0 0 0.160784 0 0 0 0.2 0"/>
<feBlend mode="normal" in2="BackgroundImageFix" result="effect1_dropShadow_1040_282"/>
<feBlend mode="normal" in="SourceGraphic" in2="effect1_dropShadow_1040_282" result="shape"/>
</filter>
<clipPath id="clip0_1040_282">
<rect width="40" height="40" fill="white" transform="translate(52 36)"/>
</clipPath>
</defs>
</svg>
